STARTFONT 2.1
FONT -FontForge-Fredoka One-Book-R-Normal--75-720-75-75-P-435-ISO10646-1
SIZE 72 75 75
FONTBOUNDINGBOX 139 91 -10 -18
COMMENT "Generated by fontforge, http://fontforge.sourceforge.net"
COMMENT "Copyright (c) 2011 Milena B Brandao (milenabbrandao@gmail.com), with Reserved Font Name "Fredoka""
STARTPROPERTIES 39
FOUNDRY "FontForge"
FAMILY_NAME "Fredoka One"
WEIGHT_NAME "Book"
SLANT "R"
SETWIDTH_NAME "Normal"
ADD_STYLE_NAME ""
PIXEL_SIZE 75
POINT_SIZE 720
RESOLUTION_X 75
RESOLUTION_Y 75
SPACING "P"
AVERAGE_WIDTH 435
CHARSET_REGISTRY "ISO10646"
CHARSET_ENCODING "1"
FONTNAME_REGISTRY ""
CHARSET_COLLECTIONS "ISO10646-1"
FONT_NAME "FredokaOne-Regular"
FACE_NAME "Fredoka One"
COPYRIGHT "Copyright (c) 2011 Milena B Brandao (milenabbrandao@gmail.com), with Reserved Font Name "Fredoka""
FONT_VERSION "1.001"
FONT_ASCENT 60
FONT_DESCENT 15
UNDERLINE_POSITION -8
UNDERLINE_THICKNESS 4
X_HEIGHT 39
CAP_HEIGHT 55
RAW_ASCENT 800
RAW_DESCENT 200
NORM_SPACE 19
RELATIVE_WEIGHT 40
RELATIVE_SETWIDTH 50
SUPERSCRIPT_X 0
SUPERSCRIPT_Y 35
SUPERSCRIPT_SIZE 48
SUBSCRIPT_X 0
SUBSCRIPT_Y 10
SUBSCRIPT_SIZE 48
AVG_LOWERCASE_WIDTH 426
AVG_UPPERCASE_WIDTH 514
ENDPROPERTIES
CHARS 235
STARTCHAR space
ENCODING 32
SWIDTH 253 0
DWIDTH 19 0
BBX 1 1 0 0
BITMAP
00
ENDCHAR
STARTCHAR exclam
ENCODING 33
SWIDTH 267 0
DWIDTH 20 0
BBX 14 55 3 0
BITMAP
3FF0
7FF8
7FF8
FFFC
FFFC
FFFC
FFFC
FFFC
FFFC
FFFC
FFFC
FFFC
FFFC
FFFC
FFFC
FFFC
FFFC
FFFC
FFFC
FFFC
FFFC
FFFC
FFFC
FFFC
FFFC
FFFC
FFFC
FFFC
FFFC
FFFC
FFFC
FFFC
7FF8
7FF8
3FF0
0000
0000
0000
0000
0000
0000
1FE0
3FF8
7FF8
FFFC
FFFC
FFFC
FFFC
FFFC
FFFC
FFFC
FFFC
7FF8
7FF8
1FE0
ENDCHAR
STARTCHAR quotedbl
ENCODING 34
SWIDTH 429 0
DWIDTH 32 0
BBX 28 26 2 29
BITMAP
1F801F80
7FC03FE0
FFE07FF0
FFE07FF0
FFE07FF0
FFF07FF0
FFF0FFF0
FFF0FFF0
FFF0FFF0
FFF07FF0
FFF07FF0
FFF07FF0
FFE07FF0
FFE07FF0
FFE07FF0
7FE07FF0
7FE07FE0
7FE03FE0
7FC03FE0
7FC03FE0
3FC03FC0
3FC01FC0
3F801FC0
1F801F80
1F000F80
0F000F00
ENDCHAR
STARTCHAR numbersign
ENCODING 35
SWIDTH 749 0
DWIDTH 56 0
BBX 54 55 1 0
BITMAP
00003F0000FC00
0000FFC003FF00
0000FFC003FF00
0001FFC007FF00
0001FFC007FF00
0001FFC007FF00
0001FFC007FF00
0001FFC007FF00
0001FF8007FE00
0003FF800FFE00
0003FF800FFE00
0003FF800FFE00
0003FF800FFE00
0003FF800FFC00
00FFFFFFFFFFE0
07FFFFFFFFFFFC
0FFFFFFFFFFFFC
0FFFFFFFFFFFFC
1FFFFFFFFFFFFC
1FFFFFFFFFFFFC
1FFFFFFFFFFFFC
1FFFFFFFFFFFF8
1FFFFFFFFFFFF8
0FFFFFFFFFFFF0
000FFE003FF800
000FFE003FF000
000FFC003FF000
000FFC007FF000
001FFC007FF000
001FFC007FF000
001FFC007FF000
001FFC007FF000
03FFFFFFFFFE00
3FFFFFFFFFFFE0
7FFFFFFFFFFFE0
7FFFFFFFFFFFE0
FFFFFFFFFFFFE0
FFFFFFFFFFFFE0
FFFFFFFFFFFFE0
FFFFFFFFFFFFC0
FFFFFFFFFFFFC0
7FFFFFFFFFFF80
007FF001FFC000
007FF001FFC000
007FE001FF8000
007FE003FF8000
00FFE003FF8000
00FFE003FF8000
00FFE003FF8000
00FFE003FF8000
00FFC003FF0000
00FFC007FF0000
00FFC003FF0000
00FF8003FE0000
003C0000E80000
ENDCHAR
STARTCHAR dollar
ENCODING 36
SWIDTH 475 0
DWIDTH 36 0
BBX 32 64 2 -6
BITMAP
0007E000
000FF000
000FF000
001FF000
001FF000
001FF000
001FF000
001FF000
001FF000
001FF000
00FFFE00
03FFFF80
07FFFFE0
0FFFFFF0
1FFFFFF8
1FFFFFF8
3FFFFFF8
3FFFFFF8
7FFFFFF0
7FF83FF0
7FF00FE0
7FE007C0
7FE00000
7FE00000
7FF00000
7FF80000
7FFF8000
3FFFF800
3FFFFF00
1FFFFFE0
1FFFFFF0
0FFFFFF8
07FFFFFC
01FFFFFC
003FFFFE
0007FFFE
00007FFE
00001FFF
000007FF
1F0007FF
3F8007FF
7FC007FF
FFE00FFF
FFF01FFE
FFFFFFFE
FFFFFFFE
7FFFFFFC
7FFFFFFC
3FFFFFF8
1FFFFFF0
0FFFFFE0
03FFFFC0
01FFFF00
003FF800
001FF000
001FF000
001FF000
001FF000
001FF000
001FF000
000FF000
000FF000
000FF000
0007E000
ENDCHAR
STARTCHAR percent
ENCODING 37
SWIDTH 1742 0
DWIDTH 131 0
BBX 127 63 2 -4
BITMAP
00000000000000000060000000000000
000000000000000001FC000000000000
000000000000000001FF000000000000
00007F800000000003FF800003F80000
0007FFF00000000007FFC0003FFF8000
001FFFFC0000000007FFC000FFFFE000
003FFFFF0000000007FFC001FFFFF800
00FFFFFF800000000FFFC007FFFFFC00
01FFFFFFC00000000FFF800FFFFFFE00
03FFFFFFE00000001FFF801FFFFFFF00
07FFFFFFF00000001FFF001FFFFFFF80
07FFFFFFF80000003FFF003FFFFFFFC0
0FFFFFFFF80000003FFE007FFFFFFFC0
0FFFFFFFFC0000007FFE007FFFFFFFE0
1FFFFFFFFC0000007FFE00FFFFFFFFE0
1FFFFFFFFE000000FFFC00FFFFFFFFF0
3FFFFFFFFE000000FFFC01FFFFFFFFF0
3FFF80FFFF000001FFF801FFFC07FFF8
3FFF007FFF000001FFF801FFF803FFF8
7FFE003FFF000003FFF003FFF801FFF8
7FFE001FFF000003FFF003FFF000FFF8
7FFE001FFF800007FFE003FFF000FFFC
7FFC001FFF800007FFE003FFE000FFFC
FFFC000FFF80000FFFC003FFE0007FFC
FFFC000FFF80000FFFC007FFE0007FFC
FFFC000FFF80001FFF8007FFE0007FFC
FFF8000FFF80001FFF8007FFC0007FFC
FFF8000FFFC0003FFF0007FFC0007FFE
FFF8000FFFC0003FFF0007FFC0007FFE
FFF8000FFFC0003FFE0007FFC0007FFE
FFF8000FFFC0007FFE0007FFC0007FFE
FFF8000FFFC0007FFC0007FFC0007FFE
FFF8000FFFC000FFFC0007FFC0007FFE
FFF8000FFFC000FFF80007FFC0007FFE
FFF8000FFFC001FFF80007FFC0007FFE
FFF8000FFFC001FFF00007FFC0007FFE
FFF8000FFFC003FFF00007FFC0007FFE
FFFC000FFF8003FFE00007FFE0007FFC
FFFC000FFF8007FFE00007FFE0007FFC
FFFC000FFF8007FFC00007FFE0007FFC
7FFC001FFF800FFFC00003FFE0007FFC
7FFC001FFF800FFFC00003FFE000FFFC
7FFE001FFF801FFF800003FFF000FFFC
7FFE003FFF001FFF800003FFF001FFF8
3FFF003FFF003FFF000001FFF801FFF8
3FFF807FFF003FFF000001FFFC03FFF8
3FFFE3FFFE007FFE000001FFFF1FFFF0
1FFFFFFFFE007FFE000000FFFFFFFFF0
1FFFFFFFFE00FFFC000000FFFFFFFFF0
1FFFFFFFFC00FFFC000000FFFFFFFFE0
0FFFFFFFFC01FFF80000007FFFFFFFE0
07FFFFFFF801FFF80000003FFFFFFFC0
07FFFFFFF001FFF00000003FFFFFFF80
03FFFFFFF003FFF00000001FFFFFFF80
01FFFFFFE003FFE00000000FFFFFFF00
00FFFFFFC007FFE000000007FFFFFE00
007FFFFF0007FFC000000003FFFFFC00
001FFFFE0007FFC000000000FFFFF000
0007FFF80007FF80000000003FFFC000
0000FFC00007FF800000000007FE0000
000000000003FF000000000000000000
000000000000FF000000000000000000
0000000000003E000000000000000000
ENDCHAR
STARTCHAR ampersand
ENCODING 38
SWIDTH 748 0
DWIDTH 56 0
BBX 52 59 2 -1
BITMAP
00001F80000000
0003FFFC000000
000FFFFF000000
001FFFFF800000
007FFFFFC00000
00FFFFFFE00000
00FFFFFFF00000
01FFFFFFF00000
01FFFFFFF80000
03FFFFFFF80000
03FFF1FFF80000
03FFC07FF80000
03FFC03FF80000
03FF803FF80000
07FF807FF80000
07FF807FF80000
03FFC0FFF80000
03FFC1FFF80000
03FFC7FFF00000
03FFCFFFF00000
03FFFFFFE00000
03FFFFFFE00000
01FFFFFFC00000
01FFFFFF800000
01FFFFFF000000
00FFFFFE000000
00FFFFF8000000
00FFFFF0000000
01FFFFE0000000
03FFFF80000000
07FFFF8000FE00
0FFFFF8003FF00
1FFFFFC007FF80
1FFFFFE007FF80
3FFFFFF007FF80
3FFFFFF80FFF80
7FFFFFFC0FFF80
7FFFFFFE1FFF80
FFFDFFFF1FFF00
FFFCFFFFBFFF00
FFF87FFFFFFE00
FFF83FFFFFFE00
FFF83FFFFFFC00
FFF81FFFFFFC00
FFF80FFFFFF800
FFFC07FFFFF800
FFFE03FFFFFFC0
FFFFFFFFFFFFE0
7FFFFFFFFFFFF0
7FFFFFFFFFFFF0
7FFFFFFFFFFFF0
3FFFFFFFFFFFF0
1FFFFFFFFFFFF0
0FFFFFFFFFFFF0
07FFFFFFFFFFF0
03FFFFFF1FFFF0
00FFFFFC03FFE0
003FFFE0007FC0
00007C00000000
ENDCHAR
STARTCHAR quotesingle
ENCODING 39
SWIDTH 208 0
DWIDTH 16 0
BBX 12 26 2 29
BITMAP
1F80
7FC0
FFE0
FFE0
FFE0
FFF0
FFF0
FFF0
FFF0
FFF0
FFF0
FFF0
FFE0
FFE0
FFE0
7FE0
7FE0
7FE0
7FC0
7FC0
3FC0
3FC0
3F80
1F80
1F00
0F00
ENDCHAR
STARTCHAR parenleft
ENCODING 40
SWIDTH 384 0
DWIDTH 29 0
BBX 26 75 2 -17
BITMAP
00007F00
0003FF80
0007FF80
001FFFC0
003FFFC0
007FFFC0
007FFFC0
00FFFF80
01FFFF80
01FFFC00
03FFE000
03FFC000
07FF8000
07FF0000
0FFF0000
0FFE0000
0FFE0000
1FFC0000
1FFC0000
1FFC0000
3FF80000
3FF80000
3FF80000
3FF80000
7FF80000
7FF00000
7FF00000
7FF00000
7FF00000
7FF00000
7FF00000
FFF00000
FFF00000
FFF00000
FFF00000
FFF00000
FFF00000
FFF00000
FFF00000
FFF00000
FFF00000
FFF00000
FFF00000
FFF00000
7FF00000
7FF00000
7FF00000
7FF00000
7FF00000
7FF00000
7FF00000
3FF80000
3FF80000
3FF80000
3FF80000
1FFC0000
1FFC0000
1FFC0000
0FFE0000
0FFE0000
0FFE0000
07FF0000
07FF8000
03FF8000
03FFE000
01FFFE00
01FFFF80
00FFFF80
007FFFC0
003FFFC0
003FFFC0
000FFFC0
0007FF80
0003FF80
00007F00
ENDCHAR
STARTCHAR parenright
ENCODING 41
SWIDTH 384 0
DWIDTH 29 0
BBX 26 75 1 -17
BITMAP
3F800000
7FF00000
FFF80000
FFFC0000
FFFE0000
FFFF0000
FFFF8000
FFFFC000
7FFFE000
0FFFE000
01FFF000
00FFF000
007FF800
003FF800
003FF800
001FFC00
001FFC00
001FFE00
000FFE00
000FFE00
000FFE00
0007FF00
0007FF00
0007FF00
0007FF00
0007FF00
0003FF80
0003FF80
0003FF80
0003FF80
0003FF80
0003FF80
0003FF80
0003FF80
0003FF80
0003FF80
0003FFC0
0003FFC0
0003FFC0
0003FFC0
0003FF80
0003FF80
0003FF80
0003FF80
0003FF80
0003FF80
0003FF80
0003FF80
0003FF80
0003FF00
0007FF00
0007FF00
0007FF00
0007FF00
0007FE00
000FFE00
000FFE00
000FFC00
001FFC00
001FFC00
003FF800
003FF800
007FF800
00FFF000
01FFF000
1FFFE000
7FFFC000
FFFFC000
FFFF8000
FFFF0000
FFFE0000
FFFC0000
FFF80000
7FE00000
3F800000
ENDCHAR
STARTCHAR asterisk
ENCODING 42
SWIDTH 503 0
DWIDTH 38 0
BBX 36 35 1 21
BITMAP
0001F00000
0007FE0000
000FFE0000
000FFF0000
000FFF0000
000FFF0000
000FFF0000
000FFF0000
1F0FFF0F80
3FEFFF7FC0
3FFFFFFFC0
7FFFFFFFE0
7FFFFFFFE0
FFFFFFFFE0
FFFFFFFFE0
FFFFFFFFF0
FFFFFFFFF0
FFFFFFFFE0
7FFFFFFFC0
3FFFFFFF80
07FFFFFC00
00FFFFF000
01FFFFF000
01FFFFF800
03FFFFFC00
07FFFFFE00
07FFFFFE00
0FFFFFFF00
0FFFFFFF00
0FFF9FFE00
07FF1FFE00
03FF0FFC00
01FE07F800
00FC03E000
0018008000
ENDCHAR
STARTCHAR plus
ENCODING 43
SWIDTH 527 0
DWIDTH 40 0
BBX 36 35 2 3
BITMAP
0007FC0000
0007FE0000
000FFE0000
000FFF0000
000FFF0000
000FFF0000
000FFF0000
000FFF0000
000FFF0000
000FFF0000
000FFF0000
000FFF0000
7FFFFFFFC0
FFFFFFFFE0
FFFFFFFFE0
FFFFFFFFF0
FFFFFFFFF0
FFFFFFFFF0
FFFFFFFFF0
FFFFFFFFF0
FFFFFFFFE0
FFFFFFFFE0
7FFFFFFFC0
000FFF0000
000FFF0000
000FFF0000
000FFF0000
000FFF0000
000FFF0000
000FFF0000
000FFF0000
000FFF0000
000FFE0000
0007FE0000
0007FC0000
ENDCHAR
STARTCHAR comma
ENCODING 44
SWIDTH 238 0
DWIDTH 18 0
BBX 14 26 2 -12
BITMAP
1FE0
7FF0
7FF8
FFFC
FFFC
FFFC
FFFC
FFFC
FFFC
FFFC
FFFC
7FFC
7FF8
1FF8
07F8
07F8
0FF0
0FF0
1FE0
3FE0
7FC0
FF80
FF80
FE00
FC00
7000
ENDCHAR
STARTCHAR hyphen
ENCODING 45
SWIDTH 433 0
DWIDTH 32 0
BBX 29 12 2 10
BITMAP
3FFFFFE0
7FFFFFF0
FFFFFFF0
FFFFFFF0
FFFFFFF8
FFFFFFF8
FFFFFFF8
FFFFFFF8
FFFFFFF0
FFFFFFF0
7FFFFFE0
0FFFFF00
ENDCHAR
STARTCHAR period
ENCODING 46
SWIDTH 237 0
DWIDTH 18 0
BBX 14 14 2 0
BITMAP
1FC0
7FF0
7FF8
FFFC
FFFC
FFFC
FFFC
FFFC
FFFC
FFFC
FFFC
7FF8
7FF8
1FE0
ENDCHAR
STARTCHAR slash
ENCODING 47
SWIDTH 526 0
DWIDTH 39 0
BBX 37 63 1 -4
BITMAP
0000000400
0000001F80
0000003FE0
0000007FF0
0000007FF8
000000FFF8
000000FFF8
000001FFF8
000001FFF8
000003FFF0
000003FFF0
000003FFE0
000007FFE0
000007FFC0
00000FFFC0
00000FFF80
00001FFF80
00001FFF00
00003FFF00
00003FFF00
00007FFE00
00007FFE00
0000FFFC00
0000FFFC00
0001FFF800
0001FFF800
0003FFF000
0003FFF000
0007FFE000
0007FFE000
000FFFC000
000FFFC000
001FFF8000
001FFF8000
001FFF0000
003FFF0000
003FFE0000
007FFE0000
007FFC0000
00FFFC0000
00FFF80000
01FFF80000
01FFF00000
03FFF00000
03FFE00000
07FFE00000
07FFE00000
0FFFC00000
0FFFC00000
1FFF800000
1FFF800000
3FFF000000
3FFF000000
7FFE000000
7FFE000000
7FFC000000
FFFC000000
FFF8000000
FFF8000000
7FF0000000
7FF0000000
1FE0000000
07C0000000
ENDCHAR
STARTCHAR zero
ENCODING 48
SWIDTH 608 0
DWIDTH 46 0
BBX 42 57 2 -1
BITMAP
00007F800000
0007FFF00000
001FFFFC0000
003FFFFF0000
00FFFFFF8000
01FFFFFFC000
03FFFFFFE000
07FFFFFFF000
07FFFFFFF800
0FFFFFFFF800
0FFFFFFFFC00
1FFFFFFFFC00
1FFFFFFFFE00
3FFFFFFFFE00
3FFF80FFFF00
3FFF007FFF00
7FFE003FFF00
7FFE001FFF00
7FFE001FFF80
7FFC001FFF80
FFFC000FFF80
FFFC000FFF80
FFFC000FFF80
FFF8000FFF80
FFF8000FFFC0
FFF8000FFFC0
FFF8000FFFC0
FFF8000FFFC0
FFF8000FFFC0
FFF8000FFFC0
FFF8000FFFC0
FFF8000FFFC0
FFF8000FFFC0
FFF8000FFFC0
FFFC000FFF80
FFFC000FFF80
FFFC000FFF80
7FFC001FFF80
7FFC001FFF80
7FFE001FFF80
7FFE003FFF00
3FFF003FFF00
3FFF807FFF00
3FFFE3FFFE00
1FFFFFFFFE00
1FFFFFFFFE00
1FFFFFFFFC00
0FFFFFFFFC00
07FFFFFFF800
07FFFFFFF000
03FFFFFFF000
01FFFFFFE000
00FFFFFFC000
007FFFFF0000
001FFFFE0000
0007FFF80000
0000FFC00000
ENDCHAR
STARTCHAR one
ENCODING 49
SWIDTH 407 0
DWIDTH 31 0
BBX 27 55 1 0
BITMAP
00007F00
0000FF80
0001FFC0
0007FFC0
000FFFC0
001FFFE0
003FFFE0
007FFFE0
00FFFFE0
01FFFFE0
03FFFFE0
07FFFFE0
0FFFFFE0
3FFFFFE0
7FFFFFE0
7FFFFFE0
FFFFFFE0
FFFFFFE0
FFFFFFE0
7FFFFFE0
7FFFFFE0
3FFFFFE0
1FF7FFE0
0FE7FFE0
0787FFE0
0007FFE0
0007FFE0
0007FFE0
0007FFE0
0007FFE0
0007FFE0
0007FFE0
0007FFE0
0007FFE0
0007FFE0
0007FFE0
0007FFE0
0007FFE0
0007FFE0
0007FFE0
0007FFE0
0007FFE0
0007FFE0
0007FFE0
0007FFE0
0007FFE0
0007FFE0
0007FFE0
0007FFE0
0007FFE0
0007FFC0
0007FFC0
0003FFC0
0003FF80
0000FF00
ENDCHAR
STARTCHAR two
ENCODING 50
SWIDTH 609 0
DWIDTH 46 0
BBX 43 56 2 0
BITMAP
0000FE000000
0007FFF00000
003FFFFC0000
007FFFFE0000
01FFFFFF8000
03FFFFFFC000
07FFFFFFE000
0FFFFFFFF000
0FFFFFFFF000
1FFFFFFFF800
3FFFFFFFFC00
3FFFFFFFFC00
7FFFFFFFFE00
7FFFEFFFFE00
7FFF00FFFE00
FFFE007FFF00
FFFC003FFF00
FFFC003FFF00
FFF8001FFF00
FFF8001FFF00
FFF8001FFF00
FFF8001FFF00
FFF8003FFF00
FFF8003FFF00
FFF8007FFF00
7FF0007FFF00
1FE000FFFE00
000001FFFE00
000007FFFE00
00000FFFFC00
00001FFFFC00
00007FFFF800
0001FFFFF000
0003FFFFF000
000FFFFFE000
003FFFFF8000
007FFFFF0000
01FFFFFE0000
03FFFFFC0000
07FFFFF00000
0FFFFFE00000
1FFFFF000000
3FFFFC000000
3FFFFFFFFF00
7FFFFFFFFFC0
7FFFFFFFFFC0
FFFFFFFFFFC0
FFFFFFFFFFC0
FFFFFFFFFFE0
FFFFFFFFFFE0
FFFFFFFFFFE0
FFFFFFFFFFC0
7FFFFFFFFFC0
7FFFFFFFFFC0
3FFFFFFFFF80
0FFFFFFFFF00
ENDCHAR
STARTCHAR three
ENCODING 51
SWIDTH 608 0
DWIDTH 46 0
BBX 42 57 2 -1
BITMAP
00007F800000
0007FFF80000
003FFFFE0000
007FFFFF8000
01FFFFFFC000
03FFFFFFE000
03FFFFFFF000
07FFFFFFF800
0FFFFFFFFC00
0FFFFFFFFC00
1FFFFFFFFE00
1FFFFFFFFE00
3FFFFFFFFF00
3FFFC0FFFF00
3FFF003FFF00
3FFF001FFF00
1FFE001FFF80
0FFC001FFF80
07FC001FFF00
01F8003FFF00
00000FFFFF00
0000FFFFFF00
0000FFFFFE00
0001FFFFFE00
0001FFFFFC00
0001FFFFF800
0001FFFFE000
0001FFFFE000
0001FFFFF000
0001FFFFFC00
0001FFFFFE00
0000FFFFFE00
0000FFFFFF00
00001FFFFF80
0000003FFF80
07C0001FFF80
3FF0000FFFC0
FFF0000FFFC0
FFF8000FFFC0
FFF8000FFFC0
FFFC000FFFC0
FFFC001FFFC0
FFFE003FFF80
7FFF807FFF80
7FFFFFFFFF80
7FFFFFFFFF00
3FFFFFFFFF00
3FFFFFFFFE00
1FFFFFFFFE00
0FFFFFFFFC00
0FFFFFFFF800
07FFFFFFF000
01FFFFFFE000
00FFFFFF8000
003FFFFF0000
000FFFF80000
0001FFC00000
ENDCHAR
STARTCHAR four
ENCODING 52
SWIDTH 592 0
DWIDTH 44 0
BBX 40 55 1 0
BITMAP
007F0003FC
00FFC00FFE
01FFE00FFF
01FFF01FFF
01FFF01FFF
03FFF01FFF
03FFF01FFF
03FFF01FFF
03FFE01FFF
07FFE01FFF
07FFE01FFF
07FFE01FFF
07FFC01FFF
0FFFC01FFF
0FFFC01FFF
0FFFC01FFF
0FFF801FFF
1FFF801FFF
1FFF801FFF
1FFF801FFF
1FFF001FFF
3FFF001FFF
3FFF001FFF
3FFF001FFF
3FFE001FFF
7FFE001FFF
7FFE001FFF
7FFFFFFFFF
7FFFFFFFFF
FFFFFFFFFF
FFFFFFFFFF
FFFFFFFFFF
FFFFFFFFFF
FFFFFFFFFF
FFFFFFFFFF
FFFFFFFFFF
7FFFFFFFFF
7FFFFFFFFF
1FFFFFFFFF
0000001FFF
0000001FFF
0000001FFF
0000001FFF
0000001FFF
0000001FFF
0000001FFF
0000001FFF
0000001FFF
0000001FFF
0000001FFF
0000001FFF
0000001FFF
0000000FFF
0000000FFE
00000003F8
ENDCHAR
STARTCHAR five
ENCODING 53
SWIDTH 530 0
DWIDTH 40 0
BBX 37 56 1 -1
BITMAP
00FFFFFF80
03FFFFFFE0
07FFFFFFE0
07FFFFFFE0
0FFFFFFFF0
0FFFFFFFF0
0FFFFFFFF0
0FFFFFFFF0
0FFFFFFFF0
0FFFFFFFF0
1FFFFFFFE0
1FFFFFFFE0
1FFFFFFF80
1FFF000000
1FFF000000
1FFF000000
1FFF000000
3FFF000000
3FFF000000
3FFFFF0000
3FFFFFC000
3FFFFFF000
3FFFFFF800
3FFFFFFE00
3FFFFFFF00
7FFFFFFF80
7FFFFFFF80
7FFFFFFFC0
7FFFFFFFE0
7FFFFFFFE0
7FFFFFFFF0
3FFFFFFFF0
1FFE0FFFF0
07FC03FFF8
01F001FFF8
000001FFF8
000001FFF8
000000FFF8
000001FFF8
07C001FFF8
0FE001FFF8
1FF803FFF0
3FFF1FFFF0
7FFFFFFFF0
FFFFFFFFE0
FFFFFFFFE0
FFFFFFFFC0
FFFFFFFFC0
7FFFFFFF80
3FFFFFFF00
1FFFFFFE00
0FFFFFFC00
07FFFFF800
01FFFFF000
007FFFC000
0007FE0000
ENDCHAR
STARTCHAR six
ENCODING 54
SWIDTH 560 0
DWIDTH 42 0
BBX 38 56 2 -1
BITMAP
000000FFC0
00000FFFE0
00007FFFF0
0001FFFFF0
0003FFFFF8
000FFFFFF8
001FFFFFF8
003FFFFFF8
007FFFFFF8
00FFFFFFF0
01FFFFFFF0
01FFFFFFF0
03FFFFFFE0
07FFFFE000
07FFFE0000
0FFFF80000
1FFFE00000
1FFFC00000
1FFF800000
3FFF800000
3FFF000000
3FFE000000
7FFE3F0000
7FFFFFE000
7FFFFFF800
7FFFFFFE00
FFFFFFFF00
FFFFFFFF80
FFFFFFFFC0
FFFFFFFFE0
FFFFFFFFF0
FFFFFFFFF0
FFFFFFFFF8
FFFFFFFFF8
FFFF03FFFC
FFFE00FFFC
FFFC00FFFC
FFFC007FFC
FFFC007FFC
FFFC007FFC
7FFC007FFC
7FFC00FFFC
7FFE01FFFC
7FFFC7FFF8
3FFFFFFFF8
3FFFFFFFF8
1FFFFFFFF0
1FFFFFFFF0
0FFFFFFFE0
07FFFFFFC0
07FFFFFF80
03FFFFFF00
00FFFFFE00
007FFFF800
001FFFE000
0003FF0000
ENDCHAR
STARTCHAR seven
ENCODING 55
SWIDTH 561 0
DWIDTH 42 0
BBX 40 55 1 0
BITMAP
1FFFFFFFF8
7FFFFFFFFE
7FFFFFFFFE
FFFFFFFFFF
FFFFFFFFFF
FFFFFFFFFF
FFFFFFFFFF
FFFFFFFFFF
FFFFFFFFFF
FFFFFFFFFF
7FFFFFFFFE
7FFFFFFFFE
3FFFFFFFFE
000000FFFC
000001FFFC
000001FFFC
000003FFF8
000003FFF8
000007FFF0
00000FFFF0
00000FFFE0
00001FFFE0
00003FFFC0
00003FFF80
00007FFF80
0000FFFF00
0000FFFE00
0001FFFE00
0003FFFC00
0003FFF800
0007FFF800
0007FFF000
000FFFF000
000FFFE000
001FFFC000
001FFFC000
001FFF8000
003FFF8000
003FFF0000
007FFF0000
007FFE0000
007FFE0000
007FFE0000
00FFFC0000
00FFFC0000
00FFFC0000
00FFF80000
00FFF80000
00FFF80000
00FFF80000
00FFF80000
00FFF80000
00FFF80000
007FF00000
003FE00000
ENDCHAR
STARTCHAR eight
ENCODING 56
SWIDTH 582 0
DWIDTH 44 0
BBX 40 57 2 -1
BITMAP
0001FF8000
000FFFF000
003FFFFC00
007FFFFE00
01FFFFFF00
03FFFFFF80
07FFFFFFC0
0FFFFFFFE0
0FFFFFFFF0
1FFFFFFFF0
1FFFFFFFF8
3FFFFFFFF8
3FFFFFFFFC
3FFF81FFFC
3FFF00FFFC
3FFE007FFC
3FFE007FFC
3FFE007FFC
3FFE00FFFC
3FFF00FFFC
3FFFC3FFFC
3FFFFFFFF8
1FFFFFFFF8
1FFFFFFFF0
0FFFFFFFE0
07FFFFFFE0
03FFFFFFC0
07FFFFFFE0
0FFFFFFFF0
1FFFFFFFF8
3FFFFFFFF8
3FFFFFFFFC
7FFFFFFFFC
7FFF81FFFE
FFFE00FFFE
FFFC007FFE
FFFC003FFF
FFF8003FFF
FFF8003FFF
FFF8003FFF
FFF8003FFF
FFFC003FFF
FFFE007FFE
FFFF00FFFE
7FFFFFFFFE
7FFFFFFFFC
3FFFFFFFFC
3FFFFFFFF8
1FFFFFFFF8
0FFFFFFFF0
0FFFFFFFE0
07FFFFFFC0
01FFFFFF80
00FFFFFF00
003FFFFC00
000FFFF000
0001FF8000
ENDCHAR
STARTCHAR nine
ENCODING 57
SWIDTH 560 0
DWIDTH 42 0
BBX 38 56 2 0
BITMAP
0003FE0000
001FFFE000
007FFFF800
01FFFFFC00
03FFFFFE00
07FFFFFF00
0FFFFFFF80
1FFFFFFFC0
1FFFFFFFE0
3FFFFFFFE0
7FFFFFFFF0
7FFFFFFFF0
7FFFDFFFF8
FFFE01FFF8
FFFC00FFF8
FFF800FFF8
FFF800FFFC
FFF800FFFC
FFF800FFFC
FFF800FFFC
FFFC01FFFC
FFFE03FFFC
7FFFFFFFFC
7FFFFFFFFC
3FFFFFFFFC
3FFFFFFFFC
1FFFFFFFFC
0FFFFFFFFC
07FFFFFFFC
03FFFFFFFC
01FFFFFFF8
007FFFFFF8
001FFFFFF8
0003F9FFF8
000001FFF0
000003FFF0
000007FFF0
000007FFE0
00000FFFE0
00001FFFE0
00007FFFC0
0001FFFF80
000FFFFF80
0FFFFFFF00
3FFFFFFF00
3FFFFFFE00
3FFFFFFC00
7FFFFFF800
7FFFFFF000
7FFFFFE000
7FFFFFC000
7FFFFF8000
3FFFFE0000
3FFFF80000
3FFFC00000
0FFC000000
ENDCHAR
STARTCHAR colon
ENCODING 58
SWIDTH 238 0
DWIDTH 18 0
BBX 14 38 2 0
BITMAP
0FC0
7FF0
7FF8
FFFC
FFFC
FFFC
FFFC
FFFC
FFFC
FFFC
FFFC
7FF8
7FF8
1FE0
0000
0000
0000
0000
0000
0000
0000
0000
0000
0000
1FE0
7FF0
7FF8
FFFC
FFFC
FFFC
FFFC
FFFC
FFFC
FFFC
FFFC
7FF8
7FF8
1FE0
ENDCHAR
STARTCHAR semicolon
ENCODING 59
SWIDTH 237 0
DWIDTH 18 0
BBX 14 50 2 -12
BITMAP
1FC0
7FF0
7FF8
FFFC
FFFC
FFFC
FFFC
FFFC
FFFC
FFFC
FFFC
7FF8
7FF8
3FE0
0000
0000
0000
0000
0000
0000
0000
0000
0000
0000
1FC0
7FF0
7FF8
FFFC
FFFC
FFFC
FFFC
FFFC
FFFC
FFFC
FFFC
FFFC
7FF8
1FF8
07F8
07F8
0FF0
0FF0
1FE0
3FE0
7FC0
FF80
FF80
FF00
FC00
7000
ENDCHAR
STARTCHAR less
ENCODING 60
SWIDTH 627 0
DWIDTH 47 0
BBX 45 52 1 0
BITMAP
000000000100
000000000F80
000000003FC0
00000000FFE0
00000001FFF0
00000007FFF0
0000001FFFF8
0000003FFFF8
000000FFFFF8
000003FFFFF0
000007FFFFF0
00001FFFFFC0
00007FFFFF80
0000FFFFFE00
0003FFFFFC00
000FFFFFF000
001FFFFFC000
007FFFFF8000
01FFFFFE0000
03FFFFF80000
0FFFFFF00000
3FFFFFC00000
7FFFFF000000
7FFFFC000000
FFFFF8000000
FFFFE0000000
FFFFC0000000
FFFFF0000000
FFFFFC000000
7FFFFF000000
3FFFFF800000
1FFFFFE00000
07FFFFF80000
01FFFFFC0000
00FFFFFF0000
003FFFFFC000
000FFFFFE000
0007FFFFF800
0001FFFFFE00
00007FFFFF00
00003FFFFFC0
00000FFFFFE0
000003FFFFF0
000001FFFFF8
0000007FFFF8
0000001FFFF8
00000007FFF0
00000003FFF0
00000000FFE0
000000003FE0
000000001FC0
000000000700
ENDCHAR
STARTCHAR equal
ENCODING 61
SWIDTH 478 0
DWIDTH 36 0
BBX 32 27 2 3
BITMAP
7FFFFFFC
7FFFFFFE
FFFFFFFF
FFFFFFFF
FFFFFFFF
FFFFFFFF
FFFFFFFF
FFFFFFFF
FFFFFFFF
7FFFFFFE
3FFFFFFC
00000000
00000000
00000000
00000000
00000000
7FFFFFFC
FFFFFFFE
FFFFFFFF
FFFFFFFF
FFFFFFFF
FFFFFFFF
FFFFFFFF
FFFFFFFF
FFFFFFFF
7FFFFFFE
1FFFFFFC
ENDCHAR
STARTCHAR greater
ENCODING 62
SWIDTH 627 0
DWIDTH 47 0
BBX 45 52 1 0
BITMAP
040000000000
0F8000000000
1FE000000000
3FF000000000
7FFC00000000
7FFF00000000
FFFFC0000000
FFFFE0000000
FFFFF8000000
FFFFFE000000
7FFFFF000000
3FFFFFC00000
0FFFFFF00000
03FFFFF80000
01FFFFFE0000
007FFFFF8000
001FFFFFC000
000FFFFFF000
0003FFFFFC00
0000FFFFFE00
00007FFFFF80
00001FFFFFE0
000007FFFFF0
000003FFFFF0
000000FFFFF8
0000003FFFF8
0000001FFFF8
0000007FFFF8
000001FFFFF0
000007FFFFF0
00000FFFFFE0
00003FFFFFC0
0000FFFFFF00
0001FFFFFC00
0007FFFFF800
001FFFFFE000
003FFFFF8000
00FFFFFF0000
03FFFFFC0000
07FFFFF00000
1FFFFFE00000
3FFFFF800000
7FFFFE000000
FFFFFC000000
FFFFF0000000
FFFFC0000000
7FFF00000000
7FFE00000000
3FF800000000
3FE000000000
1FC000000000
070000000000
ENDCHAR
STARTCHAR question
ENCODING 63
SWIDTH 512 0
DWIDTH 38 0
BBX 36 56 1 0
BITMAP
000FFE0000
007FFFC000
01FFFFF000
03FFFFF800
07FFFFFC00
0FFFFFFE00
1FFFFFFF00
1FFFFFFF80
3FFFFFFF80
7FFFFFFFC0
7FFFFFFFC0
7FFFFFFFE0
FFFC03FFE0
FFF801FFE0
FFF001FFE0
7FF000FFE0
7FF000FFF0
1FE000FFF0
07C001FFE0
000001FFE0
000003FFE0
000007FFE0
00001FFFC0
0000FFFFC0
0001FFFF80
0003FFFF80
0007FFFF00
000FFFFE00
000FFFFC00
000FFFF000
000FFFE000
000FFF0000
000FFF0000
000FFF0000
0007FF0000
0007FE0000
0000000000
0000000000
0000000000
0000000000
0000000000
0000000000
0003FC0000
000FFE0000
000FFF0000
001FFF0000
001FFF8000
001FFF8000
001FFF8000
001FFF8000
001FFF8000
001FFF8000
001FFF8000
001FFF0000
000FFF0000
0003FC0000
ENDCHAR
STARTCHAR at
ENCODING 64
SWIDTH 908 0
DWIDTH 68 0
BBX 64 60 2 -10
BITMAP
000000FFFC000000
00000FFFFFE00000
00007FFFFFFC0000
0001FFFFFFFF0000
0007FFFFFFFFC000
000FFFFFFFFFF000
003FFFFFFFFFF800
007FFFFFFFFFFE00
00FFFFFFFFFFFF00
01FFFFE00FFFFF80
03FFFC0000FFFFC0
03FFF000001FFFC0
07FFC0000007FFE0
0FFF80000001FFF0
0FFF001F01F07FF0
1FFC007FE7F83FF8
1FFC01FFFFFC1FF8
3FF803FFFFFC1FFC
3FF007FFFFFC0FFC
7FF00FFFFFF807FE
7FE01FFFFFF807FE
7FE03FFFFFF803FE
7FC07FFFFFF803FE
FFC07FFFFFF803FF
FFC0FFF07FF803FF
FFC0FFC03FF801FF
FF80FFC03FF001FF
FF81FF803FF001FF
FF81FF803FF001FF
FF81FF803FF001FF
FF81FF803FF001FF
FF81FFC07FF001FF
FF81FFE0FFF001FF
FF80FFFFFFF001FF
FFC0FFFFFFE003FF
FFC0FFFFFFE003FF
FFC07FFFFFE003FF
7FC07FFFFFE007FE
7FE03FFFFFE007FE
7FE01FFFFFE00FFE
7FE00FFFFFE00FFC
3FF003FF7FC01FFC
3FF000F87FC07FF8
3FF800007FF3FFF8
1FFC00007FFFFFF0
1FFE00003FFFFFF0
0FFF00003FFFFFE0
0FFF80003FFFFFC0
07FFE0001FFFFF80
03FFFC000FFFFE00
01FFFFFE07FFFC00
01FFFFFF83FFF000
00FFFFFF807F8000
007FFFFF80000000
001FFFFF80000000
000FFFFF80000000
0003FFFF80000000
0000FFFF80000000
00001FFF00000000
000000FE00000000
ENDCHAR
STARTCHAR A
ENCODING 65
SWIDTH 765 0
DWIDTH 57 0
BBX 55 56 1 -1
BITMAP
0000007C000000
000000FF000000
000003FF800000
000003FF800000
000007FFC00000
000007FFC00000
00000FFFE00000
00000FFFE00000
00001FFFF00000
00001FFFF00000
00003FFFF80000
00003FFFF80000
00007FFFFC0000
00007FFFFC0000
0000FFFFFE0000
0000FFFFFE0000
0000FFFFFF0000
0001FFFFFF0000
0001FFFFFF8000
0003FFFFFF8000
0003FFFFFFC000
0007FFFFFFC000
0007FFEFFFE000
000FFFEFFFE000
000FFFC7FFF000
001FFFC7FFF000
001FFF83FFF800
003FFF83FFF800
003FFF81FFFC00
007FFF01FFFC00
007FFF00FFFE00
00FFFE00FFFE00
00FFFFFFFFFF00
01FFFFFFFFFF00
01FFFFFFFFFF80
03FFFFFFFFFF80
03FFFFFFFFFF80
07FFFFFFFFFFC0
07FFFFFFFFFFC0
0FFFFFFFFFFFE0
0FFFFFFFFFFFE0
1FFFFFFFFFFFF0
1FFFFFFFFFFFF0
3FFF800003FFF8
3FFF800001FFF8
3FFF000001FFFC
7FFF000000FFFC
7FFE000000FFFE
FFFE0000007FFE
FFFC0000007FFE
FFFC0000003FFE
7FF80000003FFE
3FF80000001FFC
1FF00000001FF8
07E00000000FE0
00C00000000700
ENDCHAR
STARTCHAR B
ENCODING 66
SWIDTH 646 0
DWIDTH 48 0
BBX 44 55 3 0
BITMAP
1FFFFFFC0000
7FFFFFFF8000
7FFFFFFFC000
FFFFFFFFF000
FFFFFFFFF800
FFFFFFFFFC00
FFFFFFFFFE00
FFFFFFFFFE00
FFFFFFFFFF00
FFFFFFFFFF80
FFFFFFFFFF80
FFFFFFFFFF80
FFFFFFFFFFC0
FFF8003FFFC0
FFF8000FFFC0
FFF80007FFC0
FFF80007FFC0
FFF80007FFC0
FFF80007FFC0
FFF8000FFFC0
FFF8001FFF80
FFF807FFFF80
FFF80FFFFF80
FFF81FFFFF00
FFF81FFFFF00
FFF81FFFFE00
FFF81FFFFF00
FFF81FFFFF80
FFF81FFFFF80
FFF81FFFFFC0
FFF80FFFFFC0
FFF801FFFFE0
FFF80007FFE0
FFF80003FFE0
FFF80003FFE0
FFF80003FFE0
FFF80003FFF0
FFF80003FFF0
FFF80003FFF0
FFF80003FFE0
FFF80007FFE0
FFF8001FFFE0
FFFFFFFFFFE0
FFFFFFFFFFC0
FFFFFFFFFFC0
FFFFFFFFFFC0
FFFFFFFFFF80
FFFFFFFFFF00
FFFFFFFFFF00
FFFFFFFFFE00
FFFFFFFFFC00
FFFFFFFFF800
7FFFFFFFE000
7FFFFFFF8000
1FFFFFFC0000
ENDCHAR
STARTCHAR C
ENCODING 67
SWIDTH 679 0
DWIDTH 51 0
BBX 47 57 2 -1
BITMAP
000000080000
000007FFE000
00003FFFFC00
0000FFFFFF80
0003FFFFFFC0
000FFFFFFFF0
001FFFFFFFF8
007FFFFFFFFC
00FFFFFFFFFE
01FFFFFFFFFE
03FFFFFFFFFE
07FFFFFFFFFE
07FFFFFFFFFC
0FFFFFFFFFFC
1FFFFF007FF8
1FFFF8001FF0
3FFFE00007E0
3FFFC00003C0
7FFF80000000
7FFF00000000
7FFE00000000
7FFE00000000
FFFC00000000
FFFC00000000
FFFC00000000
FFF800000000
FFF800000000
FFF800000000
FFF800000000
FFF800000000
FFF800000000
FFF800000000
FFFC00000000
FFFC00000000
FFFC00000000
7FFE00000000
7FFE00000000
7FFF00000000
3FFF80000000
3FFFC00001C0
3FFFE00007E0
1FFFF8001FF0
1FFFFE007FF8
0FFFFFFFFFF8
07FFFFFFFFFC
07FFFFFFFFFC
03FFFFFFFFFE
01FFFFFFFFFE
00FFFFFFFFFE
007FFFFFFFFC
001FFFFFFFFC
000FFFFFFFF0
0003FFFFFFE0
0001FFFFFF80
00007FFFFE00
00000FFFF000
0000007E0000
ENDCHAR
STARTCHAR D
ENCODING 68
SWIDTH 704 0
DWIDTH 53 0
BBX 48 55 3 0
BITMAP
1FFFFFC00000
7FFFFFF80000
7FFFFFFF0000
FFFFFFFFC000
FFFFFFFFE000
FFFFFFFFF800
FFFFFFFFFC00
FFFFFFFFFE00
FFFFFFFFFF00
FFFFFFFFFF80
FFFFFFFFFFC0
FFFFFFFFFFE0
FFFFFFFFFFF0
FFF801FFFFF0
FFF8003FFFF8
FFF8000FFFF8
FFF80007FFFC
FFF80001FFFC
FFF80001FFFE
FFF80000FFFE
FFF800007FFE
FFF800007FFE
FFF800003FFF
FFF800003FFF
FFF800003FFF
FFF800001FFF
FFF800001FFF
FFF800001FFF
FFF800001FFF
FFF800001FFF
FFF800003FFF
FFF800003FFF
FFF800003FFE
FFF800007FFE
FFF800007FFE
FFF80000FFFE
FFF80001FFFC
FFF80003FFFC
FFF80007FFFC
FFF8000FFFF8
FFF8003FFFF8
FFF803FFFFF0
FFFFFFFFFFE0
FFFFFFFFFFE0
FFFFFFFFFFC0
FFFFFFFFFF80
FFFFFFFFFF00
FFFFFFFFFE00
FFFFFFFFFC00
FFFFFFFFF800
FFFFFFFFE000
FFFFFFFFC000
7FFFFFFF0000
7FFFFFF80000
1FFFFF800000
ENDCHAR
STARTCHAR E
ENCODING 69
SWIDTH 638 0
DWIDTH 48 0
BBX 43 55 3 0
BITMAP
1FFFFFFFFF00
7FFFFFFFFFC0
7FFFFFFFFFC0
FFFFFFFFFFE0
FFFFFFFFFFE0
FFFFFFFFFFE0
FFFFFFFFFFE0
FFFFFFFFFFE0
FFFFFFFFFFE0
FFFFFFFFFFE0
FFFFFFFFFFC0
FFFFFFFFFFC0
FFFFFFFFFF80
FFF800000000
FFF800000000
FFF800000000
FFF800000000
FFF800000000
FFF800000000
FFF800000000
FFF800000000
FFFFFFFF0000
FFFFFFFFC000
FFFFFFFFC000
FFFFFFFFC000
FFFFFFFFE000
FFFFFFFFE000
FFFFFFFFE000
FFFFFFFFE000
FFFFFFFFE000
FFFFFFFFC000
FFFFFFFFC000
FFFFFFFFC000
FFFFFFFF0000
FFF800000000
FFF800000000
FFF800000000
FFF800000000
FFF800000000
FFF800000000
FFF800000000
FFF800000000
FFFFFFFFFF80
FFFFFFFFFFC0
FFFFFFFFFFC0
FFFFFFFFFFE0
FFFFFFFFFFE0
FFFFFFFFFFE0
FFFFFFFFFFE0
FFFFFFFFFFE0
FFFFFFFFFFE0
FFFFFFFFFFE0
7FFFFFFFFFC0
7FFFFFFFFFC0
1FFFFFFFFF00
ENDCHAR
STARTCHAR F
ENCODING 70
SWIDTH 637 0
DWIDTH 48 0
BBX 43 55 3 0
BITMAP
1FFFFFFFFF00
7FFFFFFFFFC0
7FFFFFFFFFC0
FFFFFFFFFFE0
FFFFFFFFFFE0
FFFFFFFFFFE0
FFFFFFFFFFE0
FFFFFFFFFFE0
FFFFFFFFFFE0
FFFFFFFFFFE0
FFFFFFFFFFC0
FFFFFFFFFFC0
FFFFFFFFFF80
FFF800000000
FFF800000000
FFF800000000
FFF800000000
FFF800000000
FFF800000000
FFF800000000
FFF800000000
FFFFFFFF0000
FFFFFFFFC000
FFFFFFFFC000
FFFFFFFFC000
FFFFFFFFE000
FFFFFFFFE000
FFFFFFFFE000
FFFFFFFFE000
FFFFFFFFE000
FFFFFFFFC000
FFFFFFFFC000
FFFFFFFFC000
FFFFFFFF0000
FFF800000000
FFF800000000
FFF800000000
FFF800000000
FFF800000000
FFF800000000
FFF800000000
FFF800000000
FFF800000000
FFF800000000
FFF800000000
FFF800000000
FFF800000000
FFF800000000
FFF800000000
FFF800000000
FFF800000000
FFF800000000
7FF800000000
7FF000000000
1FC000000000
ENDCHAR
STARTCHAR G
ENCODING 71
SWIDTH 714 0
DWIDTH 54 0
BBX 49 57 2 -1
BITMAP
000001FF800000
00001FFFF80000
0000FFFFFE0000
0003FFFFFF8000
0007FFFFFFE000
001FFFFFFFF000
003FFFFFFFF800
007FFFFFFFFC00
00FFFFFFFFFE00
01FFFFFFFFFE00
03FFFFFFFFFE00
07FFFFFFFFFC00
0FFFFFFFFFFC00
0FFFFFC3FFF800
1FFFFC003FF000
1FFFF0001FE000
3FFFE00007C000
3FFF8000000000
7FFF0000000000
7FFF0000000000
7FFE0000000000
7FFC0000000000
FFFC0000000000
FFFC003FFFFC00
FFFC007FFFFF00
FFF8007FFFFF00
FFF8007FFFFF00
FFF800FFFFFF00
FFF800FFFFFF80
FFF800FFFFFF80
FFF8007FFFFF80
FFFC007FFFFF80
FFFC007FFFFF80
FFFC003FFFFF80
7FFE00001FFF80
7FFE00001FFF80
7FFF00001FFF80
7FFF00001FFF80
3FFF80001FFF80
3FFFC0001FFF80
1FFFF0001FFF80
1FFFF8001FFF80
0FFFFE003FFF80
0FFFFFFFFFFF80
07FFFFFFFFFF80
03FFFFFFFFFF80
03FFFFFFFFFF00
01FFFFFFFFFF00
00FFFFFFFFFF00
007FFFFFFFFE00
003FFFFFFFFC00
000FFFFFFFF800
0007FFFFFFF000
0001FFFFFFC000
00007FFFFF0000
00001FFFF80000
000000FE000000
ENDCHAR
STARTCHAR H
ENCODING 72
SWIDTH 699 0
DWIDTH 52 0
BBX 46 55 3 0
BITMAP
1FC000000FE0
7FF000003FF8
7FF800003FFC
FFF800007FFC
FFF800007FFC
FFF800007FFC
FFF800007FFC
FFF800007FFC
FFF800007FFC
FFF800007FFC
FFF800007FFC
FFF800007FFC
FFF800007FFC
FFF800007FFC
FFF800007FFC
FFF800007FFC
FFF800007FFC
FFF800007FFC
FFF800007FFC
FFF800007FFC
FFF800007FFC
FFF800007FFC
FFFFFFFFFFFC
FFFFFFFFFFFC
FFFFFFFFFFFC
FFFFFFFFFFFC
FFFFFFFFFFFC
FFFFFFFFFFFC
FFFFFFFFFFFC
FFFFFFFFFFFC
FFFFFFFFFFFC
FFFFFFFFFFFC
FFFFFFFFFFFC
FFF800007FFC
FFF800007FFC
FFF800007FFC
FFF800007FFC
FFF800007FFC
FFF800007FFC
FFF800007FFC
FFF800007FFC
FFF800007FFC
FFF800007FFC
FFF800007FFC
FFF800007FFC
FFF800007FFC
FFF800007FFC
FFF800007FFC
FFF800007FFC
FFF800007FFC
FFF800007FFC
FFF800007FFC
7FF800003FFC
7FF000003FF8
1FC000000FE0
ENDCHAR
STARTCHAR I
ENCODING 73
SWIDTH 257 0
DWIDTH 19 0
BBX 13 55 3 0
BITMAP
1FC0
7FF0
7FF8
FFF8
FFF8
FFF8
FFF8
FFF8
FFF8
FFF8
FFF8
FFF8
FFF8
FFF8
FFF8
FFF8
FFF8
FFF8
FFF8
FFF8
FFF8
FFF8
FFF8
FFF8
FFF8
FFF8
FFF8
FFF8
FFF8
FFF8
FFF8
FFF8
FFF8
FFF8
FFF8
FFF8
FFF8
FFF8
FFF8
FFF8
FFF8
FFF8
FFF8
FFF8
FFF8
FFF8
FFF8
FFF8
FFF8
FFF8
FFF8
FFF8
7FF8
7FF0
1FC0
ENDCHAR
STARTCHAR J
ENCODING 74
SWIDTH 549 0
DWIDTH 41 0
BBX 37 56 1 -1
BITMAP
0000001FC0
0000007FF0
0000007FF8
000000FFF8
000000FFF8
000000FFF8
000000FFF8
000000FFF8
000000FFF8
000000FFF8
000000FFF8
000000FFF8
000000FFF8
000000FFF8
000000FFF8
000000FFF8
000000FFF8
000000FFF8
000000FFF8
000000FFF8
000000FFF8
000000FFF8
000000FFF8
000000FFF8
000000FFF8
000000FFF8
000000FFF8
000000FFF8
000000FFF8
000000FFF8
000000FFF8
000000FFF8
000000FFF8
000000FFF8
000000FFF8
000000FFF8
000000FFF8
010000FFF8
07C001FFF8
1FE001FFF8
3FF803FFF8
3FFC07FFF0
7FFFFFFFF0
FFFFFFFFF0
FFFFFFFFE0
FFFFFFFFE0
7FFFFFFFC0
7FFFFFFF80
3FFFFFFF80
1FFFFFFF00
0FFFFFFE00
07FFFFFC00
03FFFFF000
00FFFFE000
003FFF0000
0003F80000
ENDCHAR
STARTCHAR K
ENCODING 75
SWIDTH 639 0
DWIDTH 48 0
BBX 42 57 3 -1
BITMAP
000000007000
1FC00001FC00
7FF00003FE00
7FF80003FF00
FFF80007FF80
FFF8000FFFC0
FFF8001FFFC0
FFF8003FFFC0
FFF8007FFFC0
FFF800FFFFC0
FFF801FFFF80
FFF801FFFF00
FFF803FFFE00
FFF807FFFC00
FFF80FFFFC00
FFF81FFFF800
FFF83FFFF000
FFF87FFFE000
FFF8FFFFC000
FFF8FFFF8000
FFF9FFFF0000
FFFBFFFE0000
FFFFFFFC0000
FFFFFFF80000
FFFFFFF00000
FFFFFFE00000
FFFFFFC00000
FFFFFF800000
FFFFFF000000
FFFFFF800000
FFFFFFC00000
FFFFFFE00000
FFFFFFF00000
FFFFFFF80000
FFFFFFFC0000
FFFBFFFE0000
FFF9FFFF0000
FFF8FFFF8000
FFF87FFFC000
FFF87FFFE000
FFF83FFFF000
FFF81FFFF800
FFF80FFFFC00
FFF807FFFE00
FFF803FFFE00
FFF801FFFF00
FFF800FFFF80
FFF800FFFFC0
FFF8007FFFC0
FFF8003FFFC0
FFF8001FFFC0
FFF8000FFFC0
FFF80007FF80
7FF80003FF00
7FF00001FE00
1FC00000FC00
000000007000
ENDCHAR
STARTCHAR L
ENCODING 76
SWIDTH 587 0
DWIDTH 44 0
BBX 39 55 3 0
BITMAP
1FC0000000
7FF0000000
7FF8000000
FFF8000000
FFF8000000
FFF8000000
FFF8000000
FFF8000000
FFF8000000
FFF8000000
FFF8000000
FFF8000000
FFF8000000
FFF8000000
FFF8000000
FFF8000000
FFF8000000
FFF8000000
FFF8000000
FFF8000000
FFF8000000
FFF8000000
FFF8000000
FFF8000000
FFF8000000
FFF8000000
FFF8000000
FFF8000000
FFF8000000
FFF8000000
FFF8000000
FFF8000000
FFF8000000
FFF8000000
FFF8000000
FFF8000000
FFF8000000
FFF8000000
FFF8000000
FFF8000000
FFF8000000
FFF8000000
FFF8000000
FFF8000000
FFFFFFFFF8
FFFFFFFFFC
FFFFFFFFFE
FFFFFFFFFE
FFFFFFFFFE
FFFFFFFFFE
FFFFFFFFFE
FFFFFFFFFE
7FFFFFFFFE
7FFFFFFFFC
1FFFFFFFF8
ENDCHAR
STARTCHAR M
ENCODING 77
SWIDTH 870 0
DWIDTH 65 0
BBX 59 55 3 0
BITMAP
1FC0000000007F00
7FF000000001FFC0
7FF800000003FFE0
FFFC00000007FFE0
FFFC00000007FFE0
FFFE0000000FFFE0
FFFF0000001FFFE0
FFFF8000003FFFE0
FFFF8000003FFFE0
FFFFC000007FFFE0
FFFFE00000FFFFE0
FFFFF00001FFFFE0
FFFFF80001FFFFE0
FFFFF80003FFFFE0
FFFFFC0007FFFFE0
FFFFFE000FFFFFE0
FFFFFF000FFFFFE0
FFFFFF001FFFFFE0
FFFFFF803FFFFFE0
FFFFFFC07FFFFFE0
FFFFFFE0FFFFFFE0
FFFFFFE0FFFFFFE0
FFFFFFF1FFFFFFE0
FFFFFFFBFFFFFFE0
FFFBFFFFFFFBFFE0
FFF9FFFFFFF3FFE0
FFF8FFFFFFE3FFE0
FFF8FFFFFFE3FFE0
FFF87FFFFFC3FFE0
FFF83FFFFF83FFE0
FFF81FFFFF83FFE0
FFF81FFFFF03FFE0
FFF80FFFFE03FFE0
FFF807FFFC03FFE0
FFF807FFFC03FFE0
FFF803FFF803FFE0
FFF801FFF003FFE0
FFF800FFE003FFE0
FFF8007FE003FFE0
FFF8003FC003FFE0
FFF8001F0003FFE0
FFF800000003FFE0
FFF800000003FFE0
FFF800000003FFE0
FFF800000003FFE0
FFF800000003FFE0
FFF800000003FFE0
FFF800000003FFE0
FFF800000003FFE0
FFF800000003FFE0
FFF800000003FFE0
FFF800000003FFE0
7FF800000003FFE0
7FF000000001FFC0
1FC0000000007F00
ENDCHAR
STARTCHAR N
ENCODING 78
SWIDTH 720 0
DWIDTH 54 0
BBX 48 55 3 0
BITMAP
1FC0000003F8
7FF000000FFE
7FF800001FFE
FFFC00001FFF
FFFC00001FFF
FFFE00001FFF
FFFF00001FFF
FFFF80001FFF
FFFF80001FFF
FFFFC0001FFF
FFFFE0001FFF
FFFFF0001FFF
FFFFF0001FFF
FFFFF8001FFF
FFFFFC001FFF
FFFFFE001FFF
FFFFFE001FFF
FFFFFF001FFF
FFFFFF801FFF
FFFFFFC01FFF
FFFFFFC01FFF
FFFFFFE01FFF
FFFFFFF01FFF
FFFFFFF81FFF
FFFBFFF81FFF
FFF9FFFC1FFF
FFF9FFFE1FFF
FFF8FFFF1FFF
FFF87FFF1FFF
FFF83FFF9FFF
FFF83FFFDFFF
FFF81FFFFFFF
FFF80FFFFFFF
FFF807FFFFFF
FFF807FFFFFF
FFF803FFFFFF
FFF801FFFFFF
FFF800FFFFFF
FFF800FFFFFF
FFF8007FFFFF
FFF8003FFFFF
FFF8001FFFFF
FFF8001FFFFF
FFF8000FFFFF
FFF80007FFFF
FFF80003FFFF
FFF80003FFFF
FFF80001FFFF
FFF80000FFFF
FFF800007FFF
FFF800007FFF
FFF800003FFF
7FF800001FFE
7FF000000FFE
1FC0000007F8
ENDCHAR
STARTCHAR O
ENCODING 79
SWIDTH 775 0
DWIDTH 58 0
BBX 54 57 2 -1
BITMAP
000000FC000000
00001FFFE00000
00007FFFFC0000
0001FFFFFF0000
0007FFFFFF8000
001FFFFFFFE000
003FFFFFFFF000
007FFFFFFFF800
00FFFFFFFFFC00
01FFFFFFFFFE00
03FFFFFFFFFF00
07FFFFFFFFFF80
07FFFFFFFFFFC0
0FFFFFFFFFFFC0
1FFFFC00FFFFE0
1FFFF0003FFFE0
3FFFE0001FFFF0
3FFFC0000FFFF0
3FFF800007FFF8
7FFF000003FFF8
7FFE000001FFF8
7FFE000001FFF8
7FFC000000FFFC
FFFC000000FFFC
FFFC000000FFFC
FFF80000007FFC
FFF80000007FFC
FFF80000007FFC
FFF80000007FFC
FFF80000007FFC
FFF80000007FFC
FFF80000007FFC
FFFC0000007FFC
FFFC000000FFFC
FFFC000000FFFC
7FFE000000FFF8
7FFE000001FFF8
7FFF000003FFF8
7FFF800003FFF8
3FFFC00007FFF0
3FFFE0000FFFF0
1FFFF0003FFFE0
1FFFFC00FFFFE0
0FFFFFCFFFFFC0
0FFFFFFFFFFFC0
07FFFFFFFFFF80
03FFFFFFFFFF00
01FFFFFFFFFE00
00FFFFFFFFFE00
007FFFFFFFFC00
003FFFFFFFF000
001FFFFFFFE000
000FFFFFFFC000
0003FFFFFF0000
0000FFFFFC0000
00003FFFF00000
000001FF000000
ENDCHAR
STARTCHAR P
ENCODING 80
SWIDTH 632 0
DWIDTH 47 0
BBX 43 55 3 0
BITMAP
1FFFFFE00000
7FFFFFFC0000
7FFFFFFF0000
FFFFFFFFC000
FFFFFFFFE000
FFFFFFFFF000
FFFFFFFFF800
FFFFFFFFFC00
FFFFFFFFFE00
FFFFFFFFFF00
FFFFFFFFFF00
FFFFFFFFFF80
FFFFFFFFFF80
FFF800FFFFC0
FFF8003FFFC0
FFF8000FFFC0
FFF8000FFFC0
FFF80007FFC0
FFF80007FFC0
FFF80007FFE0
FFF80007FFE0
FFF80007FFC0
FFF80007FFC0
FFF8000FFFC0
FFF8000FFFC0
FFF8003FFFC0
FFF801FFFFC0
FFFFFFFFFF80
FFFFFFFFFF80
FFFFFFFFFF00
FFFFFFFFFF00
FFFFFFFFFE00
FFFFFFFFFC00
FFFFFFFFF800
FFFFFFFFF000
FFFFFFFFE000
FFFFFFFF8000
FFFFFFFF0000
FFFFFFFC0000
FFFFFFC00000
FFF800000000
FFF800000000
FFF800000000
FFF800000000
FFF800000000
FFF800000000
FFF800000000
FFF800000000
FFF800000000
FFF800000000
FFF800000000
FFF800000000
7FF800000000
7FF000000000
1FC000000000
ENDCHAR
STARTCHAR Q
ENCODING 81
SWIDTH 830 0
DWIDTH 62 0
BBX 59 57 2 -1
BITMAP
000000FC00000000
00001FFFE0000000
00007FFFFC000000
0001FFFFFF000000
0007FFFFFF800000
001FFFFFFFE00000
003FFFFFFFF00000
007FFFFFFFF80000
00FFFFFFFFFC0000
01FFFFFFFFFE0000
03FFFFFFFFFF0000
07FFFFFFFFFF8000
07FFFFFFFFFFC000
0FFFFFFFFFFFC000
1FFFFC00FFFFE000
1FFFF0003FFFE000
3FFFE0001FFFF000
3FFFC0000FFFF000
3FFF800007FFF800
7FFF000003FFF800
7FFE000001FFF800
7FFE000001FFF800
7FFC000000FFFC00
FFFC000000FFFC00
FFFC000000FFFC00
FFF80000007FFC00
FFF80000007FFC00
FFF80000007FFC00
FFF80000007FFC00
FFF80000007FFC00
FFF80000007FFC00
FFF80000007FFC00
FFFC0000007FFC00
FFFC000000FFFC00
FFFC000000FFFC00
7FFE000000FFF800
7FFE000001FFF800
7FFF000003FFF800
7FFF800003FFF000
3FFFC00007FFF000
3FFFE0000FFFF000
1FFFF0003FFFF000
1FFFFC00FFFFFC00
0FFFFFCFFFFFFE00
0FFFFFFFFFFFFF00
07FFFFFFFFFFFFC0
03FFFFFFFFFFFFC0
01FFFFFFFFFFFFE0
00FFFFFFFFFFFFE0
007FFFFFFFFFFFE0
003FFFFFFFFFFFE0
001FFFFFFFFFFFC0
000FFFFFFFC7FFC0
0003FFFFFF03FF80
0000FFFFFC00FF00
00003FFFF0007E00
000001FF00001C00
ENDCHAR
STARTCHAR R
ENCODING 82
SWIDTH 631 0
DWIDTH 47 0
BBX 43 55 3 0
BITMAP
1FFFFFE00000
7FFFFFFC0000
7FFFFFFF0000
FFFFFFFFC000
FFFFFFFFE000
FFFFFFFFF800
FFFFFFFFFC00
FFFFFFFFFC00
FFFFFFFFFE00
FFFFFFFFFF00
FFFFFFFFFF00
FFFFFFFFFF80
FFFFFFFFFF80
FFF800FFFFC0
FFF8001FFFC0
FFF8000FFFC0
FFF80007FFC0
FFF80007FFC0
FFF80007FFE0
FFF80007FFE0
FFF80007FFE0
FFF80007FFE0
FFF80007FFC0
FFF80007FFC0
FFF8000FFFC0
FFF8003FFFC0
FFF801FFFFC0
FFFFFFFFFF80
FFFFFFFFFF80
FFFFFFFFFF00
FFFFFFFFFF00
FFFFFFFFFE00
FFFFFFFFFC00
FFFFFFFFF800
FFFFFFFFF800
FFFFFFFFFC00
FFFFFFFFFC00
FFFFFFFFFC00
FFFFFFFFFE00
FFFFFFFFFE00
FFF8007FFF00
FFF8003FFF00
FFF8003FFF80
FFF8001FFF80
FFF8001FFFC0
FFF8001FFFC0
FFF8000FFFC0
FFF8000FFFE0
FFF80007FFE0
FFF80007FFE0
FFF80003FFE0
FFF80003FFE0
7FF80001FFC0
7FF00001FF00
1FC00000FC00
ENDCHAR
STARTCHAR S
ENCODING 83
SWIDTH 583 0
DWIDTH 44 0
BBX 40 57 2 -1
BITMAP
0001FF0000
001FFFF000
007FFFFE00
00FFFFFF00
03FFFFFFC0
07FFFFFFE0
0FFFFFFFF0
0FFFFFFFF0
1FFFFFFFF8
3FFFFFFFF8
3FFFFFFFF0
3FFFFFFFF0
7FFFEFFFE0
7FFF00FFC0
7FFE007FC0
7FFC003F80
7FFC000400
7FFC000000
7FFC000000
7FFE000000
7FFF800000
7FFFE00000
3FFFFF0000
3FFFFFF000
1FFFFFFE00
1FFFFFFF80
0FFFFFFFE0
07FFFFFFF0
03FFFFFFF8
01FFFFFFF8
007FFFFFFC
001FFFFFFE
0003FFFFFE
00007FFFFE
000007FFFE
000000FFFF
0000007FFF
0780003FFF
0FC0003FFF
3FE0003FFF
3FF8003FFF
7FFC003FFF
FFFE007FFE
FFFF00FFFE
FFFFFFFFFE
FFFFFFFFFE
7FFFFFFFFC
7FFFFFFFFC
3FFFFFFFF8
1FFFFFFFF0
0FFFFFFFE0
07FFFFFFC0
03FFFFFF80
00FFFFFF00
007FFFFC00
000FFFE000
0000FE0000
ENDCHAR
STARTCHAR T
ENCODING 84
SWIDTH 731 0
DWIDTH 55 0
BBX 53 55 1 0
BITMAP
3FFFFFFFFFFFE0
7FFFFFFFFFFFF0
FFFFFFFFFFFFF0
FFFFFFFFFFFFF8
FFFFFFFFFFFFF8
FFFFFFFFFFFFF8
FFFFFFFFFFFFF8
FFFFFFFFFFFFF8
FFFFFFFFFFFFF0
7FFFFFFFFFFFF0
1FFFFFFFFFFFC0
00000FFF800000
00000FFF800000
00000FFF800000
00000FFF800000
00000FFF800000
00000FFF800000
00000FFF800000
00000FFF800000
00000FFF800000
00000FFF800000
00000FFF800000
00000FFF800000
00000FFF800000
00000FFF800000
00000FFF800000
00000FFF800000
00000FFF800000
00000FFF800000
00000FFF800000
00000FFF800000
00000FFF800000
00000FFF800000
00000FFF800000
00000FFF800000
00000FFF800000
00000FFF800000
00000FFF800000
00000FFF800000
00000FFF800000
00000FFF800000
00000FFF800000
00000FFF800000
00000FFF800000
00000FFF800000
00000FFF800000
00000FFF800000
00000FFF800000
00000FFF800000
00000FFF800000
00000FFF800000
00000FFF800000
00000FFF000000
000007FF000000
000003FC000000
ENDCHAR
STARTCHAR U
ENCODING 85
SWIDTH 726 0
DWIDTH 54 0
BBX 48 56 3 -1
BITMAP
1FE0000003FC
7FF000000FFE
7FF800000FFF
FFF800001FFF
FFF800001FFF
FFF800001FFF
FFF800001FFF
FFF800001FFF
FFF800001FFF
FFF800001FFF
FFF800001FFF
FFF800001FFF
FFF800001FFF
FFF800001FFF
FFF800001FFF
FFF800001FFF
FFF800001FFF
FFF800001FFF
FFF800001FFF
FFF800001FFF
FFF800001FFF
FFF800001FFF
FFF800001FFF
FFF800001FFF
FFF800001FFF
FFF800001FFF
FFF800001FFF
FFF800001FFF
FFF800001FFF
FFF800001FFF
FFF800001FFF
FFF800001FFF
FFFC00001FFF
FFFC00001FFF
FFFC00003FFF
7FFC00003FFF
7FFE00003FFF
7FFE00007FFE
7FFF0000FFFE
3FFF8000FFFE
3FFFC001FFFC
1FFFE007FFFC
1FFFFF7FFFF8
0FFFFFFFFFF8
0FFFFFFFFFF0
07FFFFFFFFF0
03FFFFFFFFE0
03FFFFFFFFC0
01FFFFFFFF80
00FFFFFFFF00
007FFFFFFE00
003FFFFFFC00
000FFFFFF000
0003FFFFE000
0000FFFF0000
00000FF00000
ENDCHAR
STARTCHAR V
ENCODING 86
SWIDTH 783 0
DWIDTH 59 0
BBX 57 55 1 0
BITMAP
07E000000007E000
1FF000000007F800
3FF80000000FFE00
7FF80000000FFF00
FFFC0000001FFF00
FFFC0000001FFF80
FFFE0000003FFF00
7FFE0000003FFF00
7FFE0000007FFF00
7FFF0000007FFE00
3FFF000000FFFE00
3FFF800000FFFC00
1FFF800001FFFC00
1FFFC00001FFF800
0FFFC00001FFF800
0FFFE00003FFF000
07FFE00003FFF000
07FFF00007FFE000
03FFF00007FFE000
03FFF0000FFFC000
01FFF8000FFFC000
01FFF8001FFF8000
00FFFC001FFF8000
00FFFC003FFF0000
007FFE003FFF0000
007FFE003FFE0000
003FFF007FFE0000
003FFF007FFC0000
001FFF80FFFC0000
001FFF80FFFC0000
000FFFC1FFF80000
000FFFC1FFF80000
0007FFC3FFF00000
0007FFE3FFF00000
0003FFE7FFE00000
0003FFF7FFE00000
0001FFFFFFC00000
0001FFFFFFC00000
0000FFFFFF800000
0000FFFFFF800000
00007FFFFF000000
00007FFFFF000000
00003FFFFE000000
00003FFFFE000000
00001FFFFC000000
00001FFFFC000000
00000FFFF8000000
00000FFFF8000000
000007FFF0000000
000007FFF0000000
000003FFE0000000
000003FFE0000000
000001FFC0000000
000000FF80000000
0000003E00000000
ENDCHAR
STARTCHAR W
ENCODING 87
SWIDTH 999 0
DWIDTH 75 0
BBX 73 55 1 0
BITMAP
07E000003E000003F000
1FF00000FF800007FC00
7FF80001FFC0000FFF00
7FF80003FFC0000FFF00
FFF80003FFE0001FFF80
FFFC0003FFE0001FFF80
FFFC0007FFE0001FFF80
7FFC0007FFF0003FFF00
7FFE0007FFF0003FFF00
7FFE000FFFF0003FFF00
3FFE000FFFF8007FFE00
3FFF000FFFF8007FFE00
3FFF001FFFF8007FFE00
1FFF001FFFFC00FFFC00
1FFF801FFFFC00FFFC00
1FFF803FFFFC00FFFC00
0FFF803FFFFE01FFF800
0FFFC03FFFFE01FFF800
0FFFC07FFFFE01FFF800
07FFC07FFFFF03FFF000
07FFE07FFFFF03FFF000
07FFE0FFFFFF03FFF000
03FFE0FFFFFF87FFE000
03FFF0FFFFFF87FFE000
03FFF1FFFFFF87FFC000
01FFF1FFFFFFCFFFC000
01FFF9FFF7FFCFFFC000
01FFFBFFF7FFCFFF8000
00FFFBFFE7FFEFFF8000
00FFFFFFE3FFFFFF8000
00FFFFFFE3FFFFFF0000
007FFFFFC3FFFFFF0000
007FFFFFC1FFFFFF0000
003FFFFFC1FFFFFE0000
003FFFFF80FFFFFE0000
003FFFFF80FFFFFE0000
001FFFFF80FFFFFC0000
001FFFFF007FFFFC0000
001FFFFF007FFFFC0000
000FFFFF007FFFF80000
000FFFFE003FFFF80000
000FFFFE003FFFF80000
0007FFFE003FFFF00000
0007FFFC001FFFF00000
0007FFFC001FFFF00000
0003FFFC001FFFE00000
0003FFF8000FFFE00000
0003FFF8000FFFE00000
0001FFF8000FFFC00000
0001FFF00007FFC00000
0001FFF00007FF800000
0000FFE00007FF800000
00007FE00003FF000000
00003FC00001FE000000
00001F00000078000000
ENDCHAR
STARTCHAR X
ENCODING 88
SWIDTH 741 0
DWIDTH 56 0
BBX 53 57 1 -1
BITMAP
07C00000001F00
0FF00000003FC0
1FF80000007FE0
3FF8000000FFF0
7FFC000001FFF8
FFFE000001FFF8
FFFF000003FFF8
FFFF800007FFF8
FFFFC0000FFFF8
7FFFE0001FFFF8
3FFFE0003FFFF0
1FFFF0007FFFE0
0FFFF800FFFFC0
0FFFFC00FFFF80
07FFFE01FFFF00
03FFFF03FFFE00
01FFFF87FFFC00
00FFFFCFFFFC00
007FFFDFFFF800
003FFFFFFFF000
001FFFFFFFE000
000FFFFFFFC000
0007FFFFFF8000
0003FFFFFF0000
0003FFFFFE0000
0001FFFFFC0000
0000FFFFF80000
00007FFFF00000
00003FFFF00000
00007FFFF80000
0000FFFFFC0000
0001FFFFFE0000
0003FFFFFF0000
0007FFFFFF8000
000FFFFFFFC000
001FFFFFFFE000
003FFFFFFFE000
007FFFFFFFF000
00FFFFCFFFF800
00FFFF87FFFC00
01FFFF03FFFE00
03FFFE03FFFF00
07FFFC01FFFF80
0FFFFC00FFFFC0
1FFFF8007FFFE0
3FFFF0003FFFF0
7FFFE0001FFFF0
7FFFC0000FFFF8
FFFF80000FFFF8
FFFF000007FFF8
FFFE000003FFF8
7FFE000001FFF8
7FFC000000FFF0
3FF80000007FE0
0FF00000003FC0
07E00000001F80
01800000000E00
ENDCHAR
STARTCHAR Y
ENCODING 89
SWIDTH 686 0
DWIDTH 51 0
BBX 49 56 1 0
BITMAP
01C0000000C000
07E0000003F800
1FF0000007FC00
3FF8000007FE00
7FF800000FFF00
FFFC00001FFF80
FFFE00001FFF80
FFFE00003FFF80
FFFF00007FFF80
7FFF80007FFF00
7FFF8000FFFF00
3FFFC000FFFE00
1FFFC001FFFE00
0FFFE003FFFC00
0FFFF003FFF800
07FFF007FFF800
03FFF80FFFF000
03FFFC0FFFE000
01FFFC1FFFE000
00FFFE1FFFC000
00FFFE3FFF8000
007FFF7FFF8000
003FFFFFFF0000
003FFFFFFE0000
001FFFFFFE0000
000FFFFFFC0000
000FFFFFF80000
0007FFFFF80000
0003FFFFF00000
0003FFFFE00000
0001FFFFE00000
0000FFFFC00000
0000FFFF800000
00007FFF800000
00003FFF000000
00003FFE000000
00003FFE000000
00003FFE000000
00003FFE000000
00003FFE000000
00003FFE000000
00003FFE000000
00003FFE000000
00003FFE000000
00003FFE000000
00003FFE000000
00003FFE000000
00003FFE000000
00003FFE000000
00003FFE000000
00003FFE000000
00003FFE000000
00003FFE000000
00001FFE000000
00001FFC000000
00000FF8000000
ENDCHAR
STARTCHAR Z
ENCODING 90
SWIDTH 643 0
DWIDTH 48 0
BBX 44 55 2 0
BITMAP
3FFFFFFFFE00
7FFFFFFFFF80
FFFFFFFFFFC0
FFFFFFFFFFE0
FFFFFFFFFFE0
FFFFFFFFFFE0
FFFFFFFFFFE0
FFFFFFFFFFE0
FFFFFFFFFFE0
FFFFFFFFFFE0
FFFFFFFFFFC0
7FFFFFFFFF80
1FFFFFFFFF80
000000FFFF00
000001FFFE00
000003FFFC00
000007FFFC00
000007FFF800
00000FFFF000
00001FFFF000
00001FFFE000
00003FFFC000
00007FFF8000
0000FFFF8000
0000FFFF0000
0001FFFE0000
0003FFFC0000
0003FFFC0000
0007FFF80000
000FFFF00000
001FFFF00000
001FFFE00000
003FFFC00000
007FFF800000
00FFFF800000
00FFFF000000
01FFFE000000
03FFFE000000
03FFFC000000
07FFF8000000
0FFFF0000000
1FFFF0000000
1FFFFFFFFF80
3FFFFFFFFFE0
7FFFFFFFFFF0
7FFFFFFFFFF0
FFFFFFFFFFF0
FFFFFFFFFFF0
FFFFFFFFFFF0
FFFFFFFFFFF0
FFFFFFFFFFF0
FFFFFFFFFFF0
7FFFFFFFFFF0
3FFFFFFFFFE0
0FFFFFFFFFC0
ENDCHAR
STARTCHAR bracketleft
ENCODING 91
SWIDTH 348 0
DWIDTH 26 0
BBX 22 75 3 -17
BITMAP
1FFFF0
7FFFF8
FFFFFC
FFFFFC
FFFFFC
FFFFFC
FFFFFC
FFFFFC
FFFFFC
FFFFF8
FFFFF0
FFF000
FFF000
FFF000
FFF000
FFF000
FFF000
FFF000
FFF000
FFF000
FFF000
FFF000
FFF000
FFF000
FFF000
FFF000
FFF000
FFF000
FFF000
FFF000
FFF000
FFF000
FFF000
FFF000
FFF000
FFF000
FFF000
FFF000
FFF000
FFF000
FFF000
FFF000
FFF000
FFF000
FFF000
FFF000
FFF000
FFF000
FFF000
FFF000
FFF000
FFF000
FFF000
FFF000
FFF000
FFF000
FFF000
FFF000
FFF000
FFF000
FFF000
FFF000
FFF000
FFF000
FFFFF0
FFFFF8
FFFFFC
FFFFFC
FFFFFC
FFFFFC
FFFFFC
FFFFFC
7FFFFC
7FFFF8
1FFFF0
ENDCHAR
STARTCHAR backslash
ENCODING 92
SWIDTH 528 0
DWIDTH 40 0
BBX 37 63 1 -4
BITMAP
0180000000
0FE0000000
1FF0000000
7FF0000000
7FF8000000
FFF8000000
FFFC000000
FFFC000000
7FFE000000
7FFE000000
3FFF000000
3FFF000000
1FFF800000
1FFF800000
0FFF800000
0FFFC00000
07FFC00000
07FFE00000
03FFE00000
03FFF00000
01FFF00000
01FFF80000
00FFF80000
00FFFC0000
00FFFC0000
007FFE0000
007FFE0000
003FFF0000
003FFF0000
001FFF8000
001FFF8000
000FFFC000
000FFFC000
0007FFE000
0007FFE000
0003FFF000
0003FFF000
0001FFF800
0001FFF800
0000FFF800
0000FFFC00
00007FFC00
00007FFE00
00003FFE00
00003FFF00
00001FFF00
00001FFF80
00000FFF80
00000FFFC0
00000FFFC0
000007FFE0
000007FFE0
000003FFF0
000003FFF0
000001FFF8
000001FFF8
000000FFF8
000000FFF8
0000007FF8
0000007FF8
0000003FF0
0000003FC0
0000001F00
ENDCHAR
STARTCHAR bracketright
ENCODING 93
SWIDTH 348 0
DWIDTH 26 0
BBX 22 75 1 -17
BITMAP
3FFFE0
7FFFF8
FFFFFC
FFFFFC
FFFFFC
FFFFFC
FFFFFC
FFFFFC
FFFFFC
7FFFFC
3FFFFC
003FFC
003FFC
003FFC
003FFC
003FFC
003FFC
003FFC
003FFC
003FFC
003FFC
003FFC
003FFC
003FFC
003FFC
003FFC
003FFC
003FFC
003FFC
003FFC
003FFC
003FFC
003FFC
003FFC
003FFC
003FFC
003FFC
003FFC
003FFC
003FFC
003FFC
003FFC
003FFC
003FFC
003FFC
003FFC
003FFC
003FFC
003FFC
003FFC
003FFC
003FFC
003FFC
003FFC
003FFC
003FFC
003FFC
003FFC
003FFC
003FFC
003FFC
003FFC
003FFC
003FFC
3FFFFC
7FFFFC
FFFFFC
FFFFFC
FFFFFC
FFFFFC
FFFFFC
FFFFFC
FFFFFC
7FFFF8
3FFFF0
ENDCHAR
STARTCHAR asciicircum
ENCODING 94
SWIDTH 526 0
DWIDTH 39 0
BBX 33 22 3 19
BITMAP
0001C00000
0003F00000
0007F80000
000FFC0000
001FFE0000
003FFF0000
007FFF8000
00FFFFC000
01FFFFE000
03FFFFF000
07FFFFF800
0FFFFFFC00
1FFFFFFE00
3FFF7FFF00
7FFE3FFF80
FFFC1FFF80
FFF80FFF80
FFF007FF80
7FE003FF80
3FC001FF00
1F8000FE00
0F00007C00
ENDCHAR
STARTCHAR underscore
ENCODING 95
SWIDTH 826 0
DWIDTH 62 0
BBX 60 10 1 -17
BITMAP
7FFFFFFFFFFFFFC0
7FFFFFFFFFFFFFE0
FFFFFFFFFFFFFFF0
FFFFFFFFFFFFFFF0
FFFFFFFFFFFFFFF0
FFFFFFFFFFFFFFF0
FFFFFFFFFFFFFFF0
FFFFFFFFFFFFFFF0
7FFFFFFFFFFFFFE0
3FFFFFFFFFFFFFC0
ENDCHAR
STARTCHAR grave
ENCODING 96
SWIDTH 482 0
DWIDTH 36 0
BBX 22 15 7 43
BITMAP
1E0000
3FC000
3FF800
7FFF00
7FFFF0
FFFFFC
FFFFFC
FFFFFC
FFFFFC
7FFFFC
3FFFFC
07FFFC
007FF8
000FF8
0001F0
ENDCHAR
STARTCHAR a
ENCODING 97
SWIDTH 596 0
DWIDTH 45 0
BBX 40 40 2 0
BITMAP
0000000080
0007FE0FFC
003FFF1FFE
007FFFDFFE
00FFFFFFFF
03FFFFFFFF
07FFFFFFFF
0FFFFFFFFF
0FFFFFFFFF
1FFFFFFFFF
3FFFFFFFFF
3FFFFFFFFF
7FFFFFFFFF
7FFFFFFFFF
7FFF01FFFF
FFFE00FFFF
FFFC007FFF
FFFC007FFF
FFF8003FFF
FFF8003FFF
FFF8003FFF
FFF8003FFF
FFF8003FFF
FFFC007FFF
FFFE00FFFF
7FFF01FFFF
7FFFC7FFFF
7FFFFFFFFF
3FFFFFFFFF
3FFFFFFFFF
1FFFFFFFFF
1FFFFFFFFF
0FFFFFFFFF
07FFFFFFFF
03FFFFFFFF
01FFFFFFFF
00FFFFDFFE
003FFF9FFE
001FFF0FFE
0003F803F0
ENDCHAR
STARTCHAR b
ENCODING 98
SWIDTH 592 0
DWIDTH 44 0
BBX 40 58 3 0
BITMAP
1FC0000000
7FF0000000
7FF8000000
FFF8000000
FFF8000000
FFF8000000
FFF8000000
FFF8000000
FFF8000000
FFF8000000
FFF8000000
FFF8000000
FFF8000000
FFF8000000
FFF8000000
FFF8000000
FFF8000000
FFF8000000
FFF8000000
FFF87FE000
FFF9FFF800
FFFBFFFE00
FFFFFFFF00
FFFFFFFF80
FFFFFFFFC0
FFFFFFFFE0
FFFFFFFFF0
FFFFFFFFF0
FFFFFFFFF8
FFFFFFFFF8
FFFFFFFFFC
FFFFFFFFFC
FFFF81FFFE
FFFE00FFFE
FFFE007FFE
FFFC003FFE
FFFC003FFE
FFF8003FFF
FFF8003FFF
FFF8003FFE
FFFC003FFE
FFFC007FFE
FFFE007FFE
FFFF00FFFE
FFFFC3FFFE
FFFFFFFFFC
FFFFFFFFFC
FFFFFFFFF8
FFFFFFFFF8
FFFFFFFFF0
FFFFFFFFE0
FFFFFFFFC0
FFFFFFFF80
FFFFFFFF00
FFFFFFFE00
7FFBFFFC00
7FF0FFF000
1FC03F8000
ENDCHAR
STARTCHAR c
ENCODING 99
SWIDTH 517 0
DWIDTH 39 0
BBX 35 40 2 0
BITMAP
0000FF0000
0007FFF000
001FFFFC00
007FFFFE00
01FFFFFF80
03FFFFFFC0
07FFFFFFE0
0FFFFFFFE0
1FFFFFFFE0
1FFFFFFFE0
3FFFFFFFC0
3FFFFFFFC0
7FFFFFFF80
7FFFF7FF00
7FFF80FF00
FFFE007C00
FFFC000000
FFFC000000
FFFC000000
FFF8000000
FFF8000000
FFF8000000
FFFC000000
FFFC000000
FFFE003800
7FFF00FE00
7FFFC3FF00
7FFFFFFF80
3FFFFFFF80
3FFFFFFFC0
1FFFFFFFE0
1FFFFFFFE0
0FFFFFFFE0
07FFFFFFE0
03FFFFFFC0
01FFFFFF80
00FFFFFF00
003FFFFE00
000FFFF800
0003FFC000
ENDCHAR
STARTCHAR d
ENCODING 100
SWIDTH 598 0
DWIDTH 45 0
BBX 40 58 2 0
BITMAP
00000007F8
0000000FFE
0000001FFE
0000001FFF
0000001FFF
0000001FFF
0000001FFF
0000001FFF
0000001FFF
0000001FFF
0000001FFF
0000001FFF
0000001FFF
0000001FFF
0000001FFF
0000001FFF
0000001FFF
0000001FFF
0000001FFF
0007FE1FFF
001FFF9FFF
007FFFDFFF
00FFFFFFFF
01FFFFFFFF
03FFFFFFFF
07FFFFFFFF
0FFFFFFFFF
1FFFFFFFFF
1FFFFFFFFF
3FFFFFFFFF
3FFFFFFFFF
7FFFFFFFFF
7FFF81FFFF
7FFE00FFFF
7FFE007FFF
FFFC003FFF
FFFC003FFF
FFF8003FFF
FFF8003FFF
FFF8003FFF
FFFC003FFF
FFFC003FFF
7FFE007FFF
7FFF00FFFF
7FFFC3FFFF
3FFFFFFFFF
3FFFFFFFFF
1FFFFFFFFF
1FFFFFFFFF
0FFFFFFFFF
07FFFFFFFF
07FFFFFFFF
03FFFFFFFF
01FFFFFFFF
007FFFFFFF
003FFFDFFE
000FFF0FFE
0001F803F0
ENDCHAR
STARTCHAR e
ENCODING 101
SWIDTH 573 0
DWIDTH 43 0
BBX 39 41 2 -1
BITMAP
0001FFF000
000FFFFC00
003FFFFF00
00FFFFFF80
01FFFFFFE0
03FFFFFFE0
07FFFFFFF0
0FFFFFFFF8
1FFFFFFFF8
1FFFFFFFFC
3FFFFFFFFC
3FFFFFFFFE
7FFFC07FFE
7FFF003FFE
7FFE003FFE
FFFC003FFE
FFFC003FFE
FFFC007FFE
FFFFFFFFFE
FFFFFFFFFE
FFFFFFFFFC
FFFFFFFFFC
FFFFFFFFF8
FFFFFFFFE0
FFFFFFFF80
FFFC000000
7FFE000000
7FFF000080
7FFF800FC0
3FFFFFFFE0
3FFFFFFFF0
1FFFFFFFF0
1FFFFFFFF8
0FFFFFFFF8
07FFFFFFF8
03FFFFFFF8
01FFFFFFF8
00FFFFFFF0
003FFFFFE0
000FFFFF80
0000FFF000
ENDCHAR
STARTCHAR f
ENCODING 102
SWIDTH 450 0
DWIDTH 34 0
BBX 32 58 1 0
BITMAP
00003FE0
0001FFF8
0007FFF8
000FFFF8
001FFFFC
003FFFFC
003FFFFC
007FFFFC
00FFFFFC
00FFFFF8
00FFFFF8
01FFFFF8
01FFFFE0
01FFF800
01FFF000
01FFF000
01FFF000
01FFF000
01FFF000
3FFFFFFC
7FFFFFFE
7FFFFFFE
FFFFFFFE
FFFFFFFF
FFFFFFFF
FFFFFFFF
FFFFFFFF
FFFFFFFE
FFFFFFFE
7FFFFFFE
7FFFFFFC
0FFFF7F0
01FFF000
01FFF000
01FFF000
01FFF000
01FFF000
01FFF000
01FFF000
01FFF000
01FFF000
01FFF000
01FFF000
01FFF000
01FFF000
01FFF000
01FFF000
01FFF000
01FFF000
01FFF000
01FFF000
01FFF000
01FFF000
01FFF000
01FFF000
00FFF000
00FFE000
003FC000
ENDCHAR
STARTCHAR g
ENCODING 103
SWIDTH 585 0
DWIDTH 44 0
BBX 39 57 2 -17
BITMAP
00004003C0
000FFC0FF8
003FFF1FFC
00FFFFBFFE
01FFFFFFFE
03FFFFFFFE
07FFFFFFFE
0FFFFFFFFE
1FFFFFFFFE
1FFFFFFFFE
3FFFFFFFFE
3FFFFFFFFE
7FFFFFFFFE
7FFF87FFFE
7FFE01FFFE
FFFC00FFFE
FFFC007FFE
FFF8007FFE
FFF8007FFE
FFF8003FFE
FFF8003FFE
FFF8007FFE
FFF8007FFE
FFFC00FFFE
FFFE01FFFE
7FFF83FFFE
7FFFFFFFFE
7FFFFFFFFE
3FFFFFFFFE
1FFFFFFFFE
1FFFFFFFFE
0FFFFFFFFE
07FFFFFFFE
03FFFFFFFE
01FFFFFFFE
00FFFFFFFE
007FFFBFFE
001FFE3FFE
0003F03FFE
0000003FFE
0000007FFE
00E0007FFE
01F000FFFC
03FC01FFFC
07FF03FFFC
0FFFFFFFF8
0FFFFFFFF8
0FFFFFFFF0
1FFFFFFFF0
1FFFFFFFE0
0FFFFFFFC0
0FFFFFFF80
03FFFFFF00
01FFFFFE00
007FFFF800
001FFFE000
0003FF0000
ENDCHAR
STARTCHAR h
ENCODING 104
SWIDTH 605 0
DWIDTH 45 0
BBX 39 58 3 0
BITMAP
1FC0000000
7FF0000000
7FF8000000
FFF8000000
FFF8000000
FFF8000000
FFF8000000
FFF8000000
FFF8000000
FFF8000000
FFF8000000
FFF8000000
FFF8000000
FFF8000000
FFF8000000
FFF8000000
FFF8000000
FFF8000000
FFF8000000
FFF83FE000
FFF8FFFC00
FFF9FFFE00
FFFBFFFF80
FFFFFFFFC0
FFFFFFFFE0
FFFFFFFFE0
FFFFFFFFF0
FFFFFFFFF8
FFFFFFFFF8
FFFFFFFFFC
FFFFFFFFFC
FFFFFFFFFC
FFFF81FFFE
FFFE007FFE
FFFC007FFE
FFFC003FFE
FFF8003FFE
FFF8003FFE
FFF8003FFE
FFF8003FFE
FFF8003FFE
FFF8003FFE
FFF8003FFE
FFF8003FFE
FFF8003FFE
FFF8003FFE
FFF8003FFE
FFF8003FFE
FFF8003FFE
FFF8003FFE
FFF8003FFE
FFF8003FFE
FFF8003FFE
FFF8003FFE
FFF8003FFE
7FF8001FFE
7FF0001FFC
1FC00007F8
ENDCHAR
STARTCHAR i
ENCODING 105
SWIDTH 255 0
DWIDTH 19 0
BBX 13 58 3 0
BITMAP
1FC0
7FF0
7FF8
FFF8
FFF8
FFF8
FFF8
FFF8
FFF8
FFF8
FFF8
7FF0
3FE0
0000
0000
0000
0000
0000
0000
3FE0
7FF0
FFF8
FFF8
FFF8
FFF8
FFF8
FFF8
FFF8
FFF8
FFF8
FFF8
FFF8
FFF8
FFF8
FFF8
FFF8
FFF8
FFF8
FFF8
FFF8
FFF8
FFF8
FFF8
FFF8
FFF8
FFF8
FFF8
FFF8
FFF8
FFF8
FFF8
FFF8
FFF8
FFF8
FFF8
7FF8
7FF0
1FC0
ENDCHAR
STARTCHAR j
ENCODING 106
SWIDTH 252 0
DWIDTH 19 0
BBX 26 75 -10 -17
BITMAP
0000FE00
0003FF80
0003FF80
0007FFC0
0007FFC0
0007FFC0
0007FFC0
0007FFC0
0007FFC0
0007FFC0
0003FF80
0003FF80
0000FE00
00000000
00000000
00000000
00000000
00000000
00007C00
0003FF80
0003FF80
0007FFC0
0007FFC0
0007FFC0
0007FFC0
0007FFC0
0007FFC0
0007FFC0
0007FFC0
0007FFC0
0007FFC0
0007FFC0
0007FFC0
0007FFC0
0007FFC0
0007FFC0
0007FFC0
0007FFC0
0007FFC0
0007FFC0
0007FFC0
0007FFC0
0007FFC0
0007FFC0
0007FFC0
0007FFC0
0007FFC0
0007FFC0
0007FFC0
0007FFC0
0007FFC0
0007FFC0
0007FFC0
0007FFC0
0007FFC0
0007FFC0
0007FFC0
0007FFC0
000FFFC0
000FFFC0
001FFF80
007FFF80
1FFFFF80
7FFFFF00
7FFFFF00
FFFFFE00
FFFFFE00
FFFFFC00
FFFFF800
FFFFF000
FFFFE000
FFFFC000
7FFF0000
7FFC0000
1FE00000
ENDCHAR
STARTCHAR k
ENCODING 107
SWIDTH 536 0
DWIDTH 40 0
BBX 36 58 3 0
BITMAP
3FE0000000
7FF0000000
FFF8000000
FFF8000000
FFF8000000
FFF8000000
FFF8000000
FFF8000000
FFF8000000
FFF8000000
FFF8000000
FFF8000000
FFF8000000
FFF8000000
FFF8000000
FFF8000000
FFF8000000
FFF8000000
FFF8000000
FFF8000000
FFF8007000
FFF801FC00
FFF803FE00
FFF80FFE00
FFF81FFF00
FFF83FFF80
FFF87FFF80
FFF8FFFF80
FFF9FFFF80
FFFBFFFF80
FFFFFFFF00
FFFFFFFE00
FFFFFFFC00
FFFFFFF800
FFFFFFF000
FFFFFFC000
FFFFFF8000
FFFFFF0000
FFFFFF0000
FFFFFF8000
FFFFFFC000
FFFFFFE000
FFFFFFF000
FFFFFFFC00
FFFFFFFE00
FFFFFFFF00
FFFBFFFF80
FFF9FFFFC0
FFF8FFFFE0
FFF87FFFF0
FFF83FFFF0
FFF81FFFF0
FFF80FFFF0
FFF807FFE0
FFF803FFC0
7FF800FFC0
7FF0007F80
1FC0003F00
ENDCHAR
STARTCHAR l
ENCODING 108
SWIDTH 327 0
DWIDTH 25 0
BBX 20 58 3 0
BITMAP
3FE000
7FF000
FFF800
FFF800
FFF800
FFF800
FFF800
FFF800
FFF800
FFF800
FFF800
FFF800
FFF800
FFF800
FFF800
FFF800
FFF800
FFF800
FFF800
FFF800
FFF800
FFF800
FFF800
FFF800
FFF800
FFF800
FFF800
FFF800
FFF800
FFF800
FFF800
FFF800
FFF800
FFF800
FFF800
FFF800
FFF800
FFF800
FFF800
FFF800
FFF800
FFF800
FFF800
FFF800
FFF800
FFFFC0
FFFFE0
FFFFF0
FFFFF0
7FFFF0
7FFFF0
7FFFF0
7FFFF0
3FFFF0
3FFFF0
1FFFF0
07FFF0
00FFC0
ENDCHAR
STARTCHAR m
ENCODING 109
SWIDTH 851 0
DWIDTH 64 0
BBX 58 40 3 0
BITMAP
0600040000380000
3FE07FE001FF8000
7FF0FFF807FFE000
FFF9FFFC0FFFF000
FFFBFFFE1FFFF800
FFFFFFFF3FFFFC00
FFFFFFFFFFFFFE00
FFFFFFFFFFFFFE00
FFFFFFFFFFFFFF00
FFFFFFFFFFFFFF00
FFFFFFFFFFFFFF80
FFFFFFFFFFFFFF80
FFFFFFFFFFFFFF80
FFFFFFFFFFFFFF80
FFFE0FFFF81FFF80
FFFC07FFF00FFFC0
FFFC03FFF00FFFC0
FFF803FFF00FFFC0
FFF803FFF007FFC0
FFF803FFF007FFC0
FFF803FFF007FFC0
FFF803FFF007FFC0
FFF803FFF007FFC0
FFF803FFF007FFC0
FFF803FFF007FFC0
FFF803FFF007FFC0
FFF803FFF007FFC0
FFF803FFF007FFC0
FFF803FFF007FFC0
FFF803FFF007FFC0
FFF803FFF007FFC0
FFF803FFF007FFC0
FFF803FFF007FFC0
FFF803FFF007FFC0
FFF803FFF007FFC0
FFF803FFE007FFC0
FFF801FFE007FFC0
7FF801FFE007FF80
7FF000FFC003FF80
1FC0007F8001FE00
ENDCHAR
STARTCHAR n
ENCODING 110
SWIDTH 606 0
DWIDTH 45 0
BBX 39 40 3 0
BITMAP
0700060000
3FF03FF000
7FF0FFFC00
FFF9FFFF00
FFFBFFFF80
FFFFFFFFC0
FFFFFFFFE0
FFFFFFFFE0
FFFFFFFFF0
FFFFFFFFF8
FFFFFFFFF8
FFFFFFFFFC
FFFFFFFFFC
FFFFFFFFFC
FFFF01FFFE
FFFE007FFE
FFFC007FFE
FFFC003FFE
FFF8003FFE
FFF8003FFE
FFF8003FFE
FFF8003FFE
FFF8003FFE
FFF8003FFE
FFF8003FFE
FFF8003FFE
FFF8003FFE
FFF8003FFE
FFF8003FFE
FFF8003FFE
FFF8003FFE
FFF8003FFE
FFF8003FFE
FFF8003FFE
FFF8003FFE
FFF8003FFE
FFF8001FFE
7FF8001FFE
7FF0000FFC
1FC00007F0
ENDCHAR
STARTCHAR o
ENCODING 111
SWIDTH 600 0
DWIDTH 45 0
BBX 41 41 2 -1
BITMAP
0003FFE00000
000FFFF80000
003FFFFE0000
007FFFFF8000
01FFFFFFC000
03FFFFFFE000
07FFFFFFF000
0FFFFFFFF800
1FFFFFFFFC00
1FFFFFFFFC00
3FFFFFFFFE00
3FFFFFFFFE00
7FFFFFFFFF00
7FFF80FFFF00
7FFF007FFF00
FFFE003FFF80
FFFC001FFF80
FFFC001FFF80
FFF8000FFF80
FFF8000FFF80
FFF8000FFF80
FFF8000FFF80
FFF8001FFF80
FFFC001FFF80
FFFC003FFF80
7FFE007FFF00
7FFF80FFFF00
7FFFFFFFFF00
3FFFFFFFFE00
3FFFFFFFFE00
1FFFFFFFFC00
1FFFFFFFFC00
0FFFFFFFF800
07FFFFFFF000
03FFFFFFE000
01FFFFFFC000
00FFFFFF8000
003FFFFF0000
001FFFFC0000
0003FFE00000
00003E000000
ENDCHAR
STARTCHAR p
ENCODING 112
SWIDTH 582 0
DWIDTH 44 0
BBX 39 57 3 -17
BITMAP
0400000000
3FE0FFE000
7FF1FFF800
FFFBFFFC00
FFFFFFFE00
FFFFFFFF00
FFFFFFFF80
FFFFFFFFC0
FFFFFFFFE0
FFFFFFFFF0
FFFFFFFFF0
FFFFFFFFF8
FFFFFFFFF8
FFFFC7FFFC
FFFF01FFFC
FFFE00FFFC
FFFC007FFE
FFFC003FFE
FFF8003FFE
FFF8003FFE
FFF8003FFE
FFF8003FFE
FFFC007FFE
FFFC007FFC
FFFE00FFFC
FFFF03FFFC
FFFFFFFFFC
FFFFFFFFF8
FFFFFFFFF8
FFFFFFFFF0
FFFFFFFFE0
FFFFFFFFE0
FFFFFFFFC0
FFFFFFFF80
FFFFFFFF00
FFFFFFFE00
FFFBFFF800
FFF9FFF000
FFF83F8000
FFF8000000
FFF8000000
FFF8000000
FFF8000000
FFF8000000
FFF8000000
FFF8000000
FFF8000000
FFF8000000
FFF8000000
FFF8000000
FFF8000000
FFF8000000
FFF8000000
FFF8000000
FFF0000000
7FF0000000
3FE0000000
ENDCHAR
STARTCHAR q
ENCODING 113
SWIDTH 582 0
DWIDTH 44 0
BBX 39 57 2 -17
BITMAP
0000000100
000FFC0FF8
003FFF1FFC
007FFFBFFC
01FFFFFFFE
03FFFFFFFE
07FFFFFFFE
0FFFFFFFFE
0FFFFFFFFE
1FFFFFFFFE
3FFFFFFFFE
3FFFFFFFFE
7FFFFFFFFE
7FFFEFFFFE
7FFE01FFFE
FFFC00FFFE
FFFC007FFE
FFF8007FFE
FFF8007FFE
FFF8003FFE
FFF8007FFE
FFF8007FFE
FFF8007FFE
FFFC00FFFE
FFFE01FFFE
7FFF03FFFE
7FFFFFFFFE
7FFFFFFFFE
3FFFFFFFFE
3FFFFFFFFE
1FFFFFFFFE
0FFFFFFFFE
07FFFFFFFE
03FFFFFFFE
01FFFFFFFE
00FFFFFFFE
007FFFBFFE
001FFE3FFE
0003F83FFE
0000003FFE
0000003FFE
0000003FFE
0000003FFE
0000003FFE
0000003FFE
0000003FFE
0000003FFE
0000003FFE
0000003FFE
0000003FFE
0000003FFE
0000003FFE
0000003FFE
0000003FFC
0000003FFC
0000001FFC
0000000FF0
ENDCHAR
STARTCHAR r
ENCODING 114
SWIDTH 457 0
DWIDTH 34 0
BBX 30 40 3 0
BITMAP
03001F80
3FF07FF0
7FF1FFF8
FFFBFFFC
FFFFFFFC
FFFFFFFC
FFFFFFFC
FFFFFFFC
FFFFFFFC
FFFFFFF8
FFFFFFF8
FFFFFFF8
FFFFFFF0
FFFF03E0
FFFE0000
FFFC0000
FFF80000
FFF80000
FFF80000
FFF80000
FFF80000
FFF80000
FFF80000
FFF80000
FFF80000
FFF80000
FFF80000
FFF80000
FFF80000
FFF80000
FFF80000
FFF80000
FFF80000
FFF80000
FFF80000
FFF80000
FFF80000
FFF80000
7FF00000
1FC00000
ENDCHAR
STARTCHAR s
ENCODING 115
SWIDTH 489 0
DWIDTH 37 0
BBX 33 41 2 -1
BITMAP
003FFE0000
01FFFFE000
03FFFFF800
0FFFFFFC00
1FFFFFFE00
1FFFFFFE00
3FFFFFFE00
3FFFFFFE00
3FFFFFFC00
7FFFFFFC00
7FFC07F800
7FF801F000
7FF8000000
7FFC000000
7FFF800000
3FFFFE0000
3FFFFF8000
3FFFFFF000
1FFFFFF800
1FFFFFFC00
0FFFFFFE00
07FFFFFF00
03FFFFFF00
00FFFFFF00
003FFFFF80
000FFFFF80
04007FFF80
1F800FFF80
3FE007FF80
7FF80FFF80
7FFFFFFF80
FFFFFFFF00
FFFFFFFF00
FFFFFFFF00
FFFFFFFE00
FFFFFFFE00
7FFFFFFC00
1FFFFFF800
07FFFFE000
00FFFF0000
0007E00000
ENDCHAR
STARTCHAR t
ENCODING 116
SWIDTH 449 0
DWIDTH 34 0
BBX 32 53 1 0
BITMAP
003F8000
00FFE000
01FFF000
01FFF000
01FFF000
01FFF000
01FFF000
01FFF000
01FFF000
01FFF000
01FFF000
01FFF000
01FFF000
01FFF000
3FFFFFFC
7FFFFFFE
7FFFFFFE
FFFFFFFE
FFFFFFFE
FFFFFFFF
FFFFFFFF
FFFFFFFE
FFFFFFFE
FFFFFFFE
7FFFFFFE
7FFFFFFC
1DFFF7F0
01FFF000
01FFF000
01FFF000
01FFF000
01FFF000
01FFF000
01FFF000
01FFF000
01FFF000
01FFF000
01FFF000
01FFF000
01FFF800
01FFFC00
01FFFFF0
01FFFFF8
00FFFFF8
00FFFFF8
00FFFFFC
007FFFFC
007FFFFC
003FFFF8
001FFFF8
000FFFF8
0003FFF0
00007FE0
ENDCHAR
STARTCHAR u
ENCODING 117
SWIDTH 606 0
DWIDTH 45 0
BBX 39 40 3 0
BITMAP
07000000E0
3FE0000FFC
7FF0001FFE
FFF8001FFE
FFF8003FFE
FFF8003FFE
FFF8003FFE
FFF8003FFE
FFF8003FFE
FFF8003FFE
FFF8003FFE
FFF8003FFE
FFF8003FFE
FFF8003FFE
FFF8003FFE
FFF8003FFE
FFF8003FFE
FFF8003FFE
FFF8003FFE
FFF8003FFE
FFF8003FFE
FFF8003FFE
FFF8003FFE
FFFC003FFE
FFFE007FFE
7FFF00FFFE
7FFFC7FFFE
7FFFFFFFFE
3FFFFFFFFE
3FFFFFFFFE
3FFFFFFFFE
1FFFFFFFFE
0FFFFFFFFE
0FFFFFFFFE
07FFFFFFFE
03FFFFFFFE
01FFFF9FFE
007FFF1FFE
001FFE1FFC
0003F007F0
ENDCHAR
STARTCHAR v
ENCODING 118
SWIDTH 638 0
DWIDTH 48 0
BBX 46 40 1 0
BITMAP
03E000001F00
0FF000003FC0
3FF000007FE0
7FF800007FF8
7FF80000FFF8
FFFC0000FFFC
FFFE0001FFFC
FFFE0001FFFC
7FFF0003FFF8
7FFF0003FFF8
3FFF8007FFF0
3FFF8007FFF0
1FFFC00FFFE0
1FFFC00FFFC0
0FFFE01FFFC0
07FFE01FFF80
07FFF03FFF80
03FFF03FFF00
03FFF87FFF00
01FFF87FFE00
01FFFCFFFC00
00FFFCFFFC00
007FFFFFF800
007FFFFFF800
003FFFFFF000
003FFFFFE000
001FFFFFE000
000FFFFFC000
000FFFFFC000
0007FFFF8000
0007FFFF8000
0003FFFF0000
0003FFFE0000
0001FFFE0000
0000FFFC0000
0000FFFC0000
00007FF80000
00003FF00000
00003FF00000
00000FC00000
ENDCHAR
STARTCHAR w
ENCODING 119
SWIDTH 793 0
DWIDTH 59 0
BBX 57 40 1 0
BITMAP
03C000080001F000
1FF0007F0003FC00
3FF000FF8007FE00
7FF801FFC007FF00
FFF801FFE00FFF80
FFFC03FFE00FFF80
FFFC03FFF00FFF80
7FFC03FFF01FFF80
7FFE07FFF01FFF80
7FFE07FFF83FFF00
3FFE0FFFF83FFF00
3FFF0FFFF83FFF00
3FFF0FFFFC7FFE00
1FFF9FFFFC7FFE00
1FFF9FFFFC7FFC00
0FFF9FFFFEFFFC00
0FFFFFFFFEFFFC00
07FFFFFFFFFFF800
07FFFFFFFFFFF800
07FFFFFFFFFFF000
03FFFFFFFFFFF000
03FFFFFFFFFFE000
01FFFFFFFFFFE000
01FFFFFFFFFFE000
01FFFFF7FFFFC000
00FFFFF3FFFFC000
00FFFFF3FFFF8000
007FFFE3FFFF8000
007FFFE1FFFF8000
007FFFC1FFFF0000
003FFFC1FFFF0000
003FFFC0FFFE0000
001FFF80FFFE0000
001FFF807FFE0000
001FFF807FFC0000
000FFF007FFC0000
000FFF003FF80000
0007FE001FF80000
0003FC001FF00000
0001F80007C00000
ENDCHAR
STARTCHAR x
ENCODING 120
SWIDTH 567 0
DWIDTH 43 0
BBX 40 40 1 0
BITMAP
07800001E0
0FE00003F8
1FF00007FC
3FF8000FFE
7FFC001FFE
7FFE003FFF
FFFF007FFF
FFFF80FFFF
FFFFC1FFFF
7FFFE3FFFF
3FFFF7FFFE
1FFFFFFFFC
0FFFFFFFF8
0FFFFFFFF0
07FFFFFFE0
03FFFFFFC0
01FFFFFF80
00FFFFFF00
007FFFFE00
003FFFFC00
001FFFFC00
003FFFFE00
007FFFFF00
00FFFFFF80
01FFFFFFC0
03FFFFFFE0
07FFFFFFF0
0FFFFFFFF8
1FFFFFFFFC
3FFFFFFFFE
7FFFE7FFFE
7FFFC3FFFF
FFFF81FFFF
FFFF00FFFF
FFFE007FFF
7FFC003FFF
3FF8001FFE
1FF0000FFC
0FE00007F8
07C00001F0
ENDCHAR
STARTCHAR y
ENCODING 121
SWIDTH 604 0
DWIDTH 45 0
BBX 43 58 1 -18
BITMAP
07E000007C00
0FF00000FF00
3FF00001FF80
7FF80003FFC0
FFFC0003FFE0
FFFC0003FFE0
FFFE0007FFE0
7FFE0007FFE0
7FFF000FFFC0
3FFF800FFFC0
3FFF801FFFC0
1FFFC01FFF80
1FFFC03FFF80
0FFFE03FFF00
07FFE07FFF00
07FFF07FFE00
03FFF87FFE00
03FFF8FFFC00
01FFFCFFFC00
01FFFFFFFC00
00FFFFFFF800
007FFFFFF800
007FFFFFF000
003FFFFFF000
003FFFFFE000
001FFFFFE000
000FFFFFC000
000FFFFFC000
0007FFFF8000
0007FFFF8000
0003FFFF8000
0001FFFF0000
0001FFFF0000
0000FFFE0000
0000FFFE0000
0000FFFC0000
0000FFFC0000
0001FFF80000
0001FFF80000
0003FFF80000
0003FFF00000
0007FFF00000
0007FFE00000
0007FFE00000
000FFFC00000
000FFFC00000
001FFF800000
001FFF800000
003FFF800000
003FFF000000
003FFF000000
007FFE000000
007FFE000000
003FFC000000
001FFC000000
000FF8000000
0003F8000000
000060000000
ENDCHAR
STARTCHAR z
ENCODING 122
SWIDTH 586 0
DWIDTH 44 0
BBX 40 40 2 0
BITMAP
01FFFFFF80
1FFFFFFFF0
3FFFFFFFF8
3FFFFFFFFC
3FFFFFFFFE
3FFFFFFFFE
3FFFFFFFFE
3FFFFFFFFE
3FFFFFFFFE
3FFFFFFFFE
3FFFFFFFFC
3FFFFFFFF8
1FFFFFFFF0
01FFFFFFE0
00003FFFC0
00007FFF80
0001FFFF00
0003FFFE00
0007FFFC00
000FFFF800
001FFFF000
003FFFE000
007FFF8000
00FFFF0000
03FFFE0000
07FFFC0000
0FFFF80000
1FFFFFFFFC
3FFFFFFFFE
7FFFFFFFFF
7FFFFFFFFF
FFFFFFFFFF
FFFFFFFFFF
FFFFFFFFFF
FFFFFFFFFF
FFFFFFFFFF
7FFFFFFFFF
7FFFFFFFFF
3FFFFFFFFE
0FFFFFFFF8
ENDCHAR
STARTCHAR braceleft
ENCODING 123
SWIDTH 381 0
DWIDTH 29 0
BBX 26 75 1 -17
BITMAP
00007F00
0001FFC0
0003FFC0
000FFFC0
000FFFC0
001FFFC0
003FFFC0
003FFFC0
007FFFC0
007FFF80
007FFF00
007FF000
007FF000
007FF000
007FF000
007FF000
007FF000
007FF000
007FF000
007FF000
007FF000
007FF000
007FF000
007FF000
007FF000
007FF000
007FF000
007FF000
007FE000
007FE000
00FFE000
01FFE000
3FFFC000
7FFFC000
FFFFC000
FFFF8000
FFFF0000
FFFE0000
FFFF0000
FFFF8000
FFFFC000
7FFFC000
3FFFC000
01FFE000
00FFE000
007FE000
007FE000
007FE000
007FE000
007FE000
007FF000
007FE000
007FE000
007FE000
007FE000
007FE000
007FE000
007FE000
007FE000
007FE000
007FE000
007FE000
007FE000
007FF000
007FFF00
007FFFC0
007FFFC0
003FFFC0
003FFFC0
001FFFC0
000FFFC0
0007FFC0
0003FFC0
0001FFC0
00003F00
ENDCHAR
STARTCHAR bar
ENCODING 124
SWIDTH 217 0
DWIDTH 16 0
BBX 10 75 3 -17
BITMAP
3F00
7F80
FFC0
FFC0
FFC0
FFC0
FFC0
FFC0
FFC0
FFC0
FFC0
FFC0
FFC0
FFC0
FFC0
FFC0
FFC0
FFC0
FFC0
FFC0
FFC0
FFC0
FFC0
FFC0
FFC0
FFC0
FFC0
FFC0
FFC0
FFC0
FFC0
FFC0
FFC0
FFC0
FFC0
FFC0
FFC0
FFC0
FFC0
FFC0
FFC0
FFC0
FFC0
FFC0
FFC0
FFC0
FFC0
FFC0
FFC0
FFC0
FFC0
FFC0
FFC0
FFC0
FFC0
FFC0
FFC0
FFC0
FFC0
FFC0
FFC0
FFC0
FFC0
FFC0
FFC0
FFC0
FFC0
FFC0
FFC0
FFC0
FFC0
FFC0
FFC0
7FC0
7F80
ENDCHAR
STARTCHAR braceright
ENCODING 125
SWIDTH 381 0
DWIDTH 29 0
BBX 26 75 1 -17
BITMAP
3F800000
7FE00000
FFF80000
FFFC0000
FFFE0000
FFFF0000
FFFF0000
FFFF8000
7FFF8000
7FFF8000
1FFFC000
01FFC000
01FFC000
01FFC000
01FFC000
01FFC000
01FFC000
01FFC000
01FFC000
01FFC000
01FFC000
01FFC000
01FFC000
01FFC000
01FFC000
01FFC000
01FFC000
01FFC000
01FFC000
01FFC000
01FFC000
00FFE000
00FFFF80
007FFFC0
007FFFC0
003FFFC0
003FFFC0
001FFFC0
003FFFC0
007FFFC0
007FFFC0
00FFFFC0
00FFFF80
00FFE000
01FFC000
01FFC000
01FFC000
01FFC000
01FFC000
01FFC000
01FFC000
01FFC000
01FFC000
01FFC000
01FFC000
01FFC000
01FFC000
01FFC000
01FFC000
01FFC000
01FFC000
01FFC000
01FFC000
01FFC000
1FFFC000
7FFF8000
FFFF8000
FFFF8000
FFFF0000
FFFF0000
FFFE0000
FFFC0000
FFF80000
7FE00000
3F800000
ENDCHAR
STARTCHAR asciitilde
ENCODING 126
SWIDTH 651 0
DWIDTH 49 0
BBX 39 16 4 12
BITMAP
007FC003E0
01FFF807F0
07FFFC0FF8
0FFFFE1FFC
1FFFFFFFFE
3FFFFFFFFE
7FFFFFFFFE
7FFFFFFFFC
FFFFFFFFFC
FFFFFFFFF8
FFFFFFFFF0
FFFBFFFFF0
7FE0FFFFE0
3FE07FFF80
1FC01FFF00
078007F800
ENDCHAR
STARTCHAR exclamdown
ENCODING 161
SWIDTH 268 0
DWIDTH 20 0
BBX 14 55 3 -17
BITMAP
1FF0
7FF8
7FF8
FFFC
FFFC
FFFC
FFFC
FFFC
FFFC
FFFC
FFFC
7FF8
3FF0
0FC0
0000
0000
0000
0000
0000
0000
3FF0
7FF8
7FF8
FFFC
FFFC
FFFC
FFFC
FFFC
FFFC
FFFC
FFFC
FFFC
FFFC
FFFC
FFFC
FFFC
FFFC
FFFC
FFFC
FFFC
FFFC
FFFC
FFFC
FFFC
FFFC
FFFC
FFFC
FFFC
FFFC
FFFC
FFFC
FFFC
7FF8
7FF8
1FE0
ENDCHAR
STARTCHAR cent
ENCODING 162
SWIDTH 434 0
DWIDTH 33 0
BBX 29 56 2 -6
BITMAP
0007E000
0007F000
000FF000
000FF800
000FF800
000FF800
000FF800
000FF800
000FF800
000FF800
000FF800
000FF800
000FF800
003FFE00
00FFFF80
03FFFFE0
07FFFFF0
0FFFFFF0
1FFFFFF8
3FFFFFF0
3FFFFFF0
7FFFFFF0
7FFFFFE0
7FFC1FC0
FFF80780
FFF00000
FFE00000
FFE00000
FFE00000
FFE00000
FFE00000
FFF00000
FFF80780
7FFC1FC0
7FFFFFE0
7FFFFFF0
3FFFFFF0
3FFFFFF8
1FFFFFF8
0FFFFFF0
07FFFFF0
03FFFFE0
00FFFFC0
007FFF00
000FF800
000FF800
000FF800
000FF800
000FF800
000FF800
000FF800
000FF800
000FF800
000FF000
0007F000
0007E000
ENDCHAR
STARTCHAR sterling
ENCODING 163
SWIDTH 675 0
DWIDTH 51 0
BBX 49 55 1 0
BITMAP
000001FFC00000
00001FFFFC0000
00007FFFFF0000
0001FFFFFFC000
0003FFFFFFE000
0007FFFFFFF000
000FFFFFFFF800
001FFFFFFFFC00
003FFFFFFFFE00
003FFFFFFFFE00
007FFFFFFFFE00
007FFFFFFFFE00
00FFFF80FFFE00
00FFFC001FFC00
00FFF8000FF800
01FFF80007F000
01FFF00001C000
01FFF000000000
01FFE000000000
01FFE000000000
01FFE000000000
01FFE000000000
01FFE000000000
3FFFFFF8000000
7FFFFFFE000000
FFFFFFFE000000
FFFFFFFE000000
FFFFFFFF000000
FFFFFFFF000000
FFFFFFFE000000
FFFFFFFE000000
7FFFFFFE000000
3FFFFFFC000000
007FFC00000000
007FFC00000000
003FFC00000000
003FFC00000000
003FFC00000000
003FFC00000000
003FFC00000000
007FFC00000000
007FFC00000000
00FFF800000000
00FFFFFFFFFE00
01FFFFFFFFFF00
03FFFFFFFFFF00
03FFFFFFFFFF00
07FFFFFFFFFF00
07FFFFFFFFFF80
07FFFFFFFFFF00
07FFFFFFFFFF00
07FFFFFFFFFF00
03FFFFFFFFFF00
01FFFFFFFFFE00
007FFFFFFFFC00
ENDCHAR
STARTCHAR currency
ENCODING 164
SWIDTH 677 0
DWIDTH 51 0
BBX 47 58 2 0
BITMAP
0700000000C0
1F80000003F0
7F80000007F8
7FC0000007FC
FFE000000FFE
FFE000000FFE
FFF800003FFE
7FFFFFFFFFFC
7FFFFFFFFFFC
3FFFFFFFFFF8
3FFFFFFFFFF0
1FFFFFFFFFF0
0FFFFFFFFFE0
07FFFFFFFFC0
03FFFFFFFF80
07FFFFFFFFC0
0FFFFFFFFFC0
0FFFFFFFFFE0
1FFFF03FFFE0
1FFF8003FFF0
1FFF0001FFF0
3FFE0000FFF0
3FFC00007FF8
3FFC00007FF8
3FF800003FF8
3FF800003FF8
3FF800003FF8
7FF800003FF8
7FF800003FF8
7FF800003FF8
7FF800003FF8
3FF800003FF8
3FF800003FF8
3FF800003FF8
3FFC00007FF8
3FFC00007FF8
3FFE0000FFF0
1FFF0001FFF0
1FFF8007FFF0
1FFFF03FFFE0
0FFFFFFFFFE0
0FFFFFFFFFC0
07FFFFFFFFC0
03FFFFFFFF80
07FFFFFFFFC0
0FFFFFFFFFE0
1FFFFFFFFFF0
3FFFFFFFFFF0
3FFFFFFFFFF8
7FFFFFFFFFFC
7FFFC007FFFC
FFF800003FFE
FFE000000FFE
FFC000000FFE
7FC0000007FC
7F80000003F8
1F80000003F0
020000000080
ENDCHAR
STARTCHAR yen
ENCODING 165
SWIDTH 677 0
DWIDTH 51 0
BBX 49 55 1 0
BITMAP
03E0000003E000
0FF0000007F800
1FF000000FFC00
7FF800000FFE00
7FFC00001FFF00
FFFC00001FFF80
FFFE00003FFF80
FFFF00007FFF00
7FFF00007FFF00
7FFF8000FFFF00
3FFF8001FFFE00
1FFFC001FFFC00
1FFFE003FFFC00
0FFFE003FFF800
07FFF007FFF000
07FFF80FFFF000
03FFF80FFFE000
01FFFC1FFFC000
01FFFC3FFFC000
00FFFE3FFF8000
007FFF7FFF0000
007FFF7FFF0000
003FFFFFFE0000
001FFFFFFC0000
001FFFFFFC0000
000FFFFFF80000
0007FFFFF00000
0007FFFFF00000
007FFFFFFF0000
00FFFFFFFF8000
01FFFFFFFFC000
01FFFFFFFFC000
01FFFFFFFFC000
01FFFFFFFFC000
00FFFFFFFF8000
007FFFFFFF0000
00003FFE000000
00003FFE000000
00003FFE000000
00003FFE000000
00003FFE000000
007FFFFFFF0000
00FFFFFFFF8000
01FFFFFFFFC000
01FFFFFFFFC000
01FFFFFFFFC000
01FFFFFFFFC000
00FFFFFFFF8000
007FFFFFFF0000
00003FFE000000
00003FFE000000
00003FFE000000
00003FFC000000
00001FFC000000
000007F0000000
ENDCHAR
STARTCHAR brokenbar
ENCODING 166
SWIDTH 215 0
DWIDTH 16 0
BBX 10 75 3 -17
BITMAP
3F00
7F80
7FC0
FFC0
FFC0
FFC0
FFC0
FFC0
FFC0
FFC0
FFC0
FFC0
FFC0
FFC0
FFC0
FFC0
FFC0
FFC0
FFC0
FFC0
FFC0
FFC0
FFC0
FFC0
FFC0
FFC0
FFC0
FFC0
FFC0
FFC0
FFC0
FFC0
7F80
3F00
0000
0000
0000
0000
0000
0000
0000
3F80
7FC0
FFC0
FFC0
FFC0
FFC0
FFC0
FFC0
FFC0
FFC0
FFC0
FFC0
FFC0
FFC0
FFC0
FFC0
FFC0
FFC0
FFC0
FFC0
FFC0
FFC0
FFC0
FFC0
FFC0
FFC0
FFC0
FFC0
FFC0
FFC0
FFC0
7FC0
7F80
0C00
ENDCHAR
STARTCHAR section
ENCODING 167
SWIDTH 560 0
DWIDTH 42 0
BBX 38 75 2 -17
BITMAP
0000700000
001FFFC000
007FFFF800
01FFFFFE00
03FFFFFF00
07FFFFFF80
0FFFFFFFC0
0FFFFFFFE0
1FFFFFFFE0
3FFFFFFFE0
3FFFFFFFE0
3FFFFFFFC0
7FFF0FFF80
7FFE01FF80
7FFC00FF00
7FFC003E00
7FF8000000
7FFC000000
7FFC000000
7FFE000000
7FFF800000
3FFFFC0000
3FFFFFC000
3FFFFFF800
1FFFFFFE00
0FFFFFFF80
07FFFFFFC0
0FFFFFFFE0
1FFFFFFFF0
3FFFFFFFF0
3FFFFFFFF8
3FFFFFFFF8
7FFFFFFFFC
7FFE07FFFC
7FFC01FFFC
7FFC007FFC
7FF8007FFC
7FF8007FFC
7FFC007FFC
7FFE007FFC
7FFF007FFC
7FFFE0FFFC
3FFFFFFFF8
3FFFFFFFF8
1FFFFFFFF8
1FFFFFFFF0
0FFFFFFFE0
07FFFFFFE0
03FFFFFFF0
00FFFFFFF0
003FFFFFF8
000FFFFFF8
0000FFFFF8
00000FFFFC
000001FFFC
000000FFFC
0700007FFC
1FC0007FFC
3FE0007FFC
7FF0007FFC
7FF8007FFC
FFFC00FFFC
FFFF01FFF8
FFFFFFFFF8
FFFFFFFFF8
7FFFFFFFF0
7FFFFFFFF0
3FFFFFFFE0
1FFFFFFFC0
0FFFFFFF80
07FFFFFF00
01FFFFFE00
00FFFFF800
003FFFE000
0003FE0000
ENDCHAR
STARTCHAR dieresis
ENCODING 168
SWIDTH 489 0
DWIDTH 37 0
BBX 34 13 3 45
BITMAP
1FE001FE00
7FF007FF00
7FF807FF80
FFF80FFF80
FFF80FFFC0
FFF80FFFC0
FFF80FFFC0
FFF80FFFC0
FFF80FFFC0
FFF80FFFC0
FFF807FF80
7FF807FF80
3FE003FF00
ENDCHAR
STARTCHAR copyright
ENCODING 169
SWIDTH 711 0
DWIDTH 53 0
BBX 49 49 2 7
BITMAP
00003FFF000000
0003FFFFF00000
001FFFFFFC0000
007FFFFFFF0000
00FFFFFFFFC000
01FFFFFFFFE000
07FFFC0FFFF000
07FF00003FF800
0FF800000FF800
1FF0000003FC00
1FE007F801FC00
3FC03FFF00FE00
3F807FFF80FE00
7F81FFFFC07F00
7F03FFFFE07F00
7F07FFFFE03F00
7E07FFFFE03F80
FE0FFFFFC03F80
FE0FFC0FC03F80
FE1FF003001F80
FE1FE000001F80
FE1FE000001F80
FC1FE000001F80
FC3FC000001F80
FC3FC000001F80
FC1FC000001F80
FC1FE000001F80
FE1FE000001F80
FE1FF000001F80
FE1FF003801F80
FE0FFC0F803F80
7E0FFFFFC03F80
7E07FFFFE03F80
7F07FFFFE03F00
7F03FFFFE07F00
3F01FFFFC07F00
3F807FFF80FE00
3FC01FFF01FE00
1FE007F801FC00
1FF0000007FC00
0FFC00000FF800
07FF80007FF000
03FFFFFFFFF000
01FFFFFFFFE000
00FFFFFFFF8000
007FFFFFFF0000
001FFFFFFC0000
0003FFFFE00000
00001FF8000000
ENDCHAR
STARTCHAR ordfeminine
ENCODING 170
SWIDTH 445 0
DWIDTH 33 0
BBX 28 28 2 25
BITMAP
00FF8FE0
03FFDFF0
07FFFFF0
0FFFFFF0
1FFFFFF0
3FFFFFF0
3FFFFFF0
7FFFFFF0
7FFFFFF0
FFF0FFF0
FFC07FF0
FFC03FF0
FF803FF0
FF801FF0
FF801FF0
FFC03FF0
FFC03FF0
FFE07FF0
7FFFFFF0
7FFFFFF0
3FFFFFF0
3FFFFFF0
1FFFFFF0
0FFFFFF0
07FFFFF0
03FFFFF0
00FF8FF0
001E03C0
ENDCHAR
STARTCHAR guillemotleft
ENCODING 171
SWIDTH 668 0
DWIDTH 50 0
BBX 48 39 1 0
BITMAP
0000780000F0
0000FE0003F8
0001FF0007FC
0003FF000FFE
0007FF801FFE
000FFF803FFF
001FFF807FFF
003FFF80FFFF
007FFF81FFFE
00FFFF03FFFC
01FFFE07FFF8
03FFFC0FFFF0
07FFF81FFFE0
0FFFF03FFFC0
1FFFE07FFF80
3FFFC0FFFF00
7FFF81FFFE00
FFFF01FFFC00
FFFE01FFF800
FFFC01FFF000
FFFE01FFF800
7FFF01FFFC00
7FFF80FFFE00
3FFFC07FFF00
1FFFE03FFF80
0FFFF01FFFC0
07FFF80FFFE0
03FFFC07FFF0
01FFFE03FFF8
00FFFF01FFFC
007FFF80FFFE
003FFF807FFF
001FFF803FFF
000FFF801FFF
0007FF800FFE
0003FF0007FE
0001FE0003FC
0000FC0001F0
0000300000E0
ENDCHAR
STARTCHAR logicalnot
ENCODING 172
SWIDTH 526 0
DWIDTH 39 0
BBX 37 24 1 9
BITMAP
3FFFFFFFE0
7FFFFFFFF8
7FFFFFFFF8
FFFFFFFFF8
FFFFFFFFF8
FFFFFFFFF8
FFFFFFFFF8
FFFFFFFFF8
FFFFFFFFF8
FFFFFFFFF8
7FFFFFFFF8
7FFFFFFFF8
1FFFFFFFF8
0000001FF8
0000001FF8
0000001FF8
0000001FF8
0000001FF8
0000001FF8
0000001FF8
0000001FF8
0000000FF8
0000000FF0
0000000180
ENDCHAR
STARTCHAR registered
ENCODING 174
SWIDTH 711 0
DWIDTH 53 0
BBX 49 49 2 7
BITMAP
00003FFF000000
0003FFFFF00000
001FFFFFFC0000
007FFFFFFF0000
00FFFFFFFFC000
01FFFFFFFFE000
07FFFC0FFFF000
07FF00003FF800
0FF800000FF800
1FF0000003FC00
1FE0FFFC01FC00
3FC1FFFF00FE00
3F81FFFF80FE00
7F81FFFFC07F00
7F01FFFFE07F00
7F01FFFFF03F00
7E01FFFFF03F80
FE01FC1FF03F80
FE01FC0FF03F80
FE01FC07F81F80
FE01FC07F81F80
FE01FC07F01F80
FC01FC1FF01F80
FC01FFFFF01F80
FC01FFFFF01F80
FC01FFFFE01F80
FC01FFFFC01F80
FE01FFFFC01F80
FE01FFFFC01F80
FE01FFFFE01F80
FE01FFFFE03F80
7E01FC1FF03F80
7E01FC0FF03F80
7F01FC0FF03F00
7F01FC07F87F00
3F01FC07F87F00
3F81FC07F0FE00
3FC0F803E1FE00
1FE0000003FC00
1FF0000007FC00
0FFC00001FF800
07FF8000FFF000
03FFFFFFFFF000
01FFFFFFFFE000
00FFFFFFFF8000
007FFFFFFF0000
001FFFFFFC0000
0003FFFFE00000
00001FF8000000
ENDCHAR
STARTCHAR degree
ENCODING 176
SWIDTH 407 0
DWIDTH 31 0
BBX 27 27 2 31
BITMAP
000C0000
00FFE000
03FFF000
07FFFC00
0FFFFE00
1FFFFF00
3FFFFF80
7FFFFF80
7FFFFFC0
7FE1FFC0
FFC07FC0
FF807FC0
FF803FE0
FF803FE0
FF803FE0
FF803FE0
FF807FC0
FFC07FC0
7FF1FFC0
7FFFFFC0
7FFFFF80
3FFFFF00
1FFFFF00
0FFFFE00
07FFFC00
03FFF000
00FFC000
ENDCHAR
STARTCHAR plusminus
ENCODING 177
SWIDTH 505 0
DWIDTH 38 0
BBX 34 41 2 0
BITMAP
0001F00000
000FF80000
000FFC0000
001FFC0000
001FFE0000
001FFE0000
001FFE0000
001FFE0000
001FFE0000
7FFFFFFF80
FFFFFFFF80
FFFFFFFFC0
FFFFFFFFC0
FFFFFFFFC0
FFFFFFFFC0
FFFFFFFFC0
FFFFFFFFC0
FFFFFFFFC0
7FFFFFFF80
3FFFFFFF00
001FFE0000
001FFE0000
001FFE0000
001FFE0000
001FFC0000
000FFC0000
000FFC0000
0001E00000
0000000000
0000000000
0000000000
3FFFFFFE00
7FFFFFFF00
7FFFFFFF80
7FFFFFFF80
7FFFFFFF80
7FFFFFFF80
7FFFFFFF80
7FFFFFFF80
3FFFFFFF00
1FFFFFFE00
ENDCHAR
STARTCHAR twosuperior
ENCODING 178
SWIDTH 455 0
DWIDTH 34 0
BBX 31 40 2 16
BITMAP
003FF000
01FFFC00
03FFFF00
07FFFF80
0FFFFFC0
1FFFFFE0
3FFFFFE0
3FFFFFF0
7FFFFFF0
7FFFFFF8
FFFFFFF8
FFF07FF8
FFF03FF8
FFE01FFC
FFE03FFC
FFE03FFC
FFE03FF8
FFC07FF8
7FC0FFF8
3F01FFF8
0003FFF0
000FFFF0
003FFFE0
007FFFC0
01FFFF80
07FFFF00
0FFFFE00
1FFFFC00
3FFFF000
7FFFFFF8
7FFFFFFC
FFFFFFFE
FFFFFFFE
FFFFFFFE
FFFFFFFE
FFFFFFFE
FFFFFFFE
7FFFFFFE
3FFFFFFC
0FFFFFF8
ENDCHAR
STARTCHAR threesuperior
ENCODING 179
SWIDTH 457 0
DWIDTH 34 0
BBX 30 40 2 16
BITMAP
003FF800
00FFFE00
03FFFF80
07FFFFC0
0FFFFFE0
1FFFFFE0
1FFFFFF0
3FFFFFF8
3FFFFFF8
3FFFFFF8
3FF87FF8
3FF03FFC
3FE01FFC
1FE01FF8
07C03FF8
00007FF8
000FFFF0
001FFFF0
001FFFE0
001FFFE0
001FFFF0
001FFFF8
001FFFF8
000FFFFC
3F803FFC
FFC01FFC
FFE01FFC
FFE01FFC
FFE01FFC
FFF03FFC
FFFFFFFC
7FFFFFFC
7FFFFFF8
3FFFFFF8
3FFFFFF0
1FFFFFE0
0FFFFFC0
07FFFF80
01FFFE00
007FF800
ENDCHAR
STARTCHAR acute
ENCODING 180
SWIDTH 605 0
DWIDTH 45 0
BBX 22 15 11 43
BITMAP
0000F0
0007F8
007FF8
03FFF8
1FFFFC
7FFFFC
7FFFFC
FFFFFC
FFFFFC
7FFFFC
7FFFF0
7FFF80
3FFC00
3FE000
1F0000
ENDCHAR
STARTCHAR mu
ENCODING 181
SWIDTH 601 0
DWIDTH 45 0
BBX 39 57 3 -17
BITMAP
0700000080
3FE0000FFC
7FF0001FFC
FFF8003FFE
FFF8003FFE
FFF8003FFE
FFF8003FFE
FFF8003FFE
FFF8003FFE
FFF8003FFE
FFF8003FFE
FFF8003FFE
FFF8003FFE
FFF8003FFE
FFF8003FFE
FFF8003FFE
FFF8003FFE
FFF8003FFE
FFF8003FFE
FFF8003FFE
FFF8003FFE
FFF8003FFE
FFF8003FFE
FFFC007FFE
FFFC00FFFE
FFFF01FFFE
FFFFFFFFFE
FFFFFFFFFE
FFFFFFFFFE
FFFFFFFFFE
FFFFFFFFFE
FFFFFFFFFE
FFFFFFFFFE
FFFFFFFFFE
FFFFFFFFFE
FFFFFFFFFE
FFFFFFBFFE
FFFFFF1FFC
FFF9FE0FF8
FFF8000000
FFF8000000
FFF8000000
FFF8000000
FFF8000000
FFF8000000
FFF8000000
FFF8000000
FFF8000000
FFF8000000
FFF8000000
FFF8000000
FFF8000000
FFF8000000
FFF8000000
7FF0000000
3FE0000000
0600000000
ENDCHAR
STARTCHAR paragraph
ENCODING 182
SWIDTH 614 0
DWIDTH 46 0
BBX 40 63 2 -17
BITMAP
00FFFFFFF8
07FFFFFFFE
1FFFFFFFFE
3FFFFFFFFE
3FFFFFFFFF
7FFFFFFFFF
7FFFFFFFFF
7FFFFFFFFF
FFFFFF07FF
FFFFFF07FF
FFFFFF07FF
FFFFFF07FF
FFFFFF07FF
FFFFFF07FF
FFFFFF07FF
FFFFFF07FF
FFFFFF07FF
7FFFFF07FF
7FFFFF07FF
7FFFFF07FF
7FFFFF07FF
3FFFFF07FF
3FFFFF07FF
1FFFFF07FF
07FFFF07FF
01FFFF07FF
0003FF07FF
0003FF07FF
0003FF07FF
0003FF07FF
0003FF07FF
0003FF07FF
0003FF07FF
0003FF07FF
0003FF07FF
0003FF07FF
0003FF07FF
0003FF07FF
0003FF07FF
0003FF07FF
0003FF07FF
0003FF07FF
0003FF07FF
0003FF07FF
0003FF07FF
0003FF07FF
0003FF07FF
0003FF07FF
0003FF07FF
0003FF07FF
0003FF07FF
0003FF07FF
0003FF07FF
0003FF07FF
0003FF07FF
0003FF07FF
0003FF07FF
0003FF07FF
0003FF07FF
0003FF03FF
0003FE03FE
0003FE03FE
0001FC01FC
ENDCHAR
STARTCHAR periodcentered
ENCODING 183
SWIDTH 237 0
DWIDTH 18 0
BBX 14 14 2 16
BITMAP
3FE0
7FF8
FFF8
FFFC
FFFC
FFFC
FFFC
FFFC
FFFC
FFFC
FFFC
7FF8
7FF0
1FC0
ENDCHAR
STARTCHAR cedilla
ENCODING 184
SWIDTH 559 0
DWIDTH 42 0
BBX 15 16 13 -14
BITMAP
1FC0
7FF0
7FF8
FFFC
FFFC
7FFE
3DFE
00FE
00FE
39FE
7FFE
FFFC
FFFC
FFF8
7FF0
1FC0
ENDCHAR
STARTCHAR onesuperior
ENCODING 185
SWIDTH 321 0
DWIDTH 24 0
BBX 20 40 1 16
BITMAP
000780
001FE0
003FF0
007FF0
00FFF0
01FFF0
03FFF0
0FFFF0
1FFFF0
3FFFF0
7FFFF0
7FFFF0
FFFFF0
FFFFF0
FFFFF0
7FFFF0
7FFFF0
3FFFF0
0F7FF0
007FF0
007FF0
007FF0
007FF0
007FF0
007FF0
007FF0
007FF0
007FF0
007FF0
007FF0
007FF0
007FF0
007FF0
007FF0
007FF0
007FF0
007FF0
007FF0
003FE0
000FC0
ENDCHAR
STARTCHAR ordmasculine
ENCODING 186
SWIDTH 439 0
DWIDTH 33 0
BBX 29 29 2 24
BITMAP
003FE000
00FFF800
03FFFE00
07FFFF00
0FFFFF80
1FFFFFC0
3FFFFFE0
3FFFFFE0
7FFFFFF0
7FF8FFF0
FFE03FF8
FFC01FF8
FFC01FF8
FF800FF8
FF800FF8
FF800FF8
FFC01FF8
FFC01FF8
FFE03FF8
7FFDFFF0
7FFFFFF0
3FFFFFE0
3FFFFFE0
1FFFFFC0
0FFFFF80
07FFFF00
01FFFC00
00FFF800
001FC000
ENDCHAR
STARTCHAR guillemotright
ENCODING 187
SWIDTH 669 0
DWIDTH 50 0
BBX 48 39 1 0
BITMAP
0780001E0000
1FC0003F0000
3FE0007F8000
7FF000FFC000
7FF801FFE000
FFFC01FFF000
FFFE01FFF800
FFFF01FFFC00
7FFF80FFFE00
3FFFC0FFFF00
1FFFE03FFF80
0FFFF01FFFC0
07FFF80FFFE0
03FFFC07FFF0
01FFFE03FFF8
00FFFF01FFFC
007FFF80FFFE
003FFF807FFF
001FFF803FFF
000FFFC03FFF
001FFF807FFF
003FFF80FFFF
007FFF01FFFE
00FFFF03FFFC
01FFFE07FFF8
03FFFC0FFFF0
07FFF81FFFE0
0FFFF03FFFC0
1FFFE07FFF80
3FFFC0FFFF00
7FFF81FFFE00
FFFF01FFFC00
FFFE01FFF800
FFFC01FFF000
7FF801FFE000
3FF000FFC000
3FE0007F8000
0F80003F0000
0700000C0000
ENDCHAR
STARTCHAR onequarter
ENCODING 188
SWIDTH 786 0
DWIDTH 59 0
BBX 50 61 4 -2
BITMAP
000000001C0000
001000001F0000
00FE00003F8000
01FE00007F8000
03FE00007F0000
07FF0000FF0000
0FFF0000FE0000
1FFF0001FE0000
3FFF0001FC0000
7FFF0003FC0000
FFFF0003F80000
FFFF0007F80000
FFFF0007F00000
FFFF000FF00000
7FFF000FE00000
3FFF001FE00000
01FF001FC00000
01FF003F800000
01FF003F800000
01FF007F000000
01FF00FF000000
01FF00FE000000
01FF01FE000000
01FF01FC000000
01FF03FC000000
01FF03F8000000
01FF07F8000000
01FF07F0400200
01FF0FF0FC3FC0
01FF0FE1FE3FC0
01FE1FE1FE3FC0
01FE1FC1FE3FC0
00783FC3FE3FC0
00003F83FE3FC0
00007F03FE3FC0
00007F03FC3FC0
0000FE07FC3FC0
0000FE07FC3FC0
0001FC07FC3FC0
0003FC07F83FC0
0003F80FF83FC0
0007F80FF83FC0
0007F00FFFFFC0
000FF00FFFFFC0
000FE01FFFFFC0
001FE01FFFFFC0
001FC01FFFFFC0
003FC01FFFFFC0
003F800FFFFFC0
007F800FFFFFC0
007F0000003FC0
00FE0000003FC0
00FE0000003FC0
01FC0000003FC0
01FC0000003FC0
03F80000003FC0
07F80000003FC0
07F00000003FC0
07F00000000F80
07E00000000000
01E00000000000
ENDCHAR
STARTCHAR onehalf
ENCODING 189
SWIDTH 804 0
DWIDTH 60 0
BBX 52 61 4 -2
BITMAP
000000001C0000
001000001F0000
00FE00003F8000
01FE00007F8000
03FE00007F0000
07FF0000FF0000
0FFF0000FE0000
1FFF0001FE0000
3FFF0001FC0000
7FFF0003FC0000
FFFF0003F80000
FFFF0007F80000
FFFF0007F00000
FFFF000FF00000
7FFF000FE00000
3FFF001FE00000
01FF001FC00000
01FF003F800000
01FF003F800000
01FF007F000000
01FF00FF000000
01FF00FE000000
01FF01FE000000
01FF01FC000000
01FF03FC000000
01FF03F8000000
01FF07F8000000
01FF07F00FC000
01FF0FF07FF000
01FF0FE0FFFC00
01FE1FE1FFFE00
01FE1FC3FFFF00
00783FC7FFFF80
00003F87FFFF80
00007F0FFFFFC0
00007F0FFFFFC0
0000FE1FF87FC0
0000FE1FF03FC0
0001FC1FF03FE0
0003FC1FF03FE0
0003F81FF07FE0
0007F80FF07FC0
0007F00FE0FFC0
000FF00001FFC0
000FE00007FF80
001FE0001FFF80
001FC0007FFF00
003FC000FFFE00
003F8003FFF800
007F8007FFF000
007F000FFFFF80
00FE000FFFFFE0
00FE001FFFFFF0
01FC001FFFFFF0
01FC001FFFFFF0
03F8001FFFFFF0
07F8000FFFFFF0
07F0000FFFFFE0
07F00003FFFFE0
07E00000000000
01E00000000000
ENDCHAR
STARTCHAR threequarters
ENCODING 190
SWIDTH 842 0
DWIDTH 63 0
BBX 55 61 4 -2
BITMAP
0000000000C000
0018000001F000
01FF800003F800
07FFE00003F800
0FFFF00007F800
1FFFF80007F000
3FFFFC000FF000
3FFFFC000FE000
7FFFFE001FC000
7FEFFE001FC000
7F83FE003F8000
3F81FE007F8000
1F03FE007F0000
0603FE00FF0000
003FFC00FE0000
007FFC01FE0000
00FFF801FC0000
00FFFC03FC0000
00FFFC03F80000
007FFE07F80000
3C0FFF07F00000
FF01FF0FF00000
FF01FF0FE00000
FF01FF1FE00000
FF81FF1FC00000
FFC7FF3F800000
FFFFFE3F800000
7FFFFE7F020020
7FFFFCFF0FC1FC
3FFFF8FE1FE3FC
1FFFF9FE1FF3FE
0FFFE1FC1FF3FE
03FF83FC3FE3FE
001C03F83FE3FE
000007F83FE3FE
000007F03FE3FE
00000FF07FC3FE
00000FE07FC3FE
00001FE07FC3FE
00001FC07FC3FE
00003FC0FF83FE
00003F80FF83FE
00007F00FFFFFE
00007F00FFFFFE
0000FE00FFFFFE
0001FE01FFFFFE
0001FC01FFFFFE
0003FC01FFFFFE
0003F800FFFFFE
0007F8007FFFFE
0007F0000003FE
000FF0000003FE
000FE0000003FE
001FE0000003FE
001FC0000003FE
003FC0000003FE
003F80000003FE
007F80000003FC
007F00000000F8
003E0000000000
001E0000000000
ENDCHAR
STARTCHAR questiondown
ENCODING 191
SWIDTH 511 0
DWIDTH 38 0
BBX 35 57 2 -17
BITMAP
0003F00000
000FFE0000
001FFF0000
001FFF0000
001FFF0000
001FFF0000
001FFF8000
001FFF8000
001FFF8000
001FFF0000
001FFF0000
001FFF0000
000FFE0000
0007FC0000
0000000000
0000000000
0000000000
0000000000
0000000000
0000000000
0007F80000
000FFE0000
001FFE0000
001FFE0000
001FFE0000
007FFE0000
00FFFE0000
03FFFE0000
07FFFE0000
0FFFFE0000
1FFFFC0000
3FFFF80000
3FFFF00000
7FFFC00000
7FFE000000
FFFC000000
FFF8000000
FFF0003800
FFF000FF00
FFF000FF80
FFF001FFE0
FFF001FFE0
FFF001FFE0
FFF803FFE0
7FFF1FFFE0
7FFFFFFFC0
7FFFFFFFC0
3FFFFFFFC0
3FFFFFFF80
1FFFFFFF00
0FFFFFFF00
07FFFFFE00
03FFFFFC00
01FFFFF000
007FFFE000
001FFF0000
0000F80000
ENDCHAR
STARTCHAR Agrave
ENCODING 192
SWIDTH 765 0
DWIDTH 57 0
BBX 55 73 1 -1
BITMAP
00007800000000
0000FF80000000
0000FFF0000000
0001FFFE000000
0001FFFFC00000
0001FFFFF00000
0001FFFFF80000
0001FFFFF80000
0001FFFFF80000
0001FFFFF00000
00007FFFF00000
00000FFFF00000
000001FFE00000
0000003FE00000
00000007C00000
00000000000000
00000000000000
0000007C000000
000000FF000000
000003FF800000
000003FF800000
000007FFC00000
000007FFC00000
00000FFFE00000
00000FFFE00000
00001FFFF00000
00001FFFF00000
00003FFFF80000
00003FFFF80000
00007FFFFC0000
00007FFFFC0000
0000FFFFFE0000
0000FFFFFE0000
0000FFFFFF0000
0001FFFFFF0000
0001FFFFFF8000
0003FFFFFF8000
0003FFFFFFC000
0007FFFFFFC000
0007FFEFFFE000
000FFFEFFFE000
000FFFC7FFF000
001FFFC7FFF000
001FFF83FFF800
003FFF83FFF800
003FFF81FFFC00
007FFF01FFFC00
007FFF00FFFE00
00FFFE00FFFE00
00FFFFFFFFFF00
01FFFFFFFFFF00
01FFFFFFFFFF80
03FFFFFFFFFF80
03FFFFFFFFFF80
07FFFFFFFFFFC0
07FFFFFFFFFFC0
0FFFFFFFFFFFE0
0FFFFFFFFFFFE0
1FFFFFFFFFFFF0
1FFFFFFFFFFFF0
3FFF800003FFF8
3FFF800001FFF8
3FFF000001FFFC
7FFF000000FFFC
7FFE000000FFFE
FFFE0000007FFE
FFFC0000007FFE
FFFC0000003FFE
7FF80000003FFE
3FF80000001FFC
1FF00000001FF8
07E00000000FE0
00C00000000700
ENDCHAR
STARTCHAR Aacute
ENCODING 193
SWIDTH 765 0
DWIDTH 57 0
BBX 55 74 1 -1
BITMAP
000000003C0000
00000001FE0000
0000000FFF0000
0000007FFF0000
000003FFFF0000
00000FFFFF8000
00001FFFFF8000
00001FFFFF8000
00001FFFFF8000
00001FFFFF0000
00001FFFFE0000
00000FFFF00000
00000FFF800000
000007FC000000
000007C0000000
00000000000000
00000000000000
00000000000000
0000007C000000
000000FF000000
000003FF800000
000003FF800000
000007FFC00000
000007FFC00000
00000FFFE00000
00000FFFE00000
00001FFFF00000
00001FFFF00000
00003FFFF80000
00003FFFF80000
00007FFFFC0000
00007FFFFC0000
0000FFFFFE0000
0000FFFFFE0000
0000FFFFFF0000
0001FFFFFF0000
0001FFFFFF8000
0003FFFFFF8000
0003FFFFFFC000
0007FFFFFFC000
0007FFEFFFE000
000FFFEFFFE000
000FFFC7FFF000
001FFFC7FFF000
001FFF83FFF800
003FFF83FFF800
003FFF81FFFC00
007FFF01FFFC00
007FFF00FFFE00
00FFFE00FFFE00
00FFFFFFFFFF00
01FFFFFFFFFF00
01FFFFFFFFFF80
03FFFFFFFFFF80
03FFFFFFFFFF80
07FFFFFFFFFFC0
07FFFFFFFFFFC0
0FFFFFFFFFFFE0
0FFFFFFFFFFFE0
1FFFFFFFFFFFF0
1FFFFFFFFFFFF0
3FFF800003FFF8
3FFF800001FFF8
3FFF000001FFFC
7FFF000000FFFC
7FFE000000FFFE
FFFE0000007FFE
FFFC0000007FFE
FFFC0000003FFE
7FF80000003FFE
3FF80000001FFC
1FF00000001FF8
07E00000000FE0
00C00000000700
ENDCHAR
STARTCHAR Acircumflex
ENCODING 194
SWIDTH 765 0
DWIDTH 57 0
BBX 55 74 1 -1
BITMAP
0000007C000000
000003FF800000
00001FFFF00000
0000FFFFFE0000
0003FFFFFF8000
0007FFFFFFC000
0007FFFFFFE000
0007FFFFFFE000
0007FFFFFFE000
0007FFFFFFC000
0003FFFFFFC000
0003FFC3FF8000
0001FE00FF8000
0000F8003F0000
00000000000000
00000000000000
00000000000000
00000000000000
0000007C000000
000000FF000000
000003FF800000
000003FF800000
000007FFC00000
000007FFC00000
00000FFFE00000
00000FFFE00000
00001FFFF00000
00001FFFF00000
00003FFFF80000
00003FFFF80000
00007FFFFC0000
00007FFFFC0000
0000FFFFFE0000
0000FFFFFE0000
0000FFFFFF0000
0001FFFFFF0000
0001FFFFFF8000
0003FFFFFF8000
0003FFFFFFC000
0007FFFFFFC000
0007FFEFFFE000
000FFFEFFFE000
000FFFC7FFF000
001FFFC7FFF000
001FFF83FFF800
003FFF83FFF800
003FFF81FFFC00
007FFF01FFFC00
007FFF00FFFE00
00FFFE00FFFE00
00FFFFFFFFFF00
01FFFFFFFFFF00
01FFFFFFFFFF80
03FFFFFFFFFF80
03FFFFFFFFFF80
07FFFFFFFFFFC0
07FFFFFFFFFFC0
0FFFFFFFFFFFE0
0FFFFFFFFFFFE0
1FFFFFFFFFFFF0
1FFFFFFFFFFFF0
3FFF800003FFF8
3FFF800001FFF8
3FFF000001FFFC
7FFF000000FFFC
7FFE000000FFFE
FFFE0000007FFE
FFFC0000007FFE
FFFC0000003FFE
7FF80000003FFE
3FF80000001FFC
1FF00000001FF8
07E00000000FE0
00C00000000700
ENDCHAR
STARTCHAR Atilde
ENCODING 195
SWIDTH 765 0
DWIDTH 57 0
BBX 55 74 1 -1
BITMAP
00000FC00E0000
00003FF01F0000
00007FFC3FC000
0001FFFE7FC000
0001FFFFFFE000
0003FFFFFFE000
0007FFFFFFC000
0007FFFFFFC000
0007FFFFFF8000
0007FFFFFF0000
0007FC7FFE0000
0003F83FFC0000
0000F00FF80000
00006001800000
00000000000000
00000000000000
00000000000000
00000000000000
0000007C000000
000000FF000000
000003FF800000
000003FF800000
000007FFC00000
000007FFC00000
00000FFFE00000
00000FFFE00000
00001FFFF00000
00001FFFF00000
00003FFFF80000
00003FFFF80000
00007FFFFC0000
00007FFFFC0000
0000FFFFFE0000
0000FFFFFE0000
0000FFFFFF0000
0001FFFFFF0000
0001FFFFFF8000
0003FFFFFF8000
0003FFFFFFC000
0007FFFFFFC000
0007FFEFFFE000
000FFFEFFFE000
000FFFC7FFF000
001FFFC7FFF000
001FFF83FFF800
003FFF83FFF800
003FFF81FFFC00
007FFF01FFFC00
007FFF00FFFE00
00FFFE00FFFE00
00FFFFFFFFFF00
01FFFFFFFFFF00
01FFFFFFFFFF80
03FFFFFFFFFF80
03FFFFFFFFFF80
07FFFFFFFFFFC0
07FFFFFFFFFFC0
0FFFFFFFFFFFE0
0FFFFFFFFFFFE0
1FFFFFFFFFFFF0
1FFFFFFFFFFFF0
3FFF800003FFF8
3FFF800001FFF8
3FFF000001FFFC
7FFF000000FFFC
7FFE000000FFFE
FFFE0000007FFE
FFFC0000007FFE
FFFC0000003FFE
7FF80000003FFE
3FF80000001FFC
1FF00000001FF8
07E00000000FE0
00C00000000700
ENDCHAR
STARTCHAR Adieresis
ENCODING 196
SWIDTH 765 0
DWIDTH 57 0
BBX 55 74 1 -1
BITMAP
0003FC003FC000
000FFE00FFF000
000FFF00FFF000
001FFF00FFF800
001FFF01FFF800
001FFF01FFF800
001FFF81FFF800
001FFF01FFF800
001FFF01FFF800
001FFF01FFF800
001FFF00FFF000
000FFF00FFF000
0007FE007FE000
00000000000000
00000000000000
00000000000000
00000000000000
00000000000000
0000007C000000
000000FF000000
000003FF800000
000003FF800000
000007FFC00000
000007FFC00000
00000FFFE00000
00000FFFE00000
00001FFFF00000
00001FFFF00000
00003FFFF80000
00003FFFF80000
00007FFFFC0000
00007FFFFC0000
0000FFFFFE0000
0000FFFFFE0000
0000FFFFFF0000
0001FFFFFF0000
0001FFFFFF8000
0003FFFFFF8000
0003FFFFFFC000
0007FFFFFFC000
0007FFEFFFE000
000FFFEFFFE000
000FFFC7FFF000
001FFFC7FFF000
001FFF83FFF800
003FFF83FFF800
003FFF81FFFC00
007FFF01FFFC00
007FFF00FFFE00
00FFFE00FFFE00
00FFFFFFFFFF00
01FFFFFFFFFF00
01FFFFFFFFFF80
03FFFFFFFFFF80
03FFFFFFFFFF80
07FFFFFFFFFFC0
07FFFFFFFFFFC0
0FFFFFFFFFFFE0
0FFFFFFFFFFFE0
1FFFFFFFFFFFF0
1FFFFFFFFFFFF0
3FFF800003FFF8
3FFF800001FFF8
3FFF000001FFFC
7FFF000000FFFC
7FFE000000FFFE
FFFE0000007FFE
FFFC0000007FFE
FFFC0000003FFE
7FF80000003FFE
3FF80000001FFC
1FF00000001FF8
07E00000000FE0
00C00000000700
ENDCHAR
STARTCHAR Aring
ENCODING 197
SWIDTH 765 0
DWIDTH 57 0
BBX 55 70 1 -1
BITMAP
0000007E000000
000001FF800000
000007FFC00000
00000FFFE00000
00001FFFF00000
00001FC7F00000
00003F01F80000
00003F00F80000
00003E00F80000
00003E00F80000
00003E00F80000
00003E00F80000
00003F01F80000
00001F83F80000
00001FFFF00000
00000FFFE00000
000007FFE00000
000003FFC00000
000007FFC00000
000007FFC00000
00000FFFE00000
00000FFFE00000
00001FFFF00000
00001FFFF00000
00003FFFF80000
00003FFFF80000
00007FFFFC0000
00007FFFFC0000
00007FFFFE0000
0000FFFFFE0000
0000FFFFFF0000
0001FFFFFF0000
0001FFFFFF8000
0003FFFFFF8000
0003FFFFFFC000
0007FFFFFFC000
0007FFEFFFE000
000FFFEFFFE000
000FFFC7FFF000
001FFFC7FFF000
001FFF83FFF800
003FFF83FFF800
003FFF81FFFC00
007FFF01FFFC00
007FFF00FFFE00
00FFFE00FFFE00
00FFFFFFFFFF00
01FFFFFFFFFF00
01FFFFFFFFFF80
03FFFFFFFFFF80
03FFFFFFFFFF80
07FFFFFFFFFFC0
07FFFFFFFFFFC0
0FFFFFFFFFFFE0
0FFFFFFFFFFFE0
1FFFFFFFFFFFF0
1FFFFFFFFFFFF0
3FFF800003FFF8
3FFF800001FFF8
3FFF000001FFFC
7FFF000000FFFC
7FFE000000FFFE
FFFE0000007FFE
FFFC0000007FFE
FFFC0000003FFE
7FF80000003FFE
3FF80000001FFC
1FF00000001FF8
07E00000000FE0
00C00000000700
ENDCHAR
STARTCHAR AE
ENCODING 198
SWIDTH 1148 0
DWIDTH 86 0
BBX 84 56 0 -1
BITMAP
00000000003FFFFFFFFFC0
00000000007FFFFFFFFFE0
0000000000FFFFFFFFFFF0
0000000001FFFFFFFFFFF0
0000000003FFFFFFFFFFF0
0000000007FFFFFFFFFFF0
000000000FFFFFFFFFFFF0
000000001FFFFFFFFFFFF0
000000003FFFFFFFFFFFF0
000000007FFFFFFFFFFFF0
000000007FFFFFFFFFFFF0
00000000FFFFFFFFFFFFE0
00000001FFFFFFFFFFFFC0
00000003FFFFFE00000000
00000007FFFFFE00000000
0000000FFFFFFE00000000
0000001FFFFFFE00000000
0000003FFFFFFE00000000
0000007FFFFFFE00000000
000000FFFFFFFE00000000
000001FFFFFFFE00000000
000001FFFF7FFFFFFFC000
000003FFFF7FFFFFFFE000
000007FFFE7FFFFFFFE000
00000FFFFC7FFFFFFFF000
00001FFFF87FFFFFFFF000
00003FFFF07FFFFFFFF000
00007FFFE07FFFFFFFF000
0000FFFFC07FFFFFFFF000
0001FFFF807FFFFFFFF000
0003FFFF007FFFFFFFF000
0007FFFE007FFFFFFFE000
0007FFFC007FFFFFFFE000
000FFFFFFFFFFFFFFF8000
001FFFFFFFFFFE00000000
003FFFFFFFFFFE00000000
007FFFFFFFFFFE00000000
00FFFFFFFFFFFE00000000
01FFFFFFFFFFFE00000000
03FFFFFFFFFFFE00000000
07FFFFFFFFFFFE00000000
0FFFFFFFFFFFFE00000000
1FFFFFFFFFFFFFFFFFFFC0
1FFFFFFFFFFFFFFFFFFFE0
3FFFF000007FFFFFFFFFF0
7FFFE000007FFFFFFFFFF0
FFFFC000007FFFFFFFFFF0
FFFF8000007FFFFFFFFFF0
FFFF0000007FFFFFFFFFF0
FFFE0000003FFFFFFFFFF0
7FFC0000003FFFFFFFFFF0
7FF80000003FFFFFFFFFF0
3FF00000001FFFFFFFFFF0
1FE00000000FFFFFFFFFE0
0FC000000003FFFFFFFFC0
0300000000000000000000
ENDCHAR
STARTCHAR Ccedilla
ENCODING 199
SWIDTH 679 0
DWIDTH 51 0
BBX 47 70 2 -14
BITMAP
0000003E0000
000007FFF000
00003FFFFE00
0001FFFFFF80
0003FFFFFFE0
000FFFFFFFF0
003FFFFFFFF8
007FFFFFFFFC
00FFFFFFFFFE
01FFFFFFFFFE
03FFFFFFFFFE
07FFFFFFFFFE
0FFFFFFFFFFC
0FFFFFFFFFFC
1FFFFE007FF8
1FFFF8001FF0
3FFFE00007E0
3FFFC00001C0
7FFF80000000
7FFF00000000
7FFE00000000
7FFE00000000
FFFC00000000
FFFC00000000
FFFC00000000
FFF800000000
FFF800000000
FFF800000000
FFF800000000
FFF800000000
FFF800000000
FFF800000000
FFFC00000000
FFFC00000000
FFFC00000000
7FFE00000000
7FFE00000000
7FFF00000000
3FFF80000000
3FFFC00001C0
3FFFE00007E0
1FFFF8001FF0
1FFFFE007FF8
0FFFFFFFFFF8
07FFFFFFFFFC
07FFFFFFFFFE
03FFFFFFFFFE
01FFFFFFFFFE
00FFFFFFFFFE
007FFFFFFFFC
001FFFFFFFFC
000FFFFFFFF0
0003FFFFFFE0
0001FFFFFF80
00003FFFFE00
00000FFFF000
000003FF8000
000007FFC000
000007FFC000
000003FFE000
000003FFE000
00000187E000
00000007E000
000001C7E000
000003FFE000
000003FFE000
000007FFC000
000007FFC000
000003FF8000
000001FE0000
ENDCHAR
STARTCHAR Egrave
ENCODING 200
SWIDTH 638 0
DWIDTH 48 0
BBX 43 72 3 0
BITMAP
0003C0000000
0007F8000000
000FFF000000
000FFFE00000
000FFFFE0000
001FFFFF0000
001FFFFF8000
001FFFFF8000
001FFFFF8000
000FFFFF8000
0007FFFF8000
0000FFFF0000
00001FFF0000
000001FE0000
0000003E0000
000000000000
000000000000
1FFFFFFFFF00
7FFFFFFFFFC0
7FFFFFFFFFC0
FFFFFFFFFFE0
FFFFFFFFFFE0
FFFFFFFFFFE0
FFFFFFFFFFE0
FFFFFFFFFFE0
FFFFFFFFFFE0
FFFFFFFFFFE0
FFFFFFFFFFC0
FFFFFFFFFFC0
FFFFFFFFFF80
FFF800000000
FFF800000000
FFF800000000
FFF800000000
FFF800000000
FFF800000000
FFF800000000
FFF800000000
FFFFFFFF0000
FFFFFFFFC000
FFFFFFFFC000
FFFFFFFFC000
FFFFFFFFE000
FFFFFFFFE000
FFFFFFFFE000
FFFFFFFFE000
FFFFFFFFE000
FFFFFFFFC000
FFFFFFFFC000
FFFFFFFFC000
FFFFFFFF0000
FFF800000000
FFF800000000
FFF800000000
FFF800000000
FFF800000000
FFF800000000
FFF800000000
FFF800000000
FFFFFFFFFF80
FFFFFFFFFFC0
FFFFFFFFFFC0
FFFFFFFFFFE0
FFFFFFFFFFE0
FFFFFFFFFFE0
FFFFFFFFFFE0
FFFFFFFFFFE0
FFFFFFFFFFE0
FFFFFFFFFFE0
7FFFFFFFFFC0
7FFFFFFFFFC0
1FFFFFFFFF00
ENDCHAR
STARTCHAR Eacute
ENCODING 201
SWIDTH 638 0
DWIDTH 48 0
BBX 43 73 3 0
BITMAP
0000000E0000
000000FF0000
000007FF8000
00003FFF8000
0001FFFFC000
0007FFFFC000
000FFFFFC000
000FFFFFC000
000FFFFFC000
000FFFFF8000
0007FFFF0000
0007FFF80000
0007FFC00000
0003FE000000
0001F0000000
000000000000
000000000000
000000000000
1FFFFFFFFF00
7FFFFFFFFFC0
7FFFFFFFFFC0
FFFFFFFFFFE0
FFFFFFFFFFE0
FFFFFFFFFFE0
FFFFFFFFFFE0
FFFFFFFFFFE0
FFFFFFFFFFE0
FFFFFFFFFFE0
FFFFFFFFFFC0
FFFFFFFFFFC0
FFFFFFFFFF80
FFF800000000
FFF800000000
FFF800000000
FFF800000000
FFF800000000
FFF800000000
FFF800000000
FFF800000000
FFFFFFFF0000
FFFFFFFFC000
FFFFFFFFC000
FFFFFFFFC000
FFFFFFFFE000
FFFFFFFFE000
FFFFFFFFE000
FFFFFFFFE000
FFFFFFFFE000
FFFFFFFFC000
FFFFFFFFC000
FFFFFFFFC000
FFFFFFFF0000
FFF800000000
FFF800000000
FFF800000000
FFF800000000
FFF800000000
FFF800000000
FFF800000000
FFF800000000
FFFFFFFFFF80
FFFFFFFFFFC0
FFFFFFFFFFC0
FFFFFFFFFFE0
FFFFFFFFFFE0
FFFFFFFFFFE0
FFFFFFFFFFE0
FFFFFFFFFFE0
FFFFFFFFFFE0
FFFFFFFFFFE0
7FFFFFFFFFC0
7FFFFFFFFFC0
1FFFFFFFFF00
ENDCHAR
STARTCHAR Ecircumflex
ENCODING 202
SWIDTH 638 0
DWIDTH 48 0
BBX 43 73 3 0
BITMAP
00001F000000
0000FFE00000
0007FFFC0000
003FFFFF8000
00FFFFFFE000
01FFFFFFF000
03FFFFFFF000
03FFFFFFF000
03FFFFFFF000
01FFFFFFF000
01FFFFFFE000
00FFE1FFE000
00FF803FC000
003E000F8000
000000000000
000000000000
000000000000
000000000000
1FFFFFFFFF00
7FFFFFFFFFC0
7FFFFFFFFFC0
FFFFFFFFFFE0
FFFFFFFFFFE0
FFFFFFFFFFE0
FFFFFFFFFFE0
FFFFFFFFFFE0
FFFFFFFFFFE0
FFFFFFFFFFE0
FFFFFFFFFFC0
FFFFFFFFFFC0
FFFFFFFFFF80
FFF800000000
FFF800000000
FFF800000000
FFF800000000
FFF800000000
FFF800000000
FFF800000000
FFF800000000
FFFFFFFF0000
FFFFFFFFC000
FFFFFFFFC000
FFFFFFFFC000
FFFFFFFFE000
FFFFFFFFE000
FFFFFFFFE000
FFFFFFFFE000
FFFFFFFFE000
FFFFFFFFC000
FFFFFFFFC000
FFFFFFFFC000
FFFFFFFF0000
FFF800000000
FFF800000000
FFF800000000
FFF800000000
FFF800000000
FFF800000000
FFF800000000
FFF800000000
FFFFFFFFFF80
FFFFFFFFFFC0
FFFFFFFFFFC0
FFFFFFFFFFE0
FFFFFFFFFFE0
FFFFFFFFFFE0
FFFFFFFFFFE0
FFFFFFFFFFE0
FFFFFFFFFFE0
FFFFFFFFFFE0
7FFFFFFFFFC0
7FFFFFFFFFC0
1FFFFFFFFF00
ENDCHAR
STARTCHAR Edieresis
ENCODING 203
SWIDTH 638 0
DWIDTH 48 0
BBX 43 73 3 0
BITMAP
00FF000FF000
03FF803FF800
07FFC03FFC00
07FFC07FFC00
07FFC07FFC00
07FFC07FFE00
07FFC07FFE00
07FFC07FFE00
07FFC07FFE00
07FFC07FFC00
07FFC03FFC00
03FF803FFC00
01FF001FF800
000000000000
000000000000
000000000000
000000000000
000000000000
1FFFFFFFFF00
7FFFFFFFFFC0
7FFFFFFFFFC0
FFFFFFFFFFE0
FFFFFFFFFFE0
FFFFFFFFFFE0
FFFFFFFFFFE0
FFFFFFFFFFE0
FFFFFFFFFFE0
FFFFFFFFFFE0
FFFFFFFFFFC0
FFFFFFFFFFC0
FFFFFFFFFF80
FFF800000000
FFF800000000
FFF800000000
FFF800000000
FFF800000000
FFF800000000
FFF800000000
FFF800000000
FFFFFFFF0000
FFFFFFFFC000
FFFFFFFFC000
FFFFFFFFC000
FFFFFFFFE000
FFFFFFFFE000
FFFFFFFFE000
FFFFFFFFE000
FFFFFFFFE000
FFFFFFFFC000
FFFFFFFFC000
FFFFFFFFC000
FFFFFFFF0000
FFF800000000
FFF800000000
FFF800000000
FFF800000000
FFF800000000
FFF800000000
FFF800000000
FFF800000000
FFFFFFFFFF80
FFFFFFFFFFC0
FFFFFFFFFFC0
FFFFFFFFFFE0
FFFFFFFFFFE0
FFFFFFFFFFE0
FFFFFFFFFFE0
FFFFFFFFFFE0
FFFFFFFFFFE0
FFFFFFFFFFE0
7FFFFFFFFFC0
7FFFFFFFFFC0
1FFFFFFFFF00
ENDCHAR
STARTCHAR Igrave
ENCODING 204
SWIDTH 267 0
DWIDTH 20 0
BBX 22 72 -4 0
BITMAP
1E0000
3FC000
3FFC00
7FFF80
7FFFF0
7FFFFC
FFFFFC
FFFFFC
FFFFFC
7FFFFC
3FFFFC
03FFFC
007FF8
000FF8
0001F0
000000
000000
003FC0
007FE0
00FFF0
00FFF0
01FFF8
01FFF8
01FFF8
01FFF8
01FFF8
01FFF8
01FFF8
01FFF8
01FFF8
01FFF8
01FFF8
01FFF8
01FFF8
01FFF8
01FFF8
01FFF8
01FFF8
01FFF8
01FFF8
01FFF8
01FFF8
01FFF8
01FFF8
01FFF8
01FFF8
01FFF8
01FFF8
01FFF8
01FFF8
01FFF8
01FFF8
01FFF8
01FFF8
01FFF8
01FFF8
01FFF8
01FFF8
01FFF8
01FFF8
01FFF8
01FFF8
01FFF8
01FFF8
01FFF8
01FFF8
01FFF8
01FFF8
00FFF0
00FFF0
007FE0
003FC0
ENDCHAR
STARTCHAR Iacute
ENCODING 205
SWIDTH 269 0
DWIDTH 20 0
BBX 22 73 2 0
BITMAP
0001E0
000FF0
007FF0
03FFF8
3FFFF8
7FFFF8
FFFFFC
FFFFFC
FFFFFC
FFFFF8
FFFFF0
7FFF80
7FFC00
7FC000
3E0000
000000
000000
000000
0FF000
1FF800
3FFC00
3FFC00
7FFE00
7FFE00
7FFE00
7FFE00
7FFE00
7FFE00
7FFE00
7FFE00
7FFE00
7FFE00
7FFE00
7FFE00
7FFE00
7FFE00
7FFE00
7FFE00
7FFE00
7FFE00
7FFE00
7FFE00
7FFE00
7FFE00
7FFE00
7FFE00
7FFE00
7FFE00
7FFE00
7FFE00
7FFE00
7FFE00
7FFE00
7FFE00
7FFE00
7FFE00
7FFE00
7FFE00
7FFE00
7FFE00
7FFE00
7FFE00
7FFE00
7FFE00
7FFE00
7FFE00
7FFE00
7FFE00
3FFE00
3FFE00
3FFC00
1FFC00
0FF000
ENDCHAR
STARTCHAR Icircumflex
ENCODING 206
SWIDTH 270 0
DWIDTH 20 0
BBX 30 73 -5 0
BITMAP
00078000
003FF800
01FFFF00
0FFFFFE0
3FFFFFF8
7FFFFFFC
FFFFFFFC
FFFFFFFC
FFFFFFFC
7FFFFFFC
7FFFFFF8
3FF87FF8
3FE00FF0
0F0003E0
00000000
00000000
00000000
00000000
001FE000
003FF000
007FF800
007FF800
00FFFC00
00FFFC00
00FFFC00
00FFFC00
00FFFC00
00FFFC00
00FFFC00
00FFFC00
00FFFC00
00FFFC00
00FFFC00
00FFFC00
00FFFC00
00FFFC00
00FFFC00
00FFFC00
00FFFC00
00FFFC00
00FFFC00
00FFFC00
00FFFC00
00FFFC00
00FFFC00
00FFFC00
00FFFC00
00FFFC00
00FFFC00
00FFFC00
00FFFC00
00FFFC00
00FFFC00
00FFFC00
00FFFC00
00FFFC00
00FFFC00
00FFFC00
00FFFC00
00FFFC00
00FFFC00
00FFFC00
00FFFC00
00FFFC00
00FFFC00
00FFFC00
00FFFC00
00FFFC00
007FFC00
007FFC00
007FF800
003FF800
001FE000
ENDCHAR
STARTCHAR Idieresis
ENCODING 207
SWIDTH 268 0
DWIDTH 20 0
BBX 34 73 -7 0
BITMAP
1FE000FE00
3FF803FF80
7FF807FFC0
7FFC07FFC0
7FFC07FFC0
7FFC07FFC0
FFFC07FFC0
FFFC07FFC0
FFFC07FFC0
7FFC07FFC0
7FF807FFC0
7FF803FF80
3FF001FF00
0000000000
0000000000
0000000000
0000000000
0000000000
0003F80000
000FFE0000
001FFE0000
001FFF0000
001FFF0000
001FFF0000
001FFF0000
001FFF0000
001FFF0000
001FFF0000
001FFF0000
001FFF0000
001FFF0000
001FFF0000
001FFF0000
001FFF0000
001FFF0000
001FFF0000
001FFF0000
001FFF0000
001FFF0000
001FFF0000
001FFF0000
001FFF0000
001FFF0000
001FFF0000
001FFF0000
001FFF0000
001FFF0000
001FFF0000
001FFF0000
001FFF0000
001FFF0000
001FFF0000
001FFF0000
001FFF0000
001FFF0000
001FFF0000
001FFF0000
001FFF0000
001FFF0000
001FFF0000
001FFF0000
001FFF0000
001FFF0000
001FFF0000
001FFF0000
001FFF0000
001FFF0000
001FFF0000
001FFF0000
001FFF0000
001FFE0000
000FFE0000
0003F80000
ENDCHAR
STARTCHAR Eth
ENCODING 208
SWIDTH 775 0
DWIDTH 58 0
BBX 54 55 2 0
BITMAP
007FFFFF000000
01FFFFFFF00000
01FFFFFFFC0000
01FFFFFFFF0000
03FFFFFFFFC000
03FFFFFFFFE000
03FFFFFFFFF000
03FFFFFFFFFC00
03FFFFFFFFFE00
03FFFFFFFFFF00
03FFFFFFFFFF00
03FFFFFFFFFF80
03FFFFFFFFFFC0
03FFF007FFFFE0
03FFF000FFFFE0
03FFF0003FFFF0
03FFF0000FFFF0
03FFF00007FFF8
03FFF00003FFF8
03FFF00001FFF8
03FFF00001FFF8
03FFF00000FFFC
1FFFFE0000FFFC
7FFFFF8000FFFC
FFFFFFC0007FFC
FFFFFFC0007FFC
FFFFFFC0007FFC
FFFFFFC0007FFC
FFFFFFC0007FFC
FFFFFFC0007FFC
FFFFFFC0007FFC
7FFFFF8000FFFC
03FFF00000FFFC
03FFF00000FFFC
03FFF00001FFF8
03FFF00001FFF8
03FFF00003FFF8
03FFF00007FFF0
03FFF0000FFFF0
03FFF0003FFFE0
03FFF000FFFFE0
03FFF007FFFFC0
03FFFFFFFFFFC0
03FFFFFFFFFF80
03FFFFFFFFFF00
03FFFFFFFFFE00
03FFFFFFFFFC00
03FFFFFFFFF800
03FFFFFFFFF000
03FFFFFFFFE000
03FFFFFFFFC000
01FFFFFFFF0000
01FFFFFFFC0000
00FFFFFFF00000
003FFFFF000000
ENDCHAR
STARTCHAR Ntilde
ENCODING 209
SWIDTH 720 0
DWIDTH 54 0
BBX 48 73 3 0
BITMAP
0000FE00E000
0003FF81F800
0007FFC3FC00
000FFFE7FE00
001FFFFFFE00
003FFFFFFE00
003FFFFFFE00
007FFFFFFC00
007FFFFFF800
007FFFFFF800
003FC7FFF000
001F83FFE000
000F00FF8000
0002000C0000
000000000000
000000000000
000000000000
000000000000
1FC0000003F8
7FF000000FFE
7FF800001FFE
FFFC00001FFF
FFFC00001FFF
FFFE00001FFF
FFFF00001FFF
FFFF80001FFF
FFFF80001FFF
FFFFC0001FFF
FFFFE0001FFF
FFFFF0001FFF
FFFFF0001FFF
FFFFF8001FFF
FFFFFC001FFF
FFFFFE001FFF
FFFFFE001FFF
FFFFFF001FFF
FFFFFF801FFF
FFFFFFC01FFF
FFFFFFC01FFF
FFFFFFE01FFF
FFFFFFF01FFF
FFFFFFF81FFF
FFFBFFF81FFF
FFF9FFFC1FFF
FFF9FFFE1FFF
FFF8FFFF1FFF
FFF87FFF1FFF
FFF83FFF9FFF
FFF83FFFDFFF
FFF81FFFFFFF
FFF80FFFFFFF
FFF807FFFFFF
FFF807FFFFFF
FFF803FFFFFF
FFF801FFFFFF
FFF800FFFFFF
FFF800FFFFFF
FFF8007FFFFF
FFF8003FFFFF
FFF8001FFFFF
FFF8001FFFFF
FFF8000FFFFF
FFF80007FFFF
FFF80003FFFF
FFF80003FFFF
FFF80001FFFF
FFF80000FFFF
FFF800007FFF
FFF800007FFF
FFF800003FFF
7FF800001FFE
7FF000000FFE
1FC0000007F8
ENDCHAR
STARTCHAR Ograve
ENCODING 210
SWIDTH 775 0
DWIDTH 58 0
BBX 54 73 2 -1
BITMAP
00007800000000
0000FF00000000
0000FFE0000000
0001FFFE000000
0001FFFFC00000
0001FFFFF00000
0003FFFFF00000
0003FFFFF00000
0003FFFFF00000
0001FFFFF00000
0000FFFFF00000
00000FFFF00000
000001FFE00000
0000003FE00000
00000007C00000
00000000000000
000000FC000000
00001FFFE00000
00007FFFFC0000
0001FFFFFF0000
0007FFFFFF8000
001FFFFFFFE000
003FFFFFFFF000
007FFFFFFFF800
00FFFFFFFFFC00
01FFFFFFFFFE00
03FFFFFFFFFF00
07FFFFFFFFFF80
07FFFFFFFFFFC0
0FFFFFFFFFFFC0
1FFFFC00FFFFE0
1FFFF0003FFFE0
3FFFE0001FFFF0
3FFFC0000FFFF0
3FFF800007FFF8
7FFF000003FFF8
7FFE000001FFF8
7FFE000001FFF8
7FFC000000FFFC
FFFC000000FFFC
FFFC000000FFFC
FFF80000007FFC
FFF80000007FFC
FFF80000007FFC
FFF80000007FFC
FFF80000007FFC
FFF80000007FFC
FFF80000007FFC
FFFC0000007FFC
FFFC000000FFFC
FFFC000000FFFC
7FFE000000FFF8
7FFE000001FFF8
7FFF000003FFF8
7FFF800003FFF8
3FFFC00007FFF0
3FFFE0000FFFF0
1FFFF0003FFFE0
1FFFFC00FFFFE0
0FFFFFCFFFFFC0
0FFFFFFFFFFFC0
07FFFFFFFFFF80
03FFFFFFFFFF00
01FFFFFFFFFE00
00FFFFFFFFFE00
007FFFFFFFFC00
003FFFFFFFF000
001FFFFFFFE000
000FFFFFFFC000
0003FFFFFF0000
0000FFFFFC0000
00003FFFF00000
000001FF000000
ENDCHAR
STARTCHAR Oacute
ENCODING 211
SWIDTH 775 0
DWIDTH 58 0
BBX 54 74 2 -1
BITMAP
00000000780000
00000003FC0000
0000001FFC0000
000001FFFE0000
00000FFFFE0000
00003FFFFE0000
00003FFFFF0000
00003FFFFF0000
00003FFFFF0000
00003FFFFE0000
00003FFFFC0000
00003FFFE00000
00001FFE000000
00001FF0000000
00000F80000000
00000000000000
00000000000000
000000FC000000
00001FFFE00000
00007FFFFC0000
0001FFFFFF0000
0007FFFFFF8000
001FFFFFFFE000
003FFFFFFFF000
007FFFFFFFF800
00FFFFFFFFFC00
01FFFFFFFFFE00
03FFFFFFFFFF00
07FFFFFFFFFF80
07FFFFFFFFFFC0
0FFFFFFFFFFFC0
1FFFFC00FFFFE0
1FFFF0003FFFE0
3FFFE0001FFFF0
3FFFC0000FFFF0
3FFF800007FFF8
7FFF000003FFF8
7FFE000001FFF8
7FFE000001FFF8
7FFC000000FFFC
FFFC000000FFFC
FFFC000000FFFC
FFF80000007FFC
FFF80000007FFC
FFF80000007FFC
FFF80000007FFC
FFF80000007FFC
FFF80000007FFC
FFF80000007FFC
FFFC0000007FFC
FFFC000000FFFC
FFFC000000FFFC
7FFE000000FFF8
7FFE000001FFF8
7FFF000003FFF8
7FFF800003FFF8
3FFFC00007FFF0
3FFFE0000FFFF0
1FFFF0003FFFE0
1FFFFC00FFFFE0
0FFFFFCFFFFFC0
0FFFFFFFFFFFC0
07FFFFFFFFFF80
03FFFFFFFFFF00
01FFFFFFFFFE00
00FFFFFFFFFE00
007FFFFFFFFC00
003FFFFFFFF000
001FFFFFFFE000
000FFFFFFFC000
0003FFFFFF0000
0000FFFFFC0000
00003FFFF00000
000001FF000000
ENDCHAR
STARTCHAR Ocircumflex
ENCODING 212
SWIDTH 775 0
DWIDTH 58 0
BBX 54 74 2 -1
BITMAP
0000007C000000
000003FF800000
00001FFFF00000
0000FFFFFE0000
0003FFFFFF8000
0007FFFFFFC000
000FFFFFFFC000
000FFFFFFFC000
000FFFFFFFC000
0007FFFFFFC000
0007FFFFFF8000
0003FF87FF8000
0003FE00FF0000
0000F8003E0000
00000000000000
00000000000000
00000000000000
000000FC000000
00001FFFE00000
00007FFFFC0000
0001FFFFFF0000
0007FFFFFF8000
001FFFFFFFE000
003FFFFFFFF000
007FFFFFFFF800
00FFFFFFFFFC00
01FFFFFFFFFE00
03FFFFFFFFFF00
07FFFFFFFFFF80
07FFFFFFFFFFC0
0FFFFFFFFFFFC0
1FFFFC00FFFFE0
1FFFF0003FFFE0
3FFFE0001FFFF0
3FFFC0000FFFF0
3FFF800007FFF8
7FFF000003FFF8
7FFE000001FFF8
7FFE000001FFF8
7FFC000000FFFC
FFFC000000FFFC
FFFC000000FFFC
FFF80000007FFC
FFF80000007FFC
FFF80000007FFC
FFF80000007FFC
FFF80000007FFC
FFF80000007FFC
FFF80000007FFC
FFFC0000007FFC
FFFC000000FFFC
FFFC000000FFFC
7FFE000000FFF8
7FFE000001FFF8
7FFF000003FFF8
7FFF800003FFF8
3FFFC00007FFF0
3FFFE0000FFFF0
1FFFF0003FFFE0
1FFFFC00FFFFE0
0FFFFFCFFFFFC0
0FFFFFFFFFFFC0
07FFFFFFFFFF80
03FFFFFFFFFF00
01FFFFFFFFFE00
00FFFFFFFFFE00
007FFFFFFFFC00
003FFFFFFFF000
001FFFFFFFE000
000FFFFFFFC000
0003FFFFFF0000
0000FFFFFC0000
00003FFFF00000
000001FF000000
ENDCHAR
STARTCHAR Otilde
ENCODING 213
SWIDTH 775 0
DWIDTH 58 0
BBX 54 74 2 -1
BITMAP
000007E0070000
00001FF80F8000
00003FFE1FE000
00007FFF3FE000
0000FFFFFFF000
0001FFFFFFF000
0003FFFFFFE000
0003FFFFFFE000
0003FFFFFFC000
0003FFFFFF8000
0003FE3FFF0000
0001FC1FFE0000
00007807FC0000
00001000E00000
00000000000000
00000000000000
00000000000000
000000FC000000
00001FFFE00000
00007FFFFC0000
0001FFFFFF0000
0007FFFFFF8000
001FFFFFFFE000
003FFFFFFFF000
007FFFFFFFF800
00FFFFFFFFFC00
01FFFFFFFFFE00
03FFFFFFFFFF00
07FFFFFFFFFF80
07FFFFFFFFFFC0
0FFFFFFFFFFFC0
1FFFFC00FFFFE0
1FFFF0003FFFE0
3FFFE0001FFFF0
3FFFC0000FFFF0
3FFF800007FFF8
7FFF000003FFF8
7FFE000001FFF8
7FFE000001FFF8
7FFC000000FFFC
FFFC000000FFFC
FFFC000000FFFC
FFF80000007FFC
FFF80000007FFC
FFF80000007FFC
FFF80000007FFC
FFF80000007FFC
FFF80000007FFC
FFF80000007FFC
FFFC0000007FFC
FFFC000000FFFC
FFFC000000FFFC
7FFE000000FFF8
7FFE000001FFF8
7FFF000003FFF8
7FFF800003FFF8
3FFFC00007FFF0
3FFFE0000FFFF0
1FFFF0003FFFE0
1FFFFC00FFFFE0
0FFFFFCFFFFFC0
0FFFFFFFFFFFC0
07FFFFFFFFFF80
03FFFFFFFFFF00
01FFFFFFFFFE00
00FFFFFFFFFE00
007FFFFFFFFC00
003FFFFFFFF000
001FFFFFFFE000
000FFFFFFFC000
0003FFFFFF0000
0000FFFFFC0000
00003FFFF00000
000001FF000000
ENDCHAR
STARTCHAR Odieresis
ENCODING 214
SWIDTH 775 0
DWIDTH 58 0
BBX 54 74 2 -1
BITMAP
0007F8007F8000
001FFC01FFC000
001FFE01FFE000
003FFE03FFE000
003FFE03FFF000
003FFE03FFF000
003FFE03FFF000
003FFE03FFF000
003FFE03FFF000
003FFE03FFE000
003FFE01FFE000
001FFC01FFE000
000FF800FFC000
00000000000000
00000000000000
00000000000000
00000000000000
000000FC000000
00001FFFE00000
00007FFFFC0000
0001FFFFFF0000
0007FFFFFF8000
001FFFFFFFE000
003FFFFFFFF000
007FFFFFFFF800
00FFFFFFFFFC00
01FFFFFFFFFE00
03FFFFFFFFFF00
07FFFFFFFFFF80
07FFFFFFFFFFC0
0FFFFFFFFFFFC0
1FFFFC00FFFFE0
1FFFF0003FFFE0
3FFFE0001FFFF0
3FFFC0000FFFF0
3FFF800007FFF8
7FFF000003FFF8
7FFE000001FFF8
7FFE000001FFF8
7FFC000000FFFC
FFFC000000FFFC
FFFC000000FFFC
FFF80000007FFC
FFF80000007FFC
FFF80000007FFC
FFF80000007FFC
FFF80000007FFC
FFF80000007FFC
FFF80000007FFC
FFFC0000007FFC
FFFC000000FFFC
FFFC000000FFFC
7FFE000000FFF8
7FFE000001FFF8
7FFF000003FFF8
7FFF800003FFF8
3FFFC00007FFF0
3FFFE0000FFFF0
1FFFF0003FFFE0
1FFFFC00FFFFE0
0FFFFFCFFFFFC0
0FFFFFFFFFFFC0
07FFFFFFFFFF80
03FFFFFFFFFF00
01FFFFFFFFFE00
00FFFFFFFFFE00
007FFFFFFFFC00
003FFFFFFFF000
001FFFFFFFE000
000FFFFFFFC000
0003FFFFFF0000
0000FFFFFC0000
00003FFFF00000
000001FF000000
ENDCHAR
STARTCHAR multiply
ENCODING 215
SWIDTH 521 0
DWIDTH 39 0
BBX 35 35 2 2
BITMAP
0F80003E00
1FC0007F00
3FE000FF80
7FF001FFC0
FFF803FFE0
FFFC07FFE0
FFFE0FFFE0
FFFF1FFFE0
7FFFBFFFC0
3FFFFFFF80
1FFFFFFF80
0FFFFFFF00
07FFFFFE00
03FFFFFC00
01FFFFF800
00FFFFF000
007FFFE000
007FFFC000
00FFFFE000
01FFFFF000
03FFFFF800
07FFFFFC00
0FFFFFFE00
1FFFFFFF00
3FFFFFFF80
7FFFBFFFC0
FFFF1FFFE0
FFFE0FFFE0
FFFC07FFE0
FFFC03FFE0
7FF801FFC0
7FF000FFC0
3FE0007F80
1F80003F00
0700001C00
ENDCHAR
STARTCHAR Oslash
ENCODING 216
SWIDTH 775 0
DWIDTH 58 0
BBX 54 63 2 -4
BITMAP
00000000060000
000000001FC000
000000001FF000
000000FC3FF800
00001FFFFFFC00
00007FFFFFFC00
0001FFFFFFFC00
0007FFFFFFFC00
001FFFFFFFFC00
003FFFFFFFF800
007FFFFFFFF800
00FFFFFFFFFC00
01FFFFFFFFFE00
03FFFFFFFFFF00
07FFFFFFFFFF80
07FFFFFFFFFFC0
0FFFFFFFFFFFC0
1FFFFC0FFFFFE0
1FFFF01FFFFFE0
3FFFE01FFFFFF0
3FFFC03FFFFFF0
3FFF803FFFFFF8
7FFF007FFFFFF8
7FFE007FFDFFF8
7FFE00FFFDFFF8
7FFC00FFF8FFFC
FFFC01FFF8FFFC
FFFC01FFF8FFFC
FFF803FFF07FFC
FFF803FFF07FFC
FFF807FFE07FFC
FFF807FFE07FFC
FFF80FFFC07FFC
FFF80FFFC07FFC
FFF81FFF807FFC
FFFC1FFF807FFC
FFFC3FFF00FFFC
FFFC3FFF00FFFC
7FFE7FFE00FFF8
7FFE7FFE01FFF8
7FFF7FFC03FFF8
7FFFFFFC03FFF8
3FFFFFF807FFF0
3FFFFFF80FFFF0
1FFFFFF03FFFE0
1FFFFFF0FFFFE0
0FFFFFEFFFFFC0
0FFFFFFFFFFFC0
07FFFFFFFFFF80
03FFFFFFFFFF00
01FFFFFFFFFE00
00FFFFFFFFFE00
007FFFFFFFFC00
003FFFFFFFF000
003FFFFFFFE000
003FFFFFFFC000
007FFFFFFF0000
007FFFFFFC0000
007FFFFFF00000
007FF9FF000000
003FF800000000
000FF000000000
0003E000000000
ENDCHAR
STARTCHAR Ugrave
ENCODING 217
SWIDTH 726 0
DWIDTH 54 0
BBX 48 73 3 -1
BITMAP
000F00000000
001FE0000000
003FFC000000
003FFF800000
007FFFF00000
007FFFFC0000
007FFFFE0000
007FFFFE0000
007FFFFE0000
003FFFFE0000
001FFFFE0000
0003FFFC0000
00007FFC0000
00000FF80000
000000F80000
000000000000
000000000000
1FE0000003FC
7FF000000FFE
7FF800000FFF
FFF800001FFF
FFF800001FFF
FFF800001FFF
FFF800001FFF
FFF800001FFF
FFF800001FFF
FFF800001FFF
FFF800001FFF
FFF800001FFF
FFF800001FFF
FFF800001FFF
FFF800001FFF
FFF800001FFF
FFF800001FFF
FFF800001FFF
FFF800001FFF
FFF800001FFF
FFF800001FFF
FFF800001FFF
FFF800001FFF
FFF800001FFF
FFF800001FFF
FFF800001FFF
FFF800001FFF
FFF800001FFF
FFF800001FFF
FFF800001FFF
FFF800001FFF
FFF800001FFF
FFFC00001FFF
FFFC00001FFF
FFFC00003FFF
7FFC00003FFF
7FFE00003FFF
7FFE00007FFE
7FFF0000FFFE
3FFF8000FFFE
3FFFC001FFFC
1FFFE007FFFC
1FFFFF7FFFF8
0FFFFFFFFFF8
0FFFFFFFFFF0
07FFFFFFFFF0
03FFFFFFFFE0
03FFFFFFFFC0
01FFFFFFFF80
00FFFFFFFF00
007FFFFFFE00
003FFFFFFC00
000FFFFFF000
0003FFFFE000
0000FFFF0000
00000FF00000
ENDCHAR
STARTCHAR Uacute
ENCODING 218
SWIDTH 726 0
DWIDTH 54 0
BBX 48 74 3 -1
BITMAP
00000000F000
00000007F800
0000003FF800
000003FFFC00
00001FFFFC00
00007FFFFC00
00007FFFFE00
00007FFFFE00
00007FFFFE00
00007FFFFC00
00007FFFF800
00007FFFC000
00003FFC0000
00003FE00000
00001F000000
000000000000
000000000000
000000000000
1FE0000003FC
7FF000000FFE
7FF800000FFF
FFF800001FFF
FFF800001FFF
FFF800001FFF
FFF800001FFF
FFF800001FFF
FFF800001FFF
FFF800001FFF
FFF800001FFF
FFF800001FFF
FFF800001FFF
FFF800001FFF
FFF800001FFF
FFF800001FFF
FFF800001FFF
FFF800001FFF
FFF800001FFF
FFF800001FFF
FFF800001FFF
FFF800001FFF
FFF800001FFF
FFF800001FFF
FFF800001FFF
FFF800001FFF
FFF800001FFF
FFF800001FFF
FFF800001FFF
FFF800001FFF
FFF800001FFF
FFF800001FFF
FFFC00001FFF
FFFC00001FFF
FFFC00003FFF
7FFC00003FFF
7FFE00003FFF
7FFE00007FFE
7FFF0000FFFE
3FFF8000FFFE
3FFFC001FFFC
1FFFE007FFFC
1FFFFF7FFFF8
0FFFFFFFFFF8
0FFFFFFFFFF0
07FFFFFFFFF0
03FFFFFFFFE0
03FFFFFFFFC0
01FFFFFFFF80
00FFFFFFFF00
007FFFFFFE00
003FFFFFFC00
000FFFFFF000
0003FFFFE000
0000FFFF0000
00000FF00000
ENDCHAR
STARTCHAR Ucircumflex
ENCODING 219
SWIDTH 726 0
DWIDTH 54 0
BBX 48 74 3 -1
BITMAP
000001F00000
00000FFE0000
00007FFFC000
0003FFFFF800
000FFFFFFE00
001FFFFFFF00
003FFFFFFF00
003FFFFFFF00
003FFFFFFF00
001FFFFFFF00
001FFFFFFE00
000FFE1FFE00
000FF803FC00
0003E000F800
000000000000
000000000000
000000000000
000000000000
1FE0000003FC
7FF000000FFE
7FF800000FFF
FFF800001FFF
FFF800001FFF
FFF800001FFF
FFF800001FFF
FFF800001FFF
FFF800001FFF
FFF800001FFF
FFF800001FFF
FFF800001FFF
FFF800001FFF
FFF800001FFF
FFF800001FFF
FFF800001FFF
FFF800001FFF
FFF800001FFF
FFF800001FFF
FFF800001FFF
FFF800001FFF
FFF800001FFF
FFF800001FFF
FFF800001FFF
FFF800001FFF
FFF800001FFF
FFF800001FFF
FFF800001FFF
FFF800001FFF
FFF800001FFF
FFF800001FFF
FFF800001FFF
FFFC00001FFF
FFFC00001FFF
FFFC00003FFF
7FFC00003FFF
7FFE00003FFF
7FFE00007FFE
7FFF0000FFFE
3FFF8000FFFE
3FFFC001FFFC
1FFFE007FFFC
1FFFFF7FFFF8
0FFFFFFFFFF8
0FFFFFFFFFF0
07FFFFFFFFF0
03FFFFFFFFE0
03FFFFFFFFC0
01FFFFFFFF80
00FFFFFFFF00
007FFFFFFE00
003FFFFFFC00
000FFFFFF000
0003FFFFE000
0000FFFF0000
00000FF00000
ENDCHAR
STARTCHAR Udieresis
ENCODING 220
SWIDTH 726 0
DWIDTH 54 0
BBX 48 74 3 -1
BITMAP
003FC001FC00
007FF007FF00
00FFF00FFF00
00FFF80FFF80
00FFF80FFF80
01FFF80FFF80
01FFF80FFF80
01FFF80FFF80
01FFF80FFF80
00FFF80FFF80
00FFF00FFF80
00FFF007FF00
007FE003FE00
000000000000
000000000000
000000000000
000000000000
000000000000
1FE0000003FC
7FF000000FFE
7FF800000FFF
FFF800001FFF
FFF800001FFF
FFF800001FFF
FFF800001FFF
FFF800001FFF
FFF800001FFF
FFF800001FFF
FFF800001FFF
FFF800001FFF
FFF800001FFF
FFF800001FFF
FFF800001FFF
FFF800001FFF
FFF800001FFF
FFF800001FFF
FFF800001FFF
FFF800001FFF
FFF800001FFF
FFF800001FFF
FFF800001FFF
FFF800001FFF
FFF800001FFF
FFF800001FFF
FFF800001FFF
FFF800001FFF
FFF800001FFF
FFF800001FFF
FFF800001FFF
FFF800001FFF
FFFC00001FFF
FFFC00001FFF
FFFC00003FFF
7FFC00003FFF
7FFE00003FFF
7FFE00007FFE
7FFF0000FFFE
3FFF8000FFFE
3FFFC001FFFC
1FFFE007FFFC
1FFFFF7FFFF8
0FFFFFFFFFF8
0FFFFFFFFFF0
07FFFFFFFFF0
03FFFFFFFFE0
03FFFFFFFFC0
01FFFFFFFF80
00FFFFFFFF00
007FFFFFFE00
003FFFFFFC00
000FFFFFF000
0003FFFFE000
0000FFFF0000
00000FF00000
ENDCHAR
STARTCHAR Yacute
ENCODING 221
SWIDTH 686 0
DWIDTH 51 0
BBX 49 73 1 0
BITMAP
00000001C00000
0000001FE00000
000000FFF00000
000007FFF00000
00003FFFF80000
0000FFFFF80000
0001FFFFF80000
0001FFFFF80000
0001FFFFF80000
0001FFFFF80000
0000FFFFE00000
0000FFFF000000
0000FFF8000000
00007FC0000000
00003E00000000
00000000000000
00000000000000
01C0000000C000
07E0000003F800
1FF0000007FC00
3FF8000007FE00
7FF800000FFF00
FFFC00001FFF80
FFFE00001FFF80
FFFE00003FFF80
FFFF00007FFF80
7FFF80007FFF00
7FFF8000FFFF00
3FFFC000FFFE00
1FFFC001FFFE00
0FFFE003FFFC00
0FFFF003FFF800
07FFF007FFF800
03FFF80FFFF000
03FFFC0FFFE000
01FFFC1FFFE000
00FFFE1FFFC000
00FFFE3FFF8000
007FFF7FFF8000
003FFFFFFF0000
003FFFFFFE0000
001FFFFFFE0000
000FFFFFFC0000
000FFFFFF80000
0007FFFFF80000
0003FFFFF00000
0003FFFFE00000
0001FFFFE00000
0000FFFFC00000
0000FFFF800000
00007FFF800000
00003FFF000000
00003FFE000000
00003FFE000000
00003FFE000000
00003FFE000000
00003FFE000000
00003FFE000000
00003FFE000000
00003FFE000000
00003FFE000000
00003FFE000000
00003FFE000000
00003FFE000000
00003FFE000000
00003FFE000000
00003FFE000000
00003FFE000000
00003FFE000000
00003FFE000000
00001FFE000000
00001FFC000000
00000FF8000000
ENDCHAR
STARTCHAR Thorn
ENCODING 222
SWIDTH 634 0
DWIDTH 48 0
BBX 43 55 3 0
BITMAP
1FC000000000
7FF000000000
7FF800000000
FFF800000000
FFF800000000
FFF800000000
FFF800000000
FFF800000000
FFFFFFF00000
FFFFFFFE0000
FFFFFFFF8000
FFFFFFFFC000
FFFFFFFFF000
FFFFFFFFF800
FFFFFFFFFC00
FFFFFFFFFE00
FFFFFFFFFE00
FFFFFFFFFF00
FFFFFFFFFF00
FFFFFFFFFF80
FFFFFFFFFF80
FFF8007FFFC0
FFF8001FFFC0
FFF8000FFFC0
FFF80007FFC0
FFF80007FFC0
FFF80007FFE0
FFF80007FFE0
FFF80007FFE0
FFF80007FFC0
FFF80007FFC0
FFF8000FFFC0
FFF8001FFFC0
FFF8003FFFC0
FFFFFFFFFF80
FFFFFFFFFF80
FFFFFFFFFF80
FFFFFFFFFF00
FFFFFFFFFE00
FFFFFFFFFE00
FFFFFFFFFC00
FFFFFFFFF800
FFFFFFFFF000
FFFFFFFFC000
FFFFFFFF8000
FFFFFFFE0000
FFFFFFF00000
FFF800000000
FFF800000000
FFF800000000
FFF800000000
FFF800000000
7FF800000000
7FF000000000
1FC000000000
ENDCHAR
STARTCHAR germandbls
ENCODING 223
SWIDTH 633 0
DWIDTH 47 0
BBX 43 58 3 -2
BITMAP
000FFFF00000
007FFFFE0000
03FFFFFF0000
07FFFFFF8000
0FFFFFFFC000
1FFFFFFFE000
3FFFFFFFE000
7FFFFFFFF000
7FFFFFFFF000
7FFFFFFFF000
7FFFFFFFF000
FFFE01FFF000
FFFC01FFF000
FFFC01FFF000
FFF801FFE000
FFF803FFE000
FFF807FFE000
FFF80FFFC000
FFF80FFF8000
FFF81FFF8000
FFF81FFF0000
FFF83FFE0000
FFF83FFC0000
FFF83FFC0000
FFF83FFC0000
FFF83FFC0000
FFF83FFE0000
FFF83FFF0000
FFF83FFF8000
FFF81FFFE000
FFF81FFFF000
FFF80FFFF800
FFF807FFFE00
FFF803FFFE00
FFF801FFFF00
FFF800FFFF80
FFF8003FFF80
FFF8001FFFC0
FFF80007FFC0
FFF80003FFC0
FFF80003FFC0
FFF80003FFE0
FFF80003FFE0
FFF81E03FFE0
FFF83FC7FFE0
FFF83FFFFFC0
FFF87FFFFFC0
FFF87FFFFFC0
FFF87FFFFFC0
FFF87FFFFF80
FFF87FFFFF80
FFF87FFFFF00
FFF87FFFFF00
FFF87FFFFC00
FFF81FFFF800
FFF803FFC000
7FF000000000
3FE000000000
ENDCHAR
STARTCHAR agrave
ENCODING 224
SWIDTH 596 0
DWIDTH 45 0
BBX 40 58 2 0
BITMAP
0007800000
000FF00000
000FFE0000
001FFFE000
001FFFFC00
001FFFFF00
003FFFFF00
003FFFFF00
003FFFFF00
001FFFFF00
000FFFFF00
0001FFFF00
00001FFE00
000003FE00
0000007C00
0000000000
0000000000
0000000000
0000000080
0007FE0FFC
003FFF1FFE
007FFFDFFE
00FFFFFFFF
03FFFFFFFF
07FFFFFFFF
0FFFFFFFFF
0FFFFFFFFF
1FFFFFFFFF
3FFFFFFFFF
3FFFFFFFFF
7FFFFFFFFF
7FFFFFFFFF
7FFF01FFFF
FFFE00FFFF
FFFC007FFF
FFFC007FFF
FFF8003FFF
FFF8003FFF
FFF8003FFF
FFF8003FFF
FFF8003FFF
FFFC007FFF
FFFE00FFFF
7FFF01FFFF
7FFFC7FFFF
7FFFFFFFFF
3FFFFFFFFF
3FFFFFFFFF
1FFFFFFFFF
1FFFFFFFFF
0FFFFFFFFF
07FFFFFFFF
03FFFFFFFF
01FFFFFFFF
00FFFFDFFE
003FFF9FFE
001FFF0FFE
0003F803F0
ENDCHAR
STARTCHAR aacute
ENCODING 225
SWIDTH 596 0
DWIDTH 45 0
BBX 40 58 2 0
BITMAP
0000001E00
000000FF00
00000FFF00
00007FFF00
0003FFFF80
000FFFFF80
000FFFFF80
001FFFFF80
001FFFFF80
000FFFFF80
000FFFFE00
000FFFF000
0007FF8000
0007FC0000
0003E00000
0000000000
0000000000
0000000000
0000000080
0007FE0FFC
003FFF1FFE
007FFFDFFE
00FFFFFFFF
03FFFFFFFF
07FFFFFFFF
0FFFFFFFFF
0FFFFFFFFF
1FFFFFFFFF
3FFFFFFFFF
3FFFFFFFFF
7FFFFFFFFF
7FFFFFFFFF
7FFF01FFFF
FFFE00FFFF
FFFC007FFF
FFFC007FFF
FFF8003FFF
FFF8003FFF
FFF8003FFF
FFF8003FFF
FFF8003FFF
FFFC007FFF
FFFE00FFFF
7FFF01FFFF
7FFFC7FFFF
7FFFFFFFFF
3FFFFFFFFF
3FFFFFFFFF
1FFFFFFFFF
1FFFFFFFFF
0FFFFFFFFF
07FFFFFFFF
03FFFFFFFF
01FFFFFFFF
00FFFFDFFE
003FFF9FFE
001FFF0FFE
0003F803F0
ENDCHAR
STARTCHAR acircumflex
ENCODING 226
SWIDTH 596 0
DWIDTH 45 0
BBX 40 58 2 0
BITMAP
00000F8000
00007FF000
0003FFFE00
001FFFFFC0
007FFFFFF0
00FFFFFFF8
01FFFFFFF8
01FFFFFFF8
00FFFFFFF8
00FFFFFFF8
00FFFFFFF8
007FF07FF0
003FC01FE0
001F0007C0
0000000000
0000000000
0000000000
0000000000
0000000080
0007FE0FFC
003FFF1FFE
007FFFDFFE
00FFFFFFFF
03FFFFFFFF
07FFFFFFFF
0FFFFFFFFF
0FFFFFFFFF
1FFFFFFFFF
3FFFFFFFFF
3FFFFFFFFF
7FFFFFFFFF
7FFFFFFFFF
7FFF01FFFF
FFFE00FFFF
FFFC007FFF
FFFC007FFF
FFF8003FFF
FFF8003FFF
FFF8003FFF
FFF8003FFF
FFF8003FFF
FFFC007FFF
FFFE00FFFF
7FFF01FFFF
7FFFC7FFFF
7FFFFFFFFF
3FFFFFFFFF
3FFFFFFFFF
1FFFFFFFFF
1FFFFFFFFF
0FFFFFFFFF
07FFFFFFFF
03FFFFFFFF
01FFFFFFFF
00FFFFDFFE
003FFF9FFE
001FFF0FFE
0003F803F0
ENDCHAR
STARTCHAR atilde
ENCODING 227
SWIDTH 596 0
DWIDTH 45 0
BBX 40 58 2 0
BITMAP
0001F801C0
0007FE07E0
001FFF87F0
003FFFCFF8
007FFFFFF8
007FFFFFF8
00FFFFFFF8
00FFFFFFF0
01FFFFFFF0
00FFFFFFE0
00FF0FFFC0
007F07FF80
003E03FE00
0008003800
0000000000
0000000000
0000000000
0000000000
0000000080
0007FE0FFC
003FFF1FFE
007FFFDFFE
00FFFFFFFF
03FFFFFFFF
07FFFFFFFF
0FFFFFFFFF
0FFFFFFFFF
1FFFFFFFFF
3FFFFFFFFF
3FFFFFFFFF
7FFFFFFFFF
7FFFFFFFFF
7FFF01FFFF
FFFE00FFFF
FFFC007FFF
FFFC007FFF
FFF8003FFF
FFF8003FFF
FFF8003FFF
FFF8003FFF
FFF8003FFF
FFFC007FFF
FFFE00FFFF
7FFF01FFFF
7FFFC7FFFF
7FFFFFFFFF
3FFFFFFFFF
3FFFFFFFFF
1FFFFFFFFF
1FFFFFFFFF
0FFFFFFFFF
07FFFFFFFF
03FFFFFFFF
01FFFFFFFF
00FFFFDFFE
003FFF9FFE
001FFF0FFE
0003F803F0
ENDCHAR
STARTCHAR adieresis
ENCODING 228
SWIDTH 596 0
DWIDTH 45 0
BBX 40 58 2 0
BITMAP
00FF0007F0
01FFC01FFC
03FFC03FFE
03FFE03FFE
03FFE03FFE
03FFE03FFE
03FFE03FFE
03FFE03FFE
03FFE03FFE
03FFE03FFE
03FFE03FFE
03FFC01FFC
00FF800FF8
0000000000
0000000000
0000000000
0000000000
0000000000
0000000080
0007FE0FFC
003FFF1FFE
007FFFDFFE
00FFFFFFFF
03FFFFFFFF
07FFFFFFFF
0FFFFFFFFF
0FFFFFFFFF
1FFFFFFFFF
3FFFFFFFFF
3FFFFFFFFF
7FFFFFFFFF
7FFFFFFFFF
7FFF01FFFF
FFFE00FFFF
FFFC007FFF
FFFC007FFF
FFF8003FFF
FFF8003FFF
FFF8003FFF
FFF8003FFF
FFF8003FFF
FFFC007FFF
FFFE00FFFF
7FFF01FFFF
7FFFC7FFFF
7FFFFFFFFF
3FFFFFFFFF
3FFFFFFFFF
1FFFFFFFFF
1FFFFFFFFF
0FFFFFFFFF
07FFFFFFFF
03FFFFFFFF
01FFFFFFFF
00FFFFDFFE
003FFF9FFE
001FFF0FFE
0003F803F0
ENDCHAR
STARTCHAR aring
ENCODING 229
SWIDTH 596 0
DWIDTH 45 0
BBX 40 56 2 0
BITMAP
00001FC000
00003FF000
00007FF800
0000FFF800
0001F07C00
0001E03C00
0001E03C00
0001E03C00
0001E03C00
0001F07C00
0000F8FC00
0000FFF800
00007FF000
00003FE000
00000F8000
0000000000
0000000080
0007FE0FFC
003FFF1FFE
007FFFDFFE
00FFFFFFFF
03FFFFFFFF
07FFFFFFFF
0FFFFFFFFF
0FFFFFFFFF
1FFFFFFFFF
3FFFFFFFFF
3FFFFFFFFF
7FFFFFFFFF
7FFFFFFFFF
7FFF01FFFF
FFFE00FFFF
FFFC007FFF
FFFC007FFF
FFF8003FFF
FFF8003FFF
FFF8003FFF
FFF8003FFF
FFF8003FFF
FFFC007FFF
FFFE00FFFF
7FFF01FFFF
7FFFC7FFFF
7FFFFFFFFF
3FFFFFFFFF
3FFFFFFFFF
1FFFFFFFFF
1FFFFFFFFF
0FFFFFFFFF
07FFFFFFFF
03FFFFFFFF
01FFFFFFFF
00FFFFDFFE
003FFF9FFE
001FFF0FFE
0003F803F0
ENDCHAR
STARTCHAR ae
ENCODING 230
SWIDTH 910 0
DWIDTH 68 0
BBX 64 41 2 -1
BITMAP
0007FF00003FE000
007FFFC003FFFC00
01FFFFF00FFFFF80
07FFFFFC3FFFFFC0
0FFFFFFE7FFFFFE0
1FFFFFFFFFFFFFF0
3FFFFFFFFFFFFFF8
7FFFFFFFFFFFFFFC
7FFFFFFFFFFFFFFC
7FFFFFFFFFFFFFFE
7FFFFFFFFFFFFFFE
3FFFFFFFFFFFFFFF
3FFF07FFFFE03FFF
1FFC03FFFFC01FFF
0FF801FFFF801FFF
07F000FFFF000FFF
03E000FFFF001FFF
0000007FFE003FFF
0000007FFFFFFFFF
003FF07FFFFFFFFF
03FFFF7FFFFFFFFE
0FFFFFFFFFFFFFFE
1FFFFFFFFFFFFFFC
3FFFFFFFFFFFFFF0
7FFFFFFFFF000000
FFFFFFFFFF000000
FFF800FFFF000000
FFF0003FFF8000C0
FFE0003FFFE007F0
FFF000FFFFFFFFF8
FFF001FFFFFFFFF8
FFFC1FFFFFFFFFFC
FFFFFFFFFFFFFFFC
7FFFFFFFFFFFFFFC
7FFFFFFFFFFFFFFC
7FFFFFF8FFFFFFFC
3FFFFFF07FFFFFF8
1FFFFFE01FFFFFF0
0FFFFF800FFFFFC0
03FFFE0001FFFE00
003F000000028000
ENDCHAR
STARTCHAR ccedilla
ENCODING 231
SWIDTH 524 0
DWIDTH 39 0
BBX 35 54 2 -14
BITMAP
0001FFC000
000FFFF800
003FFFFE00
007FFFFF80
01FFFFFFC0
03FFFFFFE0
07FFFFFFE0
0FFFFFFFE0
1FFFFFFFE0
1FFFFFFFE0
3FFFFFFFE0
3FFFFFFFC0
7FFFFFFFC0
7FFFE3FF80
7FFF80FF00
FFFE003E00
FFFC000000
FFFC000000
FFFC000000
FFFC000000
FFFC000000
FFFC000000
FFFC000000
FFFC000000
FFFE001800
7FFF007E00
7FFFC1FF00
7FFFFFFF80
3FFFFFFFC0
3FFFFFFFE0
1FFFFFFFE0
1FFFFFFFE0
0FFFFFFFE0
07FFFFFFE0
03FFFFFFE0
01FFFFFFC0
00FFFFFF80
003FFFFE00
000FFFFC00
0003FFE000
0007FFC000
0007FFC000
0007FFE000
0003FFE000
0001EFF000
000007F000
000007F000
0001CFF000
0003FFE000
0007FFE000
0007FFE000
0007FFC000
0003FF8000
0000FE0000
ENDCHAR
STARTCHAR egrave
ENCODING 232
SWIDTH 573 0
DWIDTH 43 0
BBX 39 59 2 -1
BITMAP
001E000000
003FC00000
003FFC0000
007FFF8000
007FFFF000
007FFFFC00
007FFFFE00
007FFFFE00
007FFFFE00
007FFFFC00
001FFFFC00
0003FFFC00
00007FF800
00000FF800
000001F000
0000000000
0000000000
0000000000
0001FFF000
000FFFFC00
003FFFFF00
00FFFFFF80
01FFFFFFE0
03FFFFFFE0
07FFFFFFF0
0FFFFFFFF8
1FFFFFFFF8
1FFFFFFFFC
3FFFFFFFFC
3FFFFFFFFE
7FFFC07FFE
7FFF003FFE
7FFE003FFE
FFFC003FFE
FFFC003FFE
FFFC007FFE
FFFFFFFFFE
FFFFFFFFFE
FFFFFFFFFC
FFFFFFFFFC
FFFFFFFFF8
FFFFFFFFE0
FFFFFFFF80
FFFC000000
7FFE000000
7FFF000080
7FFF800FC0
3FFFFFFFE0
3FFFFFFFF0
1FFFFFFFF0
1FFFFFFFF8
0FFFFFFFF8
07FFFFFFF8
03FFFFFFF8
01FFFFFFF8
00FFFFFFF0
003FFFFFE0
000FFFFF80
0000FFF000
ENDCHAR
STARTCHAR eacute
ENCODING 233
SWIDTH 573 0
DWIDTH 43 0
BBX 39 59 2 -1
BITMAP
0000003C00
000001FE00
00000FFE00
0000FFFF00
0007FFFF00
000FFFFF00
001FFFFF80
001FFFFF80
001FFFFF80
001FFFFF00
001FFFFE00
001FFFF000
000FFF0000
000FF80000
0007C00000
0000000000
0000000000
0000000000
0001FFF000
000FFFFC00
003FFFFF00
00FFFFFF80
01FFFFFFE0
03FFFFFFE0
07FFFFFFF0
0FFFFFFFF8
1FFFFFFFF8
1FFFFFFFFC
3FFFFFFFFC
3FFFFFFFFE
7FFFC07FFE
7FFF003FFE
7FFE003FFE
FFFC003FFE
FFFC003FFE
FFFC007FFE
FFFFFFFFFE
FFFFFFFFFE
FFFFFFFFFC
FFFFFFFFFC
FFFFFFFFF8
FFFFFFFFE0
FFFFFFFF80
FFFC000000
7FFE000000
7FFF000080
7FFF800FC0
3FFFFFFFE0
3FFFFFFFF0
1FFFFFFFF0
1FFFFFFFF8
0FFFFFFFF8
07FFFFFFF8
03FFFFFFF8
01FFFFFFF8
00FFFFFFF0
003FFFFFE0
000FFFFF80
0000FFF000
ENDCHAR
STARTCHAR ecircumflex
ENCODING 234
SWIDTH 573 0
DWIDTH 43 0
BBX 39 59 2 -1
BITMAP
00003E0000
0001FFC000
000FFFF800
007FFFFF00
01FFFFFFC0
03FFFFFFE0
07FFFFFFE0
07FFFFFFE0
07FFFFFFE0
03FFFFFFE0
03FFFFFFC0
01FFC3FFC0
01FF007F80
007C001F00
0000000000
0000000000
0000000000
0000000000
0001FFF000
000FFFFC00
003FFFFF00
00FFFFFF80
01FFFFFFE0
03FFFFFFE0
07FFFFFFF0
0FFFFFFFF8
1FFFFFFFF8
1FFFFFFFFC
3FFFFFFFFC
3FFFFFFFFE
7FFFC07FFE
7FFF003FFE
7FFE003FFE
FFFC003FFE
FFFC003FFE
FFFC007FFE
FFFFFFFFFE
FFFFFFFFFE
FFFFFFFFFC
FFFFFFFFFC
FFFFFFFFF8
FFFFFFFFE0
FFFFFFFF80
FFFC000000
7FFE000000
7FFF000080
7FFF800FC0
3FFFFFFFE0
3FFFFFFFF0
1FFFFFFFF0
1FFFFFFFF8
0FFFFFFFF8
07FFFFFFF8
03FFFFFFF8
01FFFFFFF8
00FFFFFFF0
003FFFFFE0
000FFFFF80
0000FFF000
ENDCHAR
STARTCHAR edieresis
ENCODING 235
SWIDTH 573 0
DWIDTH 43 0
BBX 39 59 2 -1
BITMAP
03F8003FC0
0FFE00FFE0
1FFF00FFF0
1FFF01FFF0
1FFF01FFF0
1FFF01FFF0
1FFF01FFF0
1FFF01FFF0
1FFF01FFF0
1FFF01FFF0
1FFF01FFF0
0FFE00FFF0
07FC007FE0
0000000000
0000000000
0000000000
0000000000
0000000000
0001FFF000
000FFFFC00
003FFFFF00
00FFFFFF80
01FFFFFFE0
03FFFFFFE0
07FFFFFFF0
0FFFFFFFF8
1FFFFFFFF8
1FFFFFFFFC
3FFFFFFFFC
3FFFFFFFFE
7FFFC07FFE
7FFF003FFE
7FFE003FFE
FFFC003FFE
FFFC003FFE
FFFC007FFE
FFFFFFFFFE
FFFFFFFFFE
FFFFFFFFFC
FFFFFFFFFC
FFFFFFFFF8
FFFFFFFFE0
FFFFFFFF80
FFFC000000
7FFE000000
7FFF000080
7FFF800FC0
3FFFFFFFE0
3FFFFFFFF0
1FFFFFFFF0
1FFFFFFFF8
0FFFFFFFF8
07FFFFFFF8
03FFFFFFF8
01FFFFFFF8
00FFFFFFF0
003FFFFFE0
000FFFFF80
0000FFF000
ENDCHAR
STARTCHAR igrave
ENCODING 236
SWIDTH 255 0
DWIDTH 19 0
BBX 23 58 -4 0
BITMAP
1E0000
3FC000
3FFC00
7FFF80
7FFFF0
7FFFFC
7FFFFC
FFFFFE
7FFFFE
7FFFFC
1FFFFC
03FFFC
007FF8
000FF8
0001F0
000000
000000
000000
000000
007FC0
00FFE0
01FFF0
01FFF0
01FFF0
01FFF0
01FFF0
01FFF0
01FFF0
01FFF0
01FFF0
01FFF0
01FFF0
01FFF0
01FFF0
01FFF0
01FFF0
01FFF0
01FFF0
01FFF0
01FFF0
01FFF0
01FFF0
01FFF0
01FFF0
01FFF0
01FFF0
01FFF0
01FFF0
01FFF0
01FFF0
01FFF0
01FFF0
01FFF0
01FFF0
01FFF0
00FFF0
00FFE0
003F80
ENDCHAR
STARTCHAR iacute
ENCODING 237
SWIDTH 255 0
DWIDTH 19 0
BBX 22 58 1 0
BITMAP
0000F0
000FF0
007FF8
03FFF8
1FFFFC
7FFFFC
FFFFFC
FFFFFC
FFFFFC
FFFFFC
7FFFF0
7FFF80
7FFC00
3FE000
1F0000
000000
000000
000000
000000
0FF800
1FFC00
3FFE00
3FFE00
3FFE00
3FFE00
3FFE00
3FFE00
3FFE00
3FFE00
3FFE00
3FFE00
3FFE00
3FFE00
3FFE00
3FFE00
3FFE00
3FFE00
3FFE00
3FFE00
3FFE00
3FFE00
3FFE00
3FFE00
3FFE00
3FFE00
3FFE00
3FFE00
3FFE00
3FFE00
3FFE00
3FFE00
3FFE00
3FFE00
3FFE00
3FFE00
1FFE00
1FFC00
07F000
ENDCHAR
STARTCHAR icircumflex
ENCODING 238
SWIDTH 255 0
DWIDTH 19 0
BBX 30 58 -5 0
BITMAP
000F8000
007FF000
03FFFE00
1FFFFFC0
7FFFFFF0
FFFFFFF8
FFFFFFF8
FFFFFFFC
FFFFFFF8
FFFFFFF8
7FFFFFF8
7FF87FF0
3FC01FE0
1F0007C0
00000000
00000000
00000000
00000000
00000000
003FE000
007FF000
00FFF800
00FFF800
00FFF800
00FFF800
00FFF800
00FFF800
00FFF800
00FFF800
00FFF800
00FFF800
00FFF800
00FFF800
00FFF800
00FFF800
00FFF800
00FFF800
00FFF800
00FFF800
00FFF800
00FFF800
00FFF800
00FFF800
00FFF800
00FFF800
00FFF800
00FFF800
00FFF800
00FFF800
00FFF800
00FFF800
00FFF800
00FFF800
00FFF800
00FFF800
007FF800
007FF000
001FC000
ENDCHAR
STARTCHAR idieresis
ENCODING 239
SWIDTH 255 0
DWIDTH 19 0
BBX 33 58 -7 0
BITMAP
1FC001FE00
7FF007FF00
FFF807FF80
FFF80FFF80
FFF80FFF80
FFF80FFF80
FFF80FFF80
FFF80FFF80
FFF80FFF80
FFF80FFF80
FFF80FFF80
7FF007FF80
3FE003FF00
0000000000
0000000000
0000000000
0000000000
0000000000
0000000000
000FF80000
001FFC0000
003FFE0000
003FFE0000
003FFE0000
003FFE0000
003FFE0000
003FFE0000
003FFE0000
003FFE0000
003FFE0000
003FFE0000
003FFE0000
003FFE0000
003FFE0000
003FFE0000
003FFE0000
003FFE0000
003FFE0000
003FFE0000
003FFE0000
003FFE0000
003FFE0000
003FFE0000
003FFE0000
003FFE0000
003FFE0000
003FFE0000
003FFE0000
003FFE0000
003FFE0000
003FFE0000
003FFE0000
003FFE0000
003FFE0000
003FFE0000
001FFE0000
001FFC0000
0007F80000
ENDCHAR
STARTCHAR eth
ENCODING 240
SWIDTH 585 0
DWIDTH 44 0
BBX 40 61 2 -1
BITMAP
000003C000
000007E000
000207F000
000FCFF000
001FFFE000
001FFFC000
003FFFC000
003FFF8000
003FFFE000
003FFFF000
003FFFF800
000FFFFC00
0007FFFE00
000FFFFF00
000FFFFF80
001FEFFF80
001FC3FFC0
001F81FFE0
000F80FFE0
0007007FF0
0000003FF0
0000381FF8
0007FF9FF8
001FFFEFFC
007FFFF7FC
00FFFFFFFC
03FFFFFFFE
07FFFFFFFE
0FFFFFFFFE
0FFFFFFFFE
1FFFFFFFFE
3FFFFFFFFF
3FFFFFFFFF
7FFFFFFFFF
7FFF01FFFF
7FFE007FFF
FFFC003FFF
FFF8003FFF
FFF8001FFF
FFF8001FFF
FFF8001FFF
FFF8001FFF
FFF8001FFF
FFF8001FFF
FFFC003FFE
FFFE007FFE
7FFF00FFFE
7FFFC7FFFE
7FFFFFFFFC
3FFFFFFFFC
3FFFFFFFF8
1FFFFFFFF0
0FFFFFFFF0
0FFFFFFFE0
07FFFFFFC0
01FFFFFF80
00FFFFFF00
007FFFFE00
001FFFF800
0007FFE000
00003C0000
ENDCHAR
STARTCHAR ntilde
ENCODING 241
SWIDTH 606 0
DWIDTH 45 0
BBX 39 58 3 0
BITMAP
000FE00E00
003FF81F80
007FFC3FC0
00FFFE7FE0
01FFFFFFE0
03FFFFFFE0
03FFFFFFC0
07FFFFFFC0
07FFFFFF80
07FFFFFF80
03FC7FFF00
01F83FFE00
00F00FF800
002000C000
0000000000
0000000000
0000000000
0000000000
0700060000
3FF03FF000
7FF0FFFC00
FFF9FFFF00
FFFBFFFF80
FFFFFFFFC0
FFFFFFFFE0
FFFFFFFFE0
FFFFFFFFF0
FFFFFFFFF8
FFFFFFFFF8
FFFFFFFFFC
FFFFFFFFFC
FFFFFFFFFC
FFFF01FFFE
FFFE007FFE
FFFC007FFE
FFFC003FFE
FFF8003FFE
FFF8003FFE
FFF8003FFE
FFF8003FFE
FFF8003FFE
FFF8003FFE
FFF8003FFE
FFF8003FFE
FFF8003FFE
FFF8003FFE
FFF8003FFE
FFF8003FFE
FFF8003FFE
FFF8003FFE
FFF8003FFE
FFF8003FFE
FFF8003FFE
FFF8003FFE
FFF8001FFE
7FF8001FFE
7FF0000FFC
1FC00007F0
ENDCHAR
STARTCHAR ograve
ENCODING 242
SWIDTH 600 0
DWIDTH 45 0
BBX 41 59 2 -1
BITMAP
000F00000000
001FE0000000
001FFC000000
003FFFC00000
003FFFF80000
003FFFFE0000
007FFFFE0000
007FFFFE0000
007FFFFE0000
003FFFFE0000
001FFFFE0000
0003FFFE0000
00003FFC0000
000007FC0000
000000F80000
000000000000
000000000000
000000000000
0003FFE00000
000FFFF80000
003FFFFE0000
007FFFFF8000
01FFFFFFC000
03FFFFFFE000
07FFFFFFF000
0FFFFFFFF800
1FFFFFFFFC00
1FFFFFFFFC00
3FFFFFFFFE00
3FFFFFFFFE00
7FFFFFFFFF00
7FFF80FFFF00
7FFF007FFF00
FFFE003FFF80
FFFC001FFF80
FFFC001FFF80
FFF8000FFF80
FFF8000FFF80
FFF8000FFF80
FFF8000FFF80
FFF8001FFF80
FFFC001FFF80
FFFC003FFF80
7FFE007FFF00
7FFF80FFFF00
7FFFFFFFFF00
3FFFFFFFFE00
3FFFFFFFFE00
1FFFFFFFFC00
1FFFFFFFFC00
0FFFFFFFF800
07FFFFFFF000
03FFFFFFE000
01FFFFFFC000
00FFFFFF8000
003FFFFF0000
001FFFFC0000
0003FFE00000
00003E000000
ENDCHAR
STARTCHAR oacute
ENCODING 243
SWIDTH 600 0
DWIDTH 45 0
BBX 41 59 2 -1
BITMAP
0000001E0000
000001FE0000
00000FFF0000
00007FFF0000
0003FFFF8000
000FFFFF8000
001FFFFF8000
001FFFFF8000
001FFFFF8000
001FFFFF8000
000FFFFE0000
000FFFF00000
000FFF800000
0007FC000000
0003E0000000
000000000000
000000000000
000000000000
0003FFE00000
000FFFF80000
003FFFFE0000
007FFFFF8000
01FFFFFFC000
03FFFFFFE000
07FFFFFFF000
0FFFFFFFF800
1FFFFFFFFC00
1FFFFFFFFC00
3FFFFFFFFE00
3FFFFFFFFE00
7FFFFFFFFF00
7FFF80FFFF00
7FFF007FFF00
FFFE003FFF80
FFFC001FFF80
FFFC001FFF80
FFF8000FFF80
FFF8000FFF80
FFF8000FFF80
FFF8000FFF80
FFF8001FFF80
FFFC001FFF80
FFFC003FFF80
7FFE007FFF00
7FFF80FFFF00
7FFFFFFFFF00
3FFFFFFFFE00
3FFFFFFFFE00
1FFFFFFFFC00
1FFFFFFFFC00
0FFFFFFFF800
07FFFFFFF000
03FFFFFFE000
01FFFFFFC000
00FFFFFF8000
003FFFFF0000
001FFFFC0000
0003FFE00000
00003E000000
ENDCHAR
STARTCHAR ocircumflex
ENCODING 244
SWIDTH 600 0
DWIDTH 45 0
BBX 41 59 2 -1
BITMAP
00003E000000
0001FFC00000
000FFFF80000
007FFFFF0000
01FFFFFFC000
03FFFFFFE000
03FFFFFFF000
03FFFFFFF000
03FFFFFFF000
03FFFFFFE000
01FFFFFFE000
01FFE1FFC000
00FF007FC000
007C001F8000
000000000000
000000000000
000000000000
000000000000
0003FFE00000
000FFFF80000
003FFFFE0000
007FFFFF8000
01FFFFFFC000
03FFFFFFE000
07FFFFFFF000
0FFFFFFFF800
1FFFFFFFFC00
1FFFFFFFFC00
3FFFFFFFFE00
3FFFFFFFFE00
7FFFFFFFFF00
7FFF80FFFF00
7FFF007FFF00
FFFE003FFF80
FFFC001FFF80
FFFC001FFF80
FFF8000FFF80
FFF8000FFF80
FFF8000FFF80
FFF8000FFF80
FFF8001FFF80
FFFC001FFF80
FFFC003FFF80
7FFE007FFF00
7FFF80FFFF00
7FFFFFFFFF00
3FFFFFFFFE00
3FFFFFFFFE00
1FFFFFFFFC00
1FFFFFFFFC00
0FFFFFFFF800
07FFFFFFF000
03FFFFFFE000
01FFFFFFC000
00FFFFFF8000
003FFFFF0000
001FFFFC0000
0003FFE00000
00003E000000
ENDCHAR
STARTCHAR otilde
ENCODING 245
SWIDTH 600 0
DWIDTH 45 0
BBX 41 59 2 -1
BITMAP
0007E0070000
001FF80F8000
003FFE1FE000
00FFFF3FE000
00FFFFFFF000
01FFFFFFF000
03FFFFFFE000
03FFFFFFE000
03FFFFFFC000
03FFFFFF8000
03FE3FFF0000
01FC1FFE0000
007807FC0000
003000C00000
000000000000
000000000000
000000000000
000000000000
0003FFE00000
000FFFF80000
003FFFFE0000
007FFFFF8000
01FFFFFFC000
03FFFFFFE000
07FFFFFFF000
0FFFFFFFF800
1FFFFFFFFC00
1FFFFFFFFC00
3FFFFFFFFE00
3FFFFFFFFE00
7FFFFFFFFF00
7FFF80FFFF00
7FFF007FFF00
FFFE003FFF80
FFFC001FFF80
FFFC001FFF80
FFF8000FFF80
FFF8000FFF80
FFF8000FFF80
FFF8000FFF80
FFF8001FFF80
FFFC001FFF80
FFFC003FFF80
7FFE007FFF00
7FFF80FFFF00
7FFFFFFFFF00
3FFFFFFFFE00
3FFFFFFFFE00
1FFFFFFFFC00
1FFFFFFFFC00
0FFFFFFFF800
07FFFFFFF000
03FFFFFFE000
01FFFFFFC000
00FFFFFF8000
003FFFFF0000
001FFFFC0000
0003FFE00000
00003E000000
ENDCHAR
STARTCHAR odieresis
ENCODING 246
SWIDTH 600 0
DWIDTH 45 0
BBX 41 59 2 -1
BITMAP
03FC003FC000
07FF007FF000
0FFF00FFF000
0FFF80FFF800
1FFF80FFF800
1FFF80FFF800
1FFF80FFF800
1FFF80FFF800
1FFF80FFF800
1FFF80FFF800
0FFF00FFF800
0FFF00FFF000
07FE003FE000
000000000000
000000000000
000000000000
000000000000
000000000000
0003FFE00000
000FFFF80000
003FFFFE0000
007FFFFF8000
01FFFFFFC000
03FFFFFFE000
07FFFFFFF000
0FFFFFFFF800
1FFFFFFFFC00
1FFFFFFFFC00
3FFFFFFFFE00
3FFFFFFFFE00
7FFFFFFFFF00
7FFF80FFFF00
7FFF007FFF00
FFFE003FFF80
FFFC001FFF80
FFFC001FFF80
FFF8000FFF80
FFF8000FFF80
FFF8000FFF80
FFF8000FFF80
FFF8001FFF80
FFFC001FFF80
FFFC003FFF80
7FFE007FFF00
7FFF80FFFF00
7FFFFFFFFF00
3FFFFFFFFE00
3FFFFFFFFE00
1FFFFFFFFC00
1FFFFFFFFC00
0FFFFFFFF800
07FFFFFFF000
03FFFFFFE000
01FFFFFFC000
00FFFFFF8000
003FFFFF0000
001FFFFC0000
0003FFE00000
00003E000000
ENDCHAR
STARTCHAR divide
ENCODING 247
SWIDTH 503 0
DWIDTH 38 0
BBX 34 41 2 0
BITMAP
0007F00000
000FFC0000
001FFC0000
001FFE0000
001FFE0000
001FFE0000
001FFE0000
001FFE0000
001FFE0000
001FFE0000
000FFC0000
0007F80000
0000000000
0000000000
0000000000
3FFFFFFF00
7FFFFFFF80
FFFFFFFF80
FFFFFFFFC0
FFFFFFFFC0
FFFFFFFFC0
FFFFFFFFC0
FFFFFFFFC0
FFFFFFFF80
7FFFFFFF80
3FFFFFFE00
0000000000
0000000000
0000000000
0007F80000
000FFC0000
001FFE0000
001FFE0000
001FFE0000
001FFE0000
001FFE0000
001FFE0000
001FFE0000
001FFC0000
000FFC0000
0003F00000
ENDCHAR
STARTCHAR oslash
ENCODING 248
SWIDTH 600 0
DWIDTH 45 0
BBX 41 63 2 -12
BITMAP
00000007C000
0000000FF000
0000001FFC00
0000001FFC00
0000003FFE00
0000003FFE00
0000007FFE00
0000007FFE00
000000FFFC00
000000FFFC00
000000FFF800
0001FFFFF800
000FFFFFF000
003FFFFFF000
007FFFFFE000
01FFFFFFE000
03FFFFFFE000
07FFFFFFF000
0FFFFFFFF800
1FFFFFFFFC00
1FFFFFFFFC00
3FFFFFFFFE00
3FFFFFFFFE00
7FFFFFFFFF00
7FFF80FFFF00
7FFF007FFF00
FFFE003FFF80
FFFC001FFF80
FFFC001FFF80
FFF8000FFF80
FFF8000FFF80
FFF8000FFF80
FFF8000FFF80
FFF8000FFF80
FFFC001FFF80
FFFC001FFF80
FFFE003FFF00
7FFF80FFFF00
7FFFF7FFFF00
3FFFFFFFFE00
3FFFFFFFFE00
1FFFFFFFFC00
1FFFFFFFFC00
0FFFFFFFF800
07FFFFFFF000
03FFFFFFE000
03FFFFFFC000
03FFFFFF8000
07FFFFFF0000
07FFFFFC0000
0FFFFFF00000
0FFFFF000000
1FFF80000000
1FFF80000000
3FFF00000000
3FFF00000000
3FFE00000000
3FFE00000000
3FFC00000000
1FFC00000000
0FF800000000
03F800000000
006000000000
ENDCHAR
STARTCHAR ugrave
ENCODING 249
SWIDTH 606 0
DWIDTH 45 0
BBX 39 58 3 0
BITMAP
001E000000
003FC00000
003FF80000
007FFF8000
007FFFF000
00FFFFFC00
00FFFFFC00
00FFFFFC00
00FFFFFC00
007FFFFC00
003FFFFC00
0007FFFC00
0000FFF800
00000FF800
000001F000
0000000000
0000000000
0000000000
07000000E0
3FE0000FFC
7FF0001FFE
FFF8001FFE
FFF8003FFE
FFF8003FFE
FFF8003FFE
FFF8003FFE
FFF8003FFE
FFF8003FFE
FFF8003FFE
FFF8003FFE
FFF8003FFE
FFF8003FFE
FFF8003FFE
FFF8003FFE
FFF8003FFE
FFF8003FFE
FFF8003FFE
FFF8003FFE
FFF8003FFE
FFF8003FFE
FFF8003FFE
FFFC003FFE
FFFE007FFE
7FFF00FFFE
7FFFC7FFFE
7FFFFFFFFE
3FFFFFFFFE
3FFFFFFFFE
3FFFFFFFFE
1FFFFFFFFE
0FFFFFFFFE
0FFFFFFFFE
07FFFFFFFE
03FFFFFFFE
01FFFF9FFE
007FFF1FFE
001FFE1FFC
0003F007F0
ENDCHAR
STARTCHAR uacute
ENCODING 250
SWIDTH 606 0
DWIDTH 45 0
BBX 39 58 3 0
BITMAP
0000001E00
000000FF00
00000FFF00
00007FFF80
0003FFFF80
000FFFFF80
000FFFFF80
001FFFFF80
001FFFFF80
000FFFFF80
000FFFFE00
000FFFF000
0007FF8000
0007FC0000
0003E00000
0000000000
0000000000
0000000000
07000000E0
3FE0000FFC
7FF0001FFE
FFF8001FFE
FFF8003FFE
FFF8003FFE
FFF8003FFE
FFF8003FFE
FFF8003FFE
FFF8003FFE
FFF8003FFE
FFF8003FFE
FFF8003FFE
FFF8003FFE
FFF8003FFE
FFF8003FFE
FFF8003FFE
FFF8003FFE
FFF8003FFE
FFF8003FFE
FFF8003FFE
FFF8003FFE
FFF8003FFE
FFFC003FFE
FFFE007FFE
7FFF00FFFE
7FFFC7FFFE
7FFFFFFFFE
3FFFFFFFFE
3FFFFFFFFE
3FFFFFFFFE
1FFFFFFFFE
0FFFFFFFFE
0FFFFFFFFE
07FFFFFFFE
03FFFFFFFE
01FFFF9FFE
007FFF1FFE
001FFE1FFC
0003F007F0
ENDCHAR
STARTCHAR ucircumflex
ENCODING 251
SWIDTH 606 0
DWIDTH 45 0
BBX 39 58 3 0
BITMAP
00003C0000
0001FF8000
000FFFF800
007FFFFF00
03FFFFFFC0
07FFFFFFE0
07FFFFFFE0
07FFFFFFE0
07FFFFFFE0
03FFFFFFE0
03FFFFFFC0
01FFC3FFC0
01FF00FF80
00F8001F00
0000000000
0000000000
0000000000
0000000000
07000000E0
3FE0000FFC
7FF0001FFE
FFF8001FFE
FFF8003FFE
FFF8003FFE
FFF8003FFE
FFF8003FFE
FFF8003FFE
FFF8003FFE
FFF8003FFE
FFF8003FFE
FFF8003FFE
FFF8003FFE
FFF8003FFE
FFF8003FFE
FFF8003FFE
FFF8003FFE
FFF8003FFE
FFF8003FFE
FFF8003FFE
FFF8003FFE
FFF8003FFE
FFFC003FFE
FFFE007FFE
7FFF00FFFE
7FFFC7FFFE
7FFFFFFFFE
3FFFFFFFFE
3FFFFFFFFE
3FFFFFFFFE
1FFFFFFFFE
0FFFFFFFFE
0FFFFFFFFE
07FFFFFFFE
03FFFFFFFE
01FFFF9FFE
007FFF1FFE
001FFE1FFC
0003F007F0
ENDCHAR
STARTCHAR udieresis
ENCODING 252
SWIDTH 606 0
DWIDTH 45 0
BBX 39 58 3 0
BITMAP
03F8003FC0
0FFE00FFE0
1FFE01FFF0
1FFF01FFF0
1FFF01FFF0
1FFF01FFF0
1FFF01FFF0
1FFF01FFF0
1FFF01FFF0
1FFF01FFF0
1FFF01FFF0
0FFE00FFE0
07FC007FC0
0000000000
0000000000
0000000000
0000000000
0000000000
07000000E0
3FE0000FFC
7FF0001FFE
FFF8001FFE
FFF8003FFE
FFF8003FFE
FFF8003FFE
FFF8003FFE
FFF8003FFE
FFF8003FFE
FFF8003FFE
FFF8003FFE
FFF8003FFE
FFF8003FFE
FFF8003FFE
FFF8003FFE
FFF8003FFE
FFF8003FFE
FFF8003FFE
FFF8003FFE
FFF8003FFE
FFF8003FFE
FFF8003FFE
FFFC003FFE
FFFE007FFE
7FFF00FFFE
7FFFC7FFFE
7FFFFFFFFE
3FFFFFFFFE
3FFFFFFFFE
3FFFFFFFFE
1FFFFFFFFE
0FFFFFFFFE
0FFFFFFFFE
07FFFFFFFE
03FFFFFFFE
01FFFF9FFE
007FFF1FFE
001FFE1FFC
0003F007F0
ENDCHAR
STARTCHAR yacute
ENCODING 253
SWIDTH 604 0
DWIDTH 45 0
BBX 43 76 1 -18
BITMAP
000000070000
0000007F8000
000003FFC000
00001FFFC000
0000FFFFE000
0003FFFFE000
0007FFFFE000
0007FFFFE000
0007FFFFE000
0007FFFFE000
0003FFFF8000
0003FFFC0000
0003FFE00000
0001FF000000
0000F8000000
000000000000
000000000000
000000000000
07E000007C00
0FF00000FF00
3FF00001FF80
7FF80003FFC0
FFFC0003FFE0
FFFC0003FFE0
FFFE0007FFE0
7FFE0007FFE0
7FFF000FFFC0
3FFF800FFFC0
3FFF801FFFC0
1FFFC01FFF80
1FFFC03FFF80
0FFFE03FFF00
07FFE07FFF00
07FFF07FFE00
03FFF87FFE00
03FFF8FFFC00
01FFFCFFFC00
01FFFFFFFC00
00FFFFFFF800
007FFFFFF800
007FFFFFF000
003FFFFFF000
003FFFFFE000
001FFFFFE000
000FFFFFC000
000FFFFFC000
0007FFFF8000
0007FFFF8000
0003FFFF8000
0001FFFF0000
0001FFFF0000
0000FFFE0000
0000FFFE0000
0000FFFC0000
0000FFFC0000
0001FFF80000
0001FFF80000
0003FFF80000
0003FFF00000
0007FFF00000
0007FFE00000
0007FFE00000
000FFFC00000
000FFFC00000
001FFF800000
001FFF800000
003FFF800000
003FFF000000
003FFF000000
007FFE000000
007FFE000000
003FFC000000
001FFC000000
000FF8000000
0003F8000000
000060000000
ENDCHAR
STARTCHAR thorn
ENCODING 254
SWIDTH 580 0
DWIDTH 44 0
BBX 39 76 3 -17
BITMAP
3FC0000000
7FE0000000
FFF0000000
FFF0000000
FFF0000000
FFF0000000
FFF0000000
FFF0000000
FFF0000000
FFF0000000
FFF0000000
FFF0000000
FFF0000000
FFF0000000
FFF0000000
FFF0000000
FFF0000000
FFF0000000
FFF0000000
FFF0000000
FFF0FFC000
FFF3FFF000
FFF7FFFC00
FFFFFFFE00
FFFFFFFF00
FFFFFFFF80
FFFFFFFFC0
FFFFFFFFE0
FFFFFFFFE0
FFFFFFFFF0
FFFFFFFFF8
FFFFFFFFF8
FFFFFFFFF8
FFFF03FFFC
FFFC01FFFC
FFFC00FFFC
FFF8007FFC
FFF8007FFE
FFF0007FFE
FFF0007FFE
FFF0007FFE
FFF8007FFE
FFF8007FFC
FFFC00FFFC
FFFE01FFFC
FFFF87FFFC
FFFFFFFFF8
FFFFFFFFF8
FFFFFFFFF0
FFFFFFFFF0
FFFFFFFFE0
FFFFFFFFC0
FFFFFFFF80
FFFFFFFF80
FFFFFFFE00
FFFFFFFC00
FFF7FFF800
FFF1FFE000
FFF07F0000
FFF0000000
FFF0000000
FFF0000000
FFF0000000
FFF0000000
FFF0000000
FFF0000000
FFF0000000
FFF0000000
FFF0000000
FFF0000000
FFF0000000
FFF0000000
FFF0000000
7FF0000000
7FE0000000
1FC0000000
ENDCHAR
STARTCHAR ydieresis
ENCODING 255
SWIDTH 604 0
DWIDTH 45 0
BBX 43 76 1 -18
BITMAP
00FF0007F000
01FFC01FFC00
03FFC03FFE00
03FFE03FFE00
03FFE03FFE00
03FFE03FFE00
03FFE03FFE00
03FFE03FFE00
03FFE03FFE00
03FFE03FFE00
03FFE03FFE00
03FFC01FFC00
01FF800FF800
000000000000
000000000000
000000000000
000000000000
000000000000
07E000007C00
0FF00000FF00
3FF00001FF80
7FF80003FFC0
FFFC0003FFE0
FFFC0003FFE0
FFFE0007FFE0
7FFE0007FFE0
7FFF000FFFC0
3FFF800FFFC0
3FFF801FFFC0
1FFFC01FFF80
1FFFC03FFF80
0FFFE03FFF00
07FFE07FFF00
07FFF07FFE00
03FFF87FFE00
03FFF8FFFC00
01FFFCFFFC00
01FFFFFFFC00
00FFFFFFF800
007FFFFFF800
007FFFFFF000
003FFFFFF000
003FFFFFE000
001FFFFFE000
000FFFFFC000
000FFFFFC000
0007FFFF8000
0007FFFF8000
0003FFFF8000
0001FFFF0000
0001FFFF0000
0000FFFE0000
0000FFFE0000
0000FFFC0000
0000FFFC0000
0001FFF80000
0001FFF80000
0003FFF80000
0003FFF00000
0007FFF00000
0007FFE00000
0007FFE00000
000FFFC00000
000FFFC00000
001FFF800000
001FFF800000
003FFF800000
003FFF000000
003FFF000000
007FFE000000
007FFE000000
003FFC000000
001FFC000000
000FF8000000
0003F8000000
000060000000
ENDCHAR
STARTCHAR dotlessi
ENCODING 305
SWIDTH 255 0
DWIDTH 19 0
BBX 13 39 3 0
BITMAP
3FE0
7FF0
FFF8
FFF8
FFF8
FFF8
FFF8
FFF8
FFF8
FFF8
FFF8
FFF8
FFF8
FFF8
FFF8
FFF8
FFF8
FFF8
FFF8
FFF8
FFF8
FFF8
FFF8
FFF8
FFF8
FFF8
FFF8
FFF8
FFF8
FFF8
FFF8
FFF8
FFF8
FFF8
FFF8
FFF8
7FF8
7FF0
1FC0
ENDCHAR
STARTCHAR Lslash
ENCODING 321
SWIDTH 687 0
DWIDTH 52 0
BBX 48 55 2 0
BITMAP
001FE0000000
003FF8000000
007FF8000000
007FFC000000
007FFC000000
00FFFC000000
00FFFC000000
00FFFC000000
00FFFC000000
00FFFC000000
00FFFC000000
00FFFC000000
00FFFC000000
00FFFC000000
00FFFC000000
00FFFC000000
00FFFC000000
00FFFC000000
00FFFC7E0000
00FFFFFF0000
00FFFFFF0000
00FFFFFF0000
00FFFFFF8000
00FFFFFF8000
0FFFFFFF8000
7FFFFFFF0000
FFFFFFFE0000
FFFFFFF80000
FFFFFF800000
FFFFFC000000
FFFFFC000000
7FFFFC000000
7FFFFC000000
3EFFFC000000
00FFFC000000
00FFFC000000
00FFFC000000
00FFFC000000
00FFFC000000
00FFFC000000
00FFFC000000
00FFFC000000
00FFFC000000
00FFFC000000
00FFFFFFFFFC
00FFFFFFFFFE
00FFFFFFFFFE
00FFFFFFFFFF
00FFFFFFFFFF
007FFFFFFFFF
007FFFFFFFFF
007FFFFFFFFF
007FFFFFFFFE
003FFFFFFFFE
001FFFFFFFF8
ENDCHAR
STARTCHAR lslash
ENCODING 322
SWIDTH 468 0
DWIDTH 35 0
BBX 33 58 1 0
BITMAP
001FF00000
003FF80000
007FF80000
007FFC0000
007FFC0000
007FFC0000
007FFC0000
007FFC0000
007FFC0000
007FFC0000
007FFC0000
007FFC0000
007FFC0000
007FFC0000
007FFC0000
007FFC0000
007FFC0000
007FFC0000
007FFC0000
007FFC0000
007FFC0000
007FFC7E00
007FFFFF00
007FFFFF00
007FFFFF80
007FFFFF80
00FFFFFF80
0FFFFFFF80
3FFFFFFF80
7FFFFFFF00
FFFFFFF800
FFFFFF8000
FFFFFC0000
7FFFFC0000
7FFFFC0000
7FFFFC0000
3F7FFC0000
007FFC0000
007FFC0000
007FFC0000
007FFC0000
007FFC0000
007FFC0000
007FFC0000
007FFC0000
007FFFE000
007FFFF000
007FFFF800
007FFFF800
007FFFF800
003FFFF800
003FFFF800
003FFFF800
001FFFF800
001FFFF800
000FFFF800
0003FFF000
00007FE000
ENDCHAR
STARTCHAR OE
ENCODING 338
SWIDTH 1092 0
DWIDTH 82 0
BBX 78 55 2 0
BITMAP
000007FFFFFFFFFFFFE0
00007FFFFFFFFFFFFFF8
0001FFFFFFFFFFFFFFF8
0007FFFFFFFFFFFFFFFC
000FFFFFFFFFFFFFFFFC
003FFFFFFFFFFFFFFFFC
007FFFFFFFFFFFFFFFFC
00FFFFFFFFFFFFFFFFFC
01FFFFFFFFFFFFFFFFFC
03FFFFFFFFFFFFFFFFFC
07FFFFFFFFFFFFFFFFF8
07FFFFFFFFFFFFFFFFF8
0FFFFFFFFFFFFFFFFFF0
1FFFFE001FFF00000000
1FFFF8001FFF00000000
3FFFE0001FFF00000000
3FFFC0001FFF00000000
3FFF80001FFF00000000
7FFF00001FFF00000000
7FFE00001FFF00000000
7FFE00001FFF00000000
FFFC00001FFFFFFFE000
FFFC00001FFFFFFFF800
FFFC00001FFFFFFFF800
FFF800001FFFFFFFF800
FFF800001FFFFFFFFC00
FFF800001FFFFFFFFC00
FFF800001FFFFFFFFC00
FFF800001FFFFFFFFC00
FFF800001FFFFFFFFC00
FFF800001FFFFFFFF800
FFFC00001FFFFFFFF800
FFFC00001FFFFFFFF800
FFFC00001FFFFFFFE000
7FFE00001FFF00000000
7FFE00001FFF00000000
7FFF00001FFF00000000
3FFF80001FFF00000000
3FFFC0001FFF00000000
3FFFE0001FFF00000000
1FFFF8001FFF00000000
0FFFFE001FFF00000000
0FFFFFFFFFFFFFFFFFF0
07FFFFFFFFFFFFFFFFF8
03FFFFFFFFFFFFFFFFFC
03FFFFFFFFFFFFFFFFFC
01FFFFFFFFFFFFFFFFFC
00FFFFFFFFFFFFFFFFFC
007FFFFFFFFFFFFFFFFC
001FFFFFFFFFFFFFFFFC
000FFFFFFFFFFFFFFFFC
0003FFFFFFFFFFFFFFFC
0000FFFFFFFFFFFFFFF8
00003FFFFFFFFFFFFFF8
000003FFFFFFFFFFFFE0
ENDCHAR
STARTCHAR oe
ENCODING 339
SWIDTH 944 0
DWIDTH 71 0
BBX 67 41 2 -1
BITMAP
0001FFC00007FC0000
000FFFF8007FFF8000
003FFFFE01FFFFE000
007FFFFF07FFFFF800
01FFFFFFDFFFFFFC00
03FFFFFFFFFFFFFE00
07FFFFFFFFFFFFFF00
0FFFFFFFFFFFFFFF00
1FFFFFFFFFFFFFFF80
1FFFFFFFFFFFFFFFC0
3FFFFFFFFFFFFFFFC0
3FFFFFFFFFFFFFFFC0
7FFFFFFFFFFC07FFE0
7FFFC1FFFFF003FFE0
7FFF007FFFE003FFE0
FFFE003FFFE003FFE0
FFFC001FFFC003FFE0
FFFC001FFFC007FFE0
FFF8000FFFFFFFFFE0
FFF8000FFFFFFFFFC0
FFF8000FFFFFFFFFC0
FFF8000FFFFFFFFF80
FFF8001FFFFFFFFF00
FFFC001FFFFFFFFE00
FFFC001FFFC0000000
FFFE003FFFC0000000
7FFF80FFFFE0000000
7FFFF7FFFFF0001800
7FFFFFFFFFFC00FE00
3FFFFFFFFFFFFFFE00
1FFFFFFFFFFFFFFF00
1FFFFFFFFFFFFFFF00
0FFFFFFFFFFFFFFF80
07FFFFFFFFFFFFFF80
03FFFFFFFFFFFFFF80
01FFFFFFDFFFFFFF80
00FFFFFF8FFFFFFF00
007FFFFF07FFFFFE00
001FFFFC01FFFFF800
0007FFF0003FFF8000
00007F000001400000
ENDCHAR
STARTCHAR Scaron
ENCODING 352
SWIDTH 583 0
DWIDTH 44 0
BBX 40 74 2 -1
BITMAP
00F8001E00
01FE007F00
03FF83FF80
03FFFFFFC0
07FFFFFFC0
07FFFFFFE0
07FFFFFFE0
07FFFFFFE0
07FFFFFFE0
03FFFFFFC0
00FFFFFF00
001FFFF800
0003FFC000
00007E0000
0000000000
0000000000
0000000000
0001FF0000
001FFFF000
007FFFFE00
00FFFFFF00
03FFFFFFC0
07FFFFFFE0
0FFFFFFFF0
0FFFFFFFF0
1FFFFFFFF8
3FFFFFFFF8
3FFFFFFFF0
3FFFFFFFF0
7FFFEFFFE0
7FFF00FFC0
7FFE007FC0
7FFC003F80
7FFC000400
7FFC000000
7FFC000000
7FFE000000
7FFF800000
7FFFE00000
3FFFFF0000
3FFFFFF000
1FFFFFFE00
1FFFFFFF80
0FFFFFFFE0
07FFFFFFF0
03FFFFFFF8
01FFFFFFF8
007FFFFFFC
001FFFFFFE
0003FFFFFE
00007FFFFE
000007FFFE
000000FFFF
0000007FFF
0780003FFF
0FC0003FFF
3FE0003FFF
3FF8003FFF
7FFC003FFF
FFFE007FFE
FFFF00FFFE
FFFFFFFFFE
FFFFFFFFFE
7FFFFFFFFC
7FFFFFFFFC
3FFFFFFFF8
1FFFFFFFF0
0FFFFFFFE0
07FFFFFFC0
03FFFFFF80
00FFFFFF00
007FFFFC00
000FFFE000
0000FE0000
ENDCHAR
STARTCHAR scaron
ENCODING 353
SWIDTH 489 0
DWIDTH 37 0
BBX 33 59 2 -1
BITMAP
0F0001E000
1FE00FF000
3FF83FF800
3FFEFFFC00
7FFFFFFC00
7FFFFFFC00
7FFFFFFE00
7FFFFFFE00
7FFFFFFC00
3FFFFFFC00
1FFFFFF000
01FFFF8000
003FFC0000
0007E00000
0000000000
0000000000
0000000000
0000000000
003FFE0000
01FFFFE000
03FFFFF800
0FFFFFFC00
1FFFFFFE00
1FFFFFFE00
3FFFFFFE00
3FFFFFFE00
3FFFFFFC00
7FFFFFFC00
7FFC07F800
7FF801F000
7FF8000000
7FFC000000
7FFF800000
3FFFFE0000
3FFFFF8000
3FFFFFF000
1FFFFFF800
1FFFFFFC00
0FFFFFFE00
07FFFFFF00
03FFFFFF00
00FFFFFF00
003FFFFF80
000FFFFF80
04007FFF80
1F800FFF80
3FE007FF80
7FF80FFF80
7FFFFFFF80
FFFFFFFF00
FFFFFFFF00
FFFFFFFF00
FFFFFFFE00
FFFFFFFE00
7FFFFFFC00
1FFFFFF800
07FFFFE000
00FFFF0000
0007E00000
ENDCHAR
STARTCHAR Ydieresis
ENCODING 376
SWIDTH 686 0
DWIDTH 51 0
BBX 49 73 1 0
BITMAP
001FE001FE0000
007FF007FF0000
00FFF807FF8000
00FFF80FFF8000
00FFF80FFF8000
00FFF80FFFC000
00FFF80FFFC000
00FFF80FFFC000
00FFF80FFF8000
00FFF80FFF8000
00FFF807FF8000
007FF007FF8000
003FE003FF0000
00000000000000
00000000000000
00000000000000
00000000000000
01C0000000C000
07E0000003F800
1FF0000007FC00
3FF8000007FE00
7FF800000FFF00
FFFC00001FFF80
FFFE00001FFF80
FFFE00003FFF80
FFFF00007FFF80
7FFF80007FFF00
7FFF8000FFFF00
3FFFC000FFFE00
1FFFC001FFFE00
0FFFE003FFFC00
0FFFF003FFF800
07FFF007FFF800
03FFF80FFFF000
03FFFC0FFFE000
01FFFC1FFFE000
00FFFE1FFFC000
00FFFE3FFF8000
007FFF7FFF8000
003FFFFFFF0000
003FFFFFFE0000
001FFFFFFE0000
000FFFFFFC0000
000FFFFFF80000
0007FFFFF80000
0003FFFFF00000
0003FFFFE00000
0001FFFFE00000
0000FFFFC00000
0000FFFF800000
00007FFF800000
00003FFF000000
00003FFE000000
00003FFE000000
00003FFE000000
00003FFE000000
00003FFE000000
00003FFE000000
00003FFE000000
00003FFE000000
00003FFE000000
00003FFE000000
00003FFE000000
00003FFE000000
00003FFE000000
00003FFE000000
00003FFE000000
00003FFE000000
00003FFE000000
00003FFE000000
00001FFE000000
00001FFC000000
00000FF8000000
ENDCHAR
STARTCHAR Zcaron
ENCODING 381
SWIDTH 643 0
DWIDTH 48 0
BBX 44 73 2 0
BITMAP
003E00078000
007F801FE000
007FE07FE000
00FFFFFFF000
00FFFFFFF000
01FFFFFFF800
01FFFFFFF800
01FFFFFFF800
01FFFFFFF800
00FFFFFFF000
003FFFFFC000
0007FFFE0000
0000FFF00000
00001F800000
000000000000
000000000000
000000000000
000000000000
3FFFFFFFFE00
7FFFFFFFFF80
FFFFFFFFFFC0
FFFFFFFFFFE0
FFFFFFFFFFE0
FFFFFFFFFFE0
FFFFFFFFFFE0
FFFFFFFFFFE0
FFFFFFFFFFE0
FFFFFFFFFFE0
FFFFFFFFFFC0
7FFFFFFFFF80
1FFFFFFFFF80
000000FFFF00
000001FFFE00
000003FFFC00
000007FFFC00
000007FFF800
00000FFFF000
00001FFFF000
00001FFFE000
00003FFFC000
00007FFF8000
0000FFFF8000
0000FFFF0000
0001FFFE0000
0003FFFC0000
0003FFFC0000
0007FFF80000
000FFFF00000
001FFFF00000
001FFFE00000
003FFFC00000
007FFF800000
00FFFF800000
00FFFF000000
01FFFE000000
03FFFE000000
03FFFC000000
07FFF8000000
0FFFF0000000
1FFFF0000000
1FFFFFFFFF80
3FFFFFFFFFE0
7FFFFFFFFFF0
7FFFFFFFFFF0
FFFFFFFFFFF0
FFFFFFFFFFF0
FFFFFFFFFFF0
FFFFFFFFFFF0
FFFFFFFFFFF0
FFFFFFFFFFF0
7FFFFFFFFFF0
3FFFFFFFFFE0
0FFFFFFFFFC0
ENDCHAR
STARTCHAR zcaron
ENCODING 382
SWIDTH 586 0
DWIDTH 44 0
BBX 40 58 2 0
BITMAP
0078000F00
00FF007F80
01FFC1FFC0
01FFF7FFE0
03FFFFFFE0
03FFFFFFE0
03FFFFFFF0
03FFFFFFF0
03FFFFFFE0
01FFFFFFE0
007FFFFF80
000FFFFC00
0001FFE000
00003F0000
0000000000
0000000000
0000000000
0000000000
01FFFFFF80
1FFFFFFFF0
3FFFFFFFF8
3FFFFFFFFC
3FFFFFFFFE
3FFFFFFFFE
3FFFFFFFFE
3FFFFFFFFE
3FFFFFFFFE
3FFFFFFFFE
3FFFFFFFFC
3FFFFFFFF8
1FFFFFFFF0
01FFFFFFE0
00003FFFC0
00007FFF80
0001FFFF00
0003FFFE00
0007FFFC00
000FFFF800
001FFFF000
003FFFE000
007FFF8000
00FFFF0000
03FFFE0000
07FFFC0000
0FFFF80000
1FFFFFFFFC
3FFFFFFFFE
7FFFFFFFFF
7FFFFFFFFF
FFFFFFFFFF
FFFFFFFFFF
FFFFFFFFFF
FFFFFFFFFF
FFFFFFFFFF
7FFFFFFFFF
7FFFFFFFFF
3FFFFFFFFE
0FFFFFFFF8
ENDCHAR
STARTCHAR florin
ENCODING 402
SWIDTH 529 0
DWIDTH 40 0
BBX 39 73 0 -17
BITMAP
00000001C0
0000003FFC
000000FFFC
000003FFFC
000007FFFE
00000FFFFE
00001FFFFE
00003FFFFC
00003FFFFC
00007FFFFC
00007FFFFC
0000FFFFF8
0000FFFFF0
0001FFFE00
0001FFF000
0001FFF000
0001FFF000
0001FFF000
0001FFF000
007FFFFFF8
00FFFFFFFC
01FFFFFFFC
03FFFFFFFC
03FFFFFFFE
03FFFFFFFE
03FFFFFFFC
03FFFFFFFC
03FFFFFFFC
03FFFFFFFC
03FFFFFFF8
01FFFFFFF8
00FFFFFFE0
0007FFC000
0007FFC000
0007FFC000
0007FFC000
0007FFC000
0007FFC000
0007FFC000
0007FFC000
000FFF8000
000FFF8000
000FFF8000
000FFF8000
000FFF8000
000FFF8000
000FFF8000
000FFF8000
000FFF8000
001FFF0000
001FFF0000
001FFF0000
001FFF0000
001FFF0000
001FFF0000
001FFF0000
001FFF0000
001FFF0000
003FFE0000
003FFE0000
07FFFE0000
1FFFFE0000
3FFFFC0000
7FFFFC0000
7FFFF80000
FFFFF80000
FFFFF00000
FFFFE00000
FFFFE00000
FFFFC00000
FFFF000000
7FFC000000
1FC0000000
ENDCHAR
STARTCHAR circumflex
ENCODING 710
SWIDTH 603 0
DWIDTH 45 0
BBX 30 14 8 44
BITMAP
000F8000
007FF000
03FFFE00
1FFFFFC0
7FFFFFF0
FFFFFFF8
FFFFFFFC
FFFFFFFC
FFFFFFFC
FFFFFFF8
7FFFFFF8
7FF87FF0
3FC01FE0
1F0007C0
ENDCHAR
STARTCHAR caron
ENCODING 711
SWIDTH 600 0
DWIDTH 45 0
BBX 30 14 8 44
BITMAP
1E0003C0
3FC01FE0
7FF07FF0
7FFDFFF8
FFFFFFF8
FFFFFFF8
FFFFFFFC
FFFFFFFC
FFFFFFF8
7FFFFFF8
1FFFFFE0
03FFFF00
007FF800
000FC000
ENDCHAR
STARTCHAR dotaccent
ENCODING 729
SWIDTH 285 0
DWIDTH 21 0
BBX 14 13 4 53
BITMAP
0FC0
3FF0
7FF8
7FF8
7FFC
FFFC
FFFC
FFFC
7FFC
7FF8
7FF8
7FF8
3FF0
ENDCHAR
STARTCHAR ring
ENCODING 730
SWIDTH 378 0
DWIDTH 28 0
BBX 20 19 4 50
BITMAP
01F800
07FE00
0FFF80
1FFFC0
3FFFC0
7F8FE0
7E07E0
7C03F0
7C01F0
FC01F0
7C01F0
7C03F0
7C03F0
7F07E0
3FFFE0
3FFFC0
1FFF80
0FFF00
03FC00
ENDCHAR
STARTCHAR ogonek
ENCODING 731
SWIDTH 570 0
DWIDTH 43 0
BBX 15 16 13 -14
BITMAP
07F0
1FFC
3FFE
7FFE
7FFE
FFFC
FF78
FE00
FE00
FF38
FFFC
7FFE
7FFE
3FFE
1FFC
07F8
ENDCHAR
STARTCHAR tilde
ENCODING 732
SWIDTH 584 0
DWIDTH 44 0
BBX 30 14 6 44
BITMAP
01FC01C0
07FF03F0
0FFF87F8
1FFFCFF8
3FFFFFFC
7FFFFFFC
7FFFFFF8
FFFFFFF8
FFFFFFF0
FFFFFFE0
7F8FFFE0
3F07FFC0
1E01FF00
04001800
ENDCHAR
STARTCHAR endash
ENCODING 8211
SWIDTH 561 0
DWIDTH 42 0
BBX 40 13 1 14
BITMAP
0FFFFFFFF0
7FFFFFFFFC
7FFFFFFFFE
FFFFFFFFFF
FFFFFFFFFF
FFFFFFFFFF
FFFFFFFFFF
FFFFFFFFFF
FFFFFFFFFF
FFFFFFFFFF
7FFFFFFFFE
3FFFFFFFFE
07FFFFFFF0
ENDCHAR
STARTCHAR emdash
ENCODING 8212
SWIDTH 693 0
DWIDTH 52 0
BBX 50 13 1 14
BITMAP
0FFFFFFFFFFC00
7FFFFFFFFFFF00
7FFFFFFFFFFF80
FFFFFFFFFFFFC0
FFFFFFFFFFFFC0
FFFFFFFFFFFFC0
FFFFFFFFFFFFC0
FFFFFFFFFFFFC0
FFFFFFFFFFFFC0
FFFFFFFFFFFFC0
7FFFFFFFFFFF80
3FFFFFFFFFFF80
07FFFFFFFFF800
ENDCHAR
STARTCHAR quoteleft
ENCODING 8216
SWIDTH 237 0
DWIDTH 18 0
BBX 14 26 2 29
BITMAP
0078
01FC
03FC
07FC
0FFC
1FF8
1FE0
3FC0
3FC0
7F80
7F80
7F80
7FE0
FFF8
FFF8
FFFC
FFFC
FFFC
FFFC
FFFC
FFFC
FFFC
FFFC
7FF8
7FF8
1FE0
ENDCHAR
STARTCHAR quoteright
ENCODING 8217
SWIDTH 237 0
DWIDTH 18 0
BBX 14 26 2 29
BITMAP
1FE0
7FF8
7FF8
FFFC
FFFC
FFFC
FFFC
FFFC
FFFC
FFFC
FFFC
7FFC
7FF8
1FF8
07F8
07F8
07F0
0FF0
0FF0
1FE0
7FC0
FFC0
FF80
FF00
FC00
7000
ENDCHAR
STARTCHAR quotesinglbase
ENCODING 8218
SWIDTH 237 0
DWIDTH 18 0
BBX 14 26 2 -12
BITMAP
1FE0
7FF0
7FF8
FFFC
FFFC
FFFC
FFFC
FFFC
FFFC
FFFC
FFFC
7FFC
7FF8
1FF8
07F8
07F8
07F0
0FF0
0FE0
1FE0
7FC0
FFC0
FF80
FF00
FE00
7000
ENDCHAR
STARTCHAR quotedblleft
ENCODING 8220
SWIDTH 482 0
DWIDTH 36 0
BBX 32 26 2 29
BITMAP
0078000F
01FC003F
03FC00FF
07FC01FF
0FFC03FF
1FF803FE
1FE007F8
3FC007F0
3FC00FF0
7F800FF0
7F801FE0
7F801FE0
7FE01FF8
FFF81FFE
FFF83FFF
FFFC3FFF
FFFC3FFF
FFFC3FFF
FFFC3FFF
FFFC3FFF
FFFC3FFF
FFFC3FFF
FFFC1FFF
7FF81FFF
7FF80FFE
1FE007F8
ENDCHAR
STARTCHAR quotedblright
ENCODING 8221
SWIDTH 482 0
DWIDTH 36 0
BBX 32 26 2 29
BITMAP
1FE007F8
7FF80FFE
7FF81FFE
FFFC1FFF
FFFC3FFF
FFFC3FFF
FFFC3FFF
FFFC3FFF
FFFC3FFF
FFFC3FFF
FFFC3FFF
7FFC1FFF
7FF80FFF
1FF807FF
07F801FE
07F801FE
07F001FE
0FF001FC
0FF003FC
1FE007F8
7FC01FF8
FFC03FF0
FF803FE0
FF003FC0
FC003F80
70001E00
ENDCHAR
STARTCHAR quotedblbase
ENCODING 8222
SWIDTH 482 0
DWIDTH 36 0
BBX 32 26 2 -12
BITMAP
1FE007F8
7FF00FFE
7FF81FFE
FFFC1FFF
FFFC3FFF
FFFC3FFF
FFFC3FFF
FFFC3FFF
FFFC3FFF
FFFC3FFF
FFFC3FFF
7FFC1FFF
7FF80FFF
1FF807FF
07F801FE
07F801FE
07F001FE
0FF001FC
0FE003FC
1FE007F8
7FC01FF8
FFC03FF0
FF803FE0
FF003FC0
FE003F80
70001E00
ENDCHAR
STARTCHAR dagger
ENCODING 8224
SWIDTH 527 0
DWIDTH 40 0
BBX 37 70 1 -14
BITMAP
0001FE0000
0007FF0000
0007FF8000
000FFF8000
000FFF8000
000FFF8000
000FFF8000
000FFF8000
000FFF8000
000FFF8000
000FFF8000
000FFF8000
000FFF8000
000FFF8000
000FFF8000
000FFF8000
000FFF8000
000FFF8000
3FFFFFFFF0
7FFFFFFFF8
FFFFFFFFF8
FFFFFFFFF8
FFFFFFFFF8
FFFFFFFFF8
FFFFFFFFF8
FFFFFFFFF8
FFFFFFFFF8
7FFFFFFFF8
3FFFFFFFF0
000FFF8000
000FFF8000
000FFF8000
000FFF8000
000FFF8000
000FFF8000
000FFF8000
000FFF8000
000FFF8000
000FFF8000
000FFF8000
000FFF8000
000FFF8000
000FFF8000
000FFF8000
000FFF8000
000FFF8000
000FFF8000
000FFF8000
000FFF8000
000FFF8000
000FFF8000
000FFF8000
000FFF8000
000FFF8000
000FFF8000
000FFF8000
000FFF8000
000FFF8000
000FFF8000
000FFF8000
000FFF8000
000FFF8000
000FFF8000
000FFF8000
000FFF8000
000FFF8000
000FFF8000
0007FF8000
0007FF0000
0003FE0000
ENDCHAR
STARTCHAR daggerdbl
ENCODING 8225
SWIDTH 527 0
DWIDTH 40 0
BBX 37 70 1 -14
BITMAP
0001FE0000
0007FF0000
0007FF8000
000FFF8000
000FFF8000
000FFF8000
000FFF8000
000FFF8000
000FFF8000
000FFF8000
000FFF8000
000FFF8000
000FFF8000
000FFF8000
000FFF8000
000FFF8000
000FFF8000
000FFF8000
3FFFFFFFF0
7FFFFFFFF8
FFFFFFFFF8
FFFFFFFFF8
FFFFFFFFF8
FFFFFFFFF8
FFFFFFFFF8
FFFFFFFFF8
FFFFFFFFF8
7FFFFFFFF8
3FFFFFFFF0
000FFF8000
000FFF8000
000FFF8000
000FFF8000
000FFF8000
000FFF8000
000FFF8000
000FFF8000
000FFF8000
000FFF8000
000FFF8000
000FFF8000
3FFFFFFFE0
7FFFFFFFF8
FFFFFFFFF8
FFFFFFFFF8
FFFFFFFFF8
FFFFFFFFF8
FFFFFFFFF8
FFFFFFFFF8
FFFFFFFFF8
7FFFFFFFF8
3FFFFFFFF0
0F0FFF8380
000FFF8000
000FFF8000
000FFF8000
000FFF8000
000FFF8000
000FFF8000
000FFF8000
000FFF8000
000FFF8000
000FFF8000
000FFF8000
000FFF8000
000FFF8000
000FFF8000
0007FF8000
0007FF0000
0003FE0000
ENDCHAR
STARTCHAR bullet
ENCODING 8226
SWIDTH 342 0
DWIDTH 26 0
BBX 22 22 2 13
BITMAP
00F800
07FF80
1FFFC0
3FFFE0
7FFFF0
7FFFF8
7FFFF8
FFFFF8
FFFFFC
FFFFFC
FFFFFC
FFFFFC
FFFFFC
FFFFFC
FFFFFC
FFFFF8
7FFFF8
7FFFF0
3FFFF0
1FFFE0
0FFFC0
03FF00
ENDCHAR
STARTCHAR ellipsis
ENCODING 8230
SWIDTH 911 0
DWIDTH 68 0
BBX 64 14 2 0
BITMAP
1FE0000FF00003F8
7FF0001FFC000FFE
7FF8003FFC001FFF
FFFC007FFE001FFF
FFFC007FFE003FFF
FFFC007FFE003FFF
FFFC007FFE003FFF
FFFC007FFE003FFF
FFFC007FFE003FFF
FFFC007FFE001FFF
FFFC007FFE001FFF
7FF8003FFC001FFF
7FF8003FFC000FFE
1FE0000FF00007F8
ENDCHAR
STARTCHAR perthousand
ENCODING 8240
SWIDTH 1223 0
DWIDTH 92 0
BBX 86 61 3 -2
BITMAP
0000000000600000000000
0000000000F80000000000
0000000000FC0000000000
0000000001FC0000000000
00FF800001FC0000000000
03FFF00003F80000000000
07FFF80003F80000000000
1FFFFC0007F00000000000
1FFFFE000FF00000000000
3FFFFE000FE00000000000
7FFFFF001FE00000000000
7FFFFF001FC00000000000
7FFFFF803FC00000000000
FFC0FF803F800000000000
FF80FF807F800000000000
FF007F807F000000000000
FF007F80FF000000000000
FF007F80FE000000000000
FF007F81FE000000000000
FF007F81FC000000000000
FF807F83FC000000000000
FF80FF83F8000000000000
7FE3FF87F0000000000000
7FFFFF87F0000000000000
7FFFFF0FE0000000000000
3FFFFF1FE0000000000000
3FFFFE1FC0000000000000
1FFFFE3FC0000000000000
0FFFFC3F80000000000000
07FFF87F80000000000000
01FFE07F00000000000000
003F00FF007F000003F800
000000FE03FFE0001FFF00
000001FE07FFF0007FFF80
000001FC1FFFF800FFFFC0
000003FC1FFFFC01FFFFE0
000003F83FFFFE01FFFFF0
000007F87FFFFE03FFFFF0
000007F07FFFFF03FFFFF8
00000FE07FFFFF07FFFFF8
00000FE0FFC1FF07FE1FF8
00001FC0FF80FF87F807F8
00001FC0FF007F87F807FC
00003F80FF007F8FF807FC
00007F80FF007F8FF803FC
00007F00FF007F8FF803FC
0000FF00FF007F8FF807FC
0000FE00FF007F87F807FC
0001FE00FF80FF87F807F8
0001FC00FFC1FF87FC0FF8
0003FC00FFFFFF07FFFFF8
0003F8007FFFFF03FFFFF8
0007F8007FFFFF03FFFFF0
0007F0003FFFFE01FFFFF0
000FF0003FFFFE01FFFFE0
000FE0001FFFFC00FFFFC0
001FC0000FFFF8007FFF80
001FC00003FFE0001FFF00
003F800000FF800007FC00
001F800000000000000000
0007000000000000000000
ENDCHAR
STARTCHAR guilsinglleft
ENCODING 8249
SWIDTH 383 0
DWIDTH 29 0
BBX 27 40 1 0
BITMAP
00001000
00007C00
0000FE00
0001FF00
0003FF80
0007FFC0
000FFFC0
001FFFE0
003FFFC0
007FFFC0
00FFFF80
01FFFF00
03FFFE00
07FFFC00
0FFFF800
1FFFF000
3FFFE000
7FFFC000
FFFF8000
FFFF0000
FFFF0000
FFFF8000
7FFFC000
7FFFE000
3FFFF000
1FFFF800
0FFFFC00
07FFFE00
03FFFF00
01FFFF80
00FFFFC0
007FFFC0
003FFFE0
001FFFE0
000FFFC0
0007FFC0
0003FF80
0001FF00
0000FE00
00003800
ENDCHAR
STARTCHAR guilsinglright
ENCODING 8250
SWIDTH 383 0
DWIDTH 29 0
BBX 27 40 1 0
BITMAP
03000000
0FC00000
1FE00000
3FF00000
7FF80000
7FFC0000
FFFE0000
FFFF0000
FFFF8000
7FFFC000
7FFFE000
3FFFF000
1FFFF800
0FFFFC00
07FFFE00
03FFFF00
01FFFF80
00FFFFC0
007FFFC0
003FFFE0
001FFFE0
003FFFE0
007FFFC0
00FFFF80
01FFFF00
03FFFE00
07FFFC00
0FFFF800
1FFFF000
3FFFE000
7FFFC000
7FFF8000
FFFF0000
FFFE0000
FFFC0000
7FF80000
3FF00000
1FE00000
0FC00000
07800000
ENDCHAR
STARTCHAR fraction
ENCODING 8260
SWIDTH 433 0
DWIDTH 32 0
BBX 36 61 3 -2
BITMAP
0000000180
00000003E0
00000007F0
00000007F0
0000000FF0
0000000FE0
0000001FC0
0000001FC0
0000003F80
0000007F80
0000007F00
000000FF00
000000FE00
000001FE00
000001FC00
000003FC00
000003F800
000007F800
000007F000
00000FF000
00000FE000
00001FE000
00001FC000
00003F8000
00003F8000
00007F0000
0000FF0000
0000FE0000
0001FE0000
0001FC0000
0003FC0000
0003F80000
0007F80000
0007F00000
000FF00000
000FE00000
001FE00000
001FC00000
003FC00000
003F800000
007F000000
007F000000
00FE000000
01FE000000
01FC000000
03FC000000
03F8000000
07F8000000
07F0000000
0FF0000000
0FE0000000
1FE0000000
1FC0000000
3FC0000000
3F80000000
7F80000000
7F00000000
FE00000000
FE00000000
7C00000000
3C00000000
ENDCHAR
STARTCHAR Euro
ENCODING 8364
SWIDTH 612 0
DWIDTH 46 0
BBX 43 58 1 0
BITMAP
000000FFFF00
000007FFFFC0
00003FFFFFC0
0000FFFFFFE0
0001FFFFFFE0
0003FFFFFFE0
0007FFFFFFE0
000FFFFFFFE0
001FFFFFFFE0
003FFFFFFFE0
003FFFFFFFE0
007FFFFFFFC0
007FFFFFFF80
00FFFFE00000
00FFFF000000
00FFFC000000
00FFFC000000
01FFF8000000
01FFF8000000
7FFFFFFFFC00
7FFFFFFFFC00
FFFFFFFFFE00
FFFFFFFFFE00
FFFFFFFFFE00
FFFFFFFFFE00
7FFFFFFFFC00
7FFFFFFFF800
03FFE0000000
03FFE0000000
03FFE0000000
03FFE0000000
3FFFFFFFF800
7FFFFFFFFC00
FFFFFFFFFE00
FFFFFFFFFE00
FFFFFFFFFE00
FFFFFFFFFE00
FFFFFFFFFE00
7FFFFFFFFC00
01FFF8000000
01FFF8000000
00FFF8000000
00FFFC000000
00FFFE000000
007FFF800000
007FFFFFFF80
003FFFFFFFC0
003FFFFFFFE0
001FFFFFFFE0
001FFFFFFFE0
000FFFFFFFE0
0007FFFFFFE0
0003FFFFFFE0
0001FFFFFFE0
0000FFFFFFE0
00003FFFFFC0
00000FFFFFC0
000000FFFF00
ENDCHAR
STARTCHAR trademark
ENCODING 8482
SWIDTH 840 0
DWIDTH 63 0
BBX 59 30 1 18
BITMAP
1FFFFF0060000400
7FFFFFC1FC001FC0
FFFFFFE3FC003FC0
FFFFFFE3FE007FE0
FFFFFFE3FF007FE0
FFFFFFE3FF80FFE0
FFFFFFE3FF81FFE0
FFFFFFE3FFC1FFE0
7FFFFFC3FFE3FFE0
007FC003FFE7FFE0
007FC003FFFFFFE0
007FC003FFFFFFE0
007FC003FFFFFFE0
007FC003FFFFFFE0
007FC003FFFFFFE0
007FC003FFFFFFE0
007FC003FFFFFFE0
007FC003FFFFFFE0
007FC003FFFFFFE0
007FC003FFFFBFE0
007FC003FEFFBFE0
007FC003FE7F3FE0
007FC003FE3E3FE0
007FC003FE003FE0
007FC003FE003FE0
007FC003FE003FE0
007FC003FE003FE0
007FC003FE003FE0
007FC003FC003FE0
003F8001F8001FC0
ENDCHAR
STARTCHAR minus
ENCODING 8722
SWIDTH 581 0
DWIDTH 44 0
BBX 40 13 2 14
BITMAP
0FFFFFFFF0
7FFFFFFFFC
FFFFFFFFFE
FFFFFFFFFE
FFFFFFFFFF
FFFFFFFFFF
FFFFFFFFFF
FFFFFFFFFF
FFFFFFFFFF
FFFFFFFFFE
7FFFFFFFFE
7FFFFFFFFC
07FFFFFFC0
ENDCHAR
STARTCHAR f_f
ENCODING 64256
SWIDTH 803 0
DWIDTH 60 0
BBX 58 58 1 0
BITMAP
00003FF0000FFC00
0001FFF8007FFE00
0007FFF800FFFF00
000FFFF801FFFF00
001FFFFC03FFFF00
003FFFFC07FFFF00
003FFFFC0FFFFF00
007FFFFC1FFFFF00
00FFFFFC1FFFFF00
00FFFFF83FFFFF00
00FFFFF83FFFFE00
01FFFFF03FFFFE00
01FFFFE03FFFFC00
01FFF8003FFE0000
01FFF0007FFE0000
01FFF0007FFE0000
01FFF0007FFE0000
01FFF0007FFE0000
01FFF0007FFE1800
3FFFFFFFFFFFFF00
7FFFFFFFFFFFFF80
7FFFFFFFFFFFFFC0
FFFFFFFFFFFFFFC0
FFFFFFFFFFFFFFC0
FFFFFFFFFFFFFFC0
FFFFFFFFFFFFFFC0
FFFFFFFFFFFFFFC0
FFFFFFFFFFFFFFC0
FFFFFFFFFFFFFFC0
7FFFFFFFFFFFFF80
7FFFFFFFFFFFFF80
1DFFF1FF7FFEF800
01FFF0007FFE0000
01FFF0007FFE0000
01FFF0007FFE0000
01FFF0007FFE0000
01FFF0007FFE0000
01FFF0007FFE0000
01FFF0007FFE0000
01FFF0007FFE0000
01FFF0007FFE0000
01FFF0007FFE0000
01FFF0007FFE0000
01FFF0007FFE0000
01FFF0007FFE0000
01FFF0007FFE0000
01FFF0007FFE0000
01FFF0007FFE0000
01FFF0007FFE0000
01FFF0007FFE0000
01FFF0007FFE0000
01FFF0007FFE0000
01FFF0007FFE0000
01FFF0003FFE0000
01FFF0003FFC0000
00FFF0003FFC0000
00FFE0001FF80000
003F80000FF00000
ENDCHAR
STARTCHAR fi
ENCODING 64257
SWIDTH 709 0
DWIDTH 53 0
BBX 49 58 1 0
BITMAP
00003FE001FC00
0001FFF807FF00
0007FFF807FF80
000FFFF80FFF80
001FFFFC0FFF80
003FFFFC0FFF80
003FFFFC0FFF80
007FFFFC0FFF80
00FFFFFC0FFF80
00FFFFF80FFF80
00FFFFF807FF80
01FFFFF807FF00
01FFFFE003FE00
01FFF800000000
01FFF000000000
01FFF000000000
01FFF000000000
01FFF000000000
01FFF000000000
3FFFFFFC03FE00
7FFFFFFE07FF00
7FFFFFFE0FFF80
FFFFFFFE0FFF80
FFFFFFFF0FFF80
FFFFFFFF0FFF80
FFFFFFFF0FFF80
FFFFFFFF0FFF80
FFFFFFFE0FFF80
FFFFFFFE0FFF80
7FFFFFFE0FFF80
7FFFFFFC0FFF80
0FFFF7F00FFF80
01FFF0000FFF80
01FFF0000FFF80
01FFF0000FFF80
01FFF0000FFF80
01FFF0000FFF80
01FFF0000FFF80
01FFF0000FFF80
01FFF0000FFF80
01FFF0000FFF80
01FFF0000FFF80
01FFF0000FFF80
01FFF0000FFF80
01FFF0000FFF80
01FFF0000FFF80
01FFF0000FFF80
01FFF0000FFF80
01FFF0000FFF80
01FFF0000FFF80
01FFF0000FFF80
01FFF0000FFF80
01FFF0000FFF80
01FFF0000FFF80
01FFF0000FFF80
00FFF00007FF80
00FFE00007FF00
003FC00001FC00
ENDCHAR
STARTCHAR fl
ENCODING 64258
SWIDTH 774 0
DWIDTH 58 0
BBX 56 58 1 0
BITMAP
00003FE003FC00
0001FFF807FF00
0007FFF80FFF00
000FFFF80FFF00
001FFFFC0FFF80
003FFFFC0FFF80
003FFFFC0FFF80
007FFFFC0FFF80
00FFFFFC0FFF80
00FFFFF80FFF80
00FFFFF80FFF80
01FFFFF80FFF80
01FFFFE00FFF80
01FFF8000FFF80
01FFF0000FFF80
01FFF0000FFF80
01FFF0000FFF80
01FFF0000FFF80
01FFF0000FFF80
3FFFFFFC0FFF80
7FFFFFFE0FFF80
7FFFFFFE0FFF80
FFFFFFFE0FFF80
FFFFFFFF0FFF80
FFFFFFFF0FFF80
FFFFFFFF0FFF80
FFFFFFFF0FFF80
FFFFFFFE0FFF80
FFFFFFFE0FFF80
7FFFFFFE0FFF80
7FFFFFFC0FFF80
0FFFF7F00FFF80
01FFF0000FFF80
01FFF0000FFF80
01FFF0000FFF80
01FFF0000FFF80
01FFF0000FFF80
01FFF0000FFF80
01FFF0000FFF80
01FFF0000FFF80
01FFF0000FFF80
01FFF0000FFF80
01FFF0000FFF80
01FFF0000FFF80
01FFF0000FFF80
01FFF0000FFFF8
01FFF0000FFFFE
01FFF0000FFFFE
01FFF0000FFFFF
01FFF0000FFFFF
01FFF0000FFFFF
01FFF00007FFFF
01FFF00007FFFF
01FFF00007FFFF
01FFF00003FFFF
00FFF00001FFFF
00FFE000007FFE
003FC000000FFC
ENDCHAR
STARTCHAR f_f_i
ENCODING 64259
SWIDTH 1059 0
DWIDTH 79 0
BBX 75 58 1 0
BITMAP
00003FF0000FFC000C00
0001FFF8007FFE00FFC0
0007FFF800FFFF01FFE0
000FFFF801FFFF01FFE0
001FFFFC03FFFF03FFE0
003FFFFC07FFFF03FFE0
003FFFFC0FFFFF03FFE0
007FFFFC1FFFFF03FFE0
00FFFFFC1FFFFF03FFE0
00FFFFF83FFFFF03FFE0
00FFFFF83FFFFE01FFE0
01FFFFF03FFFFE01FFE0
01FFFFE03FFFFC00FFC0
01FFF8003FFE00000000
01FFF0007FFE00000000
01FFF0007FFE00000000
01FFF0007FFE00000000
01FFF0007FFE00000000
01FFF0007FFE18000000
3FFFFFFFFFFFFF00FF80
7FFFFFFFFFFFFF81FFC0
7FFFFFFFFFFFFFC1FFE0
FFFFFFFFFFFFFFC1FFE0
FFFFFFFFFFFFFFC3FFE0
FFFFFFFFFFFFFFC3FFE0
FFFFFFFFFFFFFFC3FFE0
FFFFFFFFFFFFFFC3FFE0
FFFFFFFFFFFFFFC3FFE0
FFFFFFFFFFFFFFC3FFE0
7FFFFFFFFFFFFF83FFE0
7FFFFFFFFFFFFF83FFE0
1DFFF1FF7FFEF803FFE0
01FFF0007FFE0003FFE0
01FFF0007FFE0003FFE0
01FFF0007FFE0003FFE0
01FFF0007FFE0003FFE0
01FFF0007FFE0003FFE0
01FFF0007FFE0003FFE0
01FFF0007FFE0003FFE0
01FFF0007FFE0003FFE0
01FFF0007FFE0003FFE0
01FFF0007FFE0003FFE0
01FFF0007FFE0003FFE0
01FFF0007FFE0003FFE0
01FFF0007FFE0003FFE0
01FFF0007FFE0003FFE0
01FFF0007FFE0003FFE0
01FFF0007FFE0003FFE0
01FFF0007FFE0003FFE0
01FFF0007FFE0003FFE0
01FFF0007FFE0003FFE0
01FFF0007FFE0003FFE0
01FFF0007FFE0003FFE0
01FFF0003FFE0003FFE0
01FFF0003FFC0001FFE0
00FFF0003FFC0001FFE0
00FFE0001FF80001FFC0
003F80000FF000007F80
ENDCHAR
STARTCHAR .notdef
ENCODING -1
SWIDTH 500 0
DWIDTH 38 0
BBX 1 1 0 0
BITMAP
00
ENDCHAR
STARTCHAR .null
ENCODING -1
SWIDTH 0 0
DWIDTH 0 0
BBX 1 1 0 0
BITMAP
00
ENDCHAR
STARTCHAR nonmarkingreturn
ENCODING -1
SWIDTH 333 0
DWIDTH 25 0
BBX 1 1 0 0
BITMAP
00
ENDCHAR
STARTCHAR f_t
ENCODING -1
SWIDTH 814 0
DWIDTH 61 0
BBX 59 58 1 0
BITMAP
00003FF000000000
0001FFF800000000
0007FFF800000000
000FFFF800000000
001FFFFC00000000
003FFFFC07F80000
003FFFFC1FFC0000
007FFFFC1FFE0000
00FFFFFC1FFE0000
00FFFFF83FFE0000
00FFFFF83FFE0000
01FFFFF03FFE0000
01FFFFE03FFE0000
01FFF8003FFE0000
01FFF0003FFE0000
01FFF0003FFE0000
01FFF0003FFE0000
01FFF0003FFE0000
01FFF0003FFE0000
3FFFFFFFFFFFFF80
7FFFFFFFFFFFFFC0
7FFFFFFFFFFFFFC0
FFFFFFFFFFFFFFE0
FFFFFFFFFFFFFFE0
FFFFFFFFFFFFFFE0
FFFFFFFFFFFFFFE0
FFFFFFFFFFFFFFE0
FFFFFFFFFFFFFFE0
FFFFFFFFFFFFFFE0
7FFFFFFFFFFFFFC0
7FFFFFFFFFFFFFC0
1DFFF1FFFFFEFF00
01FFF0003FFE0000
01FFF0003FFE0000
01FFF0003FFE0000
01FFF0003FFE0000
01FFF0003FFE0000
01FFF0003FFE0000
01FFF0003FFE0000
01FFF0003FFE0000
01FFF0003FFE0000
01FFF0003FFE0000
01FFF0003FFE0000
01FFF0003FFF0000
01FFF0003FFF0000
01FFF0001FFFC000
01FFF0001FFFFE00
01FFF0001FFFFF00
01FFF0001FFFFF80
01FFF0000FFFFF80
01FFF0000FFFFF80
01FFF00007FFFF80
01FFF00007FFFF80
01FFF00003FFFF80
01FFF00001FFFF80
00FFF000007FFF00
00FFE000001FFF00
003F80000007FC00
ENDCHAR
STARTCHAR t_t
ENCODING -1
SWIDTH 794 0
DWIDTH 60 0
BBX 57 53 1 0
BITMAP
003F80001FE00000
00FFE0003FF80000
01FFF0007FF80000
01FFF0007FFC0000
01FFF0007FFC0000
01FFF0007FFC0000
01FFF0007FFC0000
01FFF0007FFC0000
01FFF0007FFC0000
01FFF0007FFC0000
01FFF0007FFC0000
01FFF0007FFC0000
01FFF0007FFC0000
01FFF0007FFC0000
3FFFFFFFFFFFFE00
7FFFFFFFFFFFFF80
7FFFFFFFFFFFFF80
FFFFFFFFFFFFFF80
FFFFFFFFFFFFFF80
FFFFFFFFFFFFFF80
FFFFFFFFFFFFFF80
FFFFFFFFFFFFFF80
FFFFFFFFFFFFFF80
FFFFFFFFFFFFFF80
7FFFFFFFFFFFFF80
7FFFFFFFFFFFFF00
1DFFF7FF7FFFFC00
01FFF0007FFC0000
01FFF0007FFC0000
01FFF0007FFC0000
01FFF0007FFC0000
01FFF0007FFC0000
01FFF0007FFC0000
01FFF0007FFC0000
01FFF0007FFC0000
01FFF0007FFC0000
01FFF0007FFC0000
01FFF0007FFC0000
01FFF0007FFC0000
01FFF8007FFC0000
01FFFC007FFF0000
01FFFFF07FFFFC00
00FFFFF87FFFFE00
00FFFFF83FFFFE00
00FFFFF83FFFFE00
007FFFFC3FFFFE00
007FFFFC1FFFFE00
003FFFFC0FFFFE00
001FFFF80FFFFE00
000FFFF803FFFE00
0007FFF801FFFE00
0001FFF0007FFC00
00003FE0000FF800
ENDCHAR
STARTCHAR l_l
ENCODING -1
SWIDTH 626 0
DWIDTH 47 0
BBX 43 58 3 0
BITMAP
3FE001FE0000
7FF007FF0000
FFF807FF8000
FFF80FFF8000
FFF80FFF8000
FFF80FFF8000
FFF80FFF8000
FFF80FFF8000
FFF80FFF8000
FFF80FFF8000
FFF80FFF8000
FFF80FFF8000
FFF80FFF8000
FFF80FFF8000
FFF80FFF8000
FFF80FFF8000
FFF80FFF8000
FFF80FFF8000
FFF80FFF8000
FFF80FFF8000
FFF80FFF8000
FFF80FFF8000
FFF80FFF8000
FFF80FFF8000
FFF80FFF8000
FFF80FFF8000
FFF80FFF8000
FFF80FFF8000
FFF80FFF8000
FFF80FFF8000
FFF80FFF8000
FFF80FFF8000
FFF80FFF8000
FFF80FFF8000
FFF80FFF8000
FFF80FFF8000
FFF80FFF8000
FFF80FFF8000
FFF80FFF8000
FFF80FFF8000
FFF80FFF8000
FFF80FFF8000
FFF80FFF8000
FFF80FFF8000
FFF80FFFF000
FFFF8FFFFF00
FFFFC7FFFFC0
FFFFC7FFFFC0
7FFFC7FFFFE0
7FFFE7FFFFE0
7FFFE3FFFFE0
7FFFE3FFFFE0
3FFFE1FFFFE0
1FFFE0FFFFE0
1FFFC07FFFC0
0FFFC03FFFC0
03FF800FFF80
003F0000FE00
ENDCHAR
STARTCHAR j_j
ENCODING -1
SWIDTH 521 0
DWIDTH 39 0
BBX 46 75 -10 -17
BITMAP
000010000180
0003FF001FF0
0003FF803FF8
0007FFC07FFC
0007FFC07FFC
0007FFC07FFC
0007FFC07FFC
0007FFC07FFC
0007FFC07FFC
0007FFC07FFC
0007FFC03FFC
0003FF803FF8
0001FF001FF0
000000000000
000000000000
000000000000
000000000000
000000000000
000000000000
0001FF001FF0
0003FF803FF8
0007FFC03FFC
0007FFC07FFC
0007FFC07FFC
0007FFC07FFC
0007FFC07FFC
0007FFC07FFC
0007FFC07FFC
0007FFC07FFC
0007FFC07FFC
0007FFC07FFC
0007FFC07FFC
0007FFC07FFC
0007FFC07FFC
0007FFC07FFC
0007FFC07FFC
0007FFC07FFC
0007FFC07FFC
0007FFC07FFC
0007FFC07FFC
0007FFC07FFC
0007FFC07FFC
0007FFC07FFC
0007FFC07FFC
0007FFC07FFC
0007FFC07FFC
0007FFC07FFC
0007FFC07FFC
0007FFC07FFC
0007FFC07FFC
0007FFC07FFC
0007FFC07FFC
0007FFC07FFC
0007FFC07FFC
0007FFC07FFC
0007FFC07FFC
0007FFC07FFC
0007FFC07FFC
000FFFC07FFC
000FFFC07FFC
001FFF807FFC
003FFF807FFC
0FFFFF83FFFC
3FFFFF1FFFF8
7FFFFF1FFFF8
FFFFFE3FFFF8
FFFFFE3FFFF0
FFFFFC3FFFF0
FFFFF83FFFF0
FFFFF03FFFE0
FFFFE03FFFC0
FFFFC03FFF80
7FFF803FFF00
7FFE003FFE00
3FF0001FF800
ENDCHAR
ENDFONT
